<svg id="Layer_1" data-name="Layer 1" xmlns="http://www.w3.org/2000/svg" viewBox="0 0 326.13 576"><defs><style>.cls-1,.cls-4{fill:#335296;}.cls-2,.cls-3{fill:#93d4da;}.cls-2,.cls-4{fill-rule:evenodd;}.cls-5{fill:#fff;}.cls-6{fill:#ef3e42;}</style></defs><title>airLogo</title><path class="cls-1" d="M128.11,478.48h12.46a2.51,2.51,0,0,1,2.77,2.21l6.58,43.82a2.73,2.73,0,0,1-.42,2.18,2.22,2.22,0,0,1-1.87.79H137.32c-1.71,0-2.63-.76-2.77-2.28l-.55-5.33H120.78l-2.43,5.33a3.46,3.46,0,0,1-3.32,2.28H104.3a1.73,1.73,0,0,1-1.69-.83,2.25,2.25,0,0,1,.24-2.14l22.08-43.82A3.37,3.37,0,0,1,128.11,478.48Zm-2.83,29.07h8.37l-1.38-14.26h-.21Z"/><path class="cls-1" d="M154.62,525l7.76-44a2.6,2.6,0,0,1,2.77-2.49h10.1c1.75,0,2.49.76,2.21,2.28L169.67,525a2.69,2.69,0,0,1-2.83,2.5H156.76C155,527.48,154.3,526.65,154.62,525Z"/><path class="cls-1" d="M187.78,478.48h17.06q19,0,19,13.43a25.84,25.84,0,0,1-.42,4.36,18.26,18.26,0,0,1-11.49,14.39l5.89,13.71a2.49,2.49,0,0,1,.06,2.21,1.85,1.85,0,0,1-1.8.9h-9.57a3.12,3.12,0,0,1-3.26-2L198.32,513l-4.09,0-2.15,12c-.32,1.67-1.23,2.5-2.74,2.5h-9.89c-1.79,0-2.52-.82-2.2-2.48L185,481A2.6,2.6,0,0,1,187.78,478.48Zm8.57,22.62h5a8.22,8.22,0,0,0,4.89-1.2,5.82,5.82,0,0,0,2.11-3.81,7.32,7.32,0,0,0,.14-1.65,3,3,0,0,0-1.24-2.75,8.33,8.33,0,0,0-4.09-.75h-5Z"/><path class="cls-1" d="M16.38,115.72V309.89A33.63,33.63,0,0,0,33.18,339l113.26,65.38a33.56,33.56,0,0,0,33.6,0L293.29,339a33.61,33.61,0,0,0,16.8-29.1V115.72a33.58,33.58,0,0,0-16.8-29.1L180,21.23a33.61,33.61,0,0,0-33.6,0L33.18,86.62a33.61,33.61,0,0,0-16.8,29.1"/><polygon class="cls-2" points="133.64 112.38 106.94 94.08 139.29 94.98 128.44 64.48 154.09 84.23 163.24 53.18 172.38 84.23 198.03 64.48 187.19 94.98 219.54 94.08 192.84 112.38 219.54 130.67 187.19 129.77 198.03 160.27 172.38 140.53 163.24 171.57 154.09 140.53 128.44 160.27 139.29 129.77 106.94 130.67 133.64 112.38"/><path class="cls-1" d="M163.24,90.22a22.16,22.16,0,1,1-22.16,22.16,22.16,22.16,0,0,1,22.16-22.16"/><path class="cls-3" d="M116.44,145.16a16.06,16.06,0,0,1-16,15l-.82,0A34.2,34.2,0,0,1,38.2,172.28a20.56,20.56,0,0,1-26.74-19.61,20.39,20.39,0,0,1,1.42-7.51Z"/><path class="cls-3" d="M249.85,109.81a9.52,9.52,0,0,0,9.49,8.86h.48a20.27,20.27,0,0,0,36.4,7.23,12.35,12.35,0,0,0,3.67.56,12.19,12.19,0,0,0,11.34-16.64Z"/><path class="cls-3" d="M311.41,319.92c5.59-11.75,5.6-26.4,7.38-39.54,1.65-12.19,3.14-24.95.62-37.13-.53-2.54-11.9-25.78-16.81-21.45l-34.94,31h30.2v40.56a77.58,77.58,0,0,1-62.59-11.77L207.5,306.33h26a31.26,31.26,0,0,1-38.49,41.22,52,52,0,0,1-56.68,20.24c-1-.27-6.86,6.06-7.58,6.72-7.43,6.76-8.32,6.43-3.44,14.55,6.18,10.28,20.7,19.93,32.58,21.07,11.06,1.07,21.69-4,31.65-8.93l36.95-18.28c11.54-5.71,23.1-11.43,33.94-18.38,15.35-9.84,29-22,42-34.74a34.61,34.61,0,0,0,7-9.88"/><path class="cls-3" d="M76.13,306.33a24.41,24.41,0,0,0,24.34,22.72c.41,0,.83,0,1.24,0a52.08,52.08,0,0,0,36.65,38.78l69.14-61.46Z"/><path class="cls-3" d="M210.19,252.85a78.47,78.47,0,0,0,25.08,28.79l32.39-28.79Z"/><path class="cls-3" d="M50,211.9a4.53,4.53,0,0,1-.8-9L224.65,171.4a4.53,4.53,0,1,1,1.6,8.91L50.84,211.83a4.4,4.4,0,0,1-.8.07"/><path class="cls-3" d="M140.6,209.41a4.53,4.53,0,0,1-4.45-3.72l-3.57-19.86a4.53,4.53,0,0,1,8.91-1.6l3.57,19.86a4.52,4.52,0,0,1-3.65,5.25,4.43,4.43,0,0,1-.81.07"/><path class="cls-3" d="M159.08,203.78s-26.48,1.26-44.24,9.35l-11,9.32S65.51,230.38,64,256.16c0,0,10.52,11.39,40.49,6l35.33-6.35s6.44-2.21,15.06-8.65,21.73-18.58,21.73-18.58l67.73-16.35,18.62,14.81,10.5-5-1.7-9.47,4.72-9.94-10.25-11.78,4.93-28.14s-11-4-14.1,2.53l-14.55,38.6-74,10.76Z"/><path class="cls-3" d="M89.44,268.13c-20.32,0-28.41-8.46-28.81-8.9a4.52,4.52,0,0,1-1.2-3.34c1.6-26.52,35.42-36,42.3-37.61l10.19-8.61a4.57,4.57,0,0,1,1-.66c18.35-8.35,44.79-9.7,45.9-9.75a4.56,4.56,0,0,1,3.64,1.55l7.75,8.94,68.92-10,13.61-36.11c0-.11.09-.22.14-.33,3.81-8.06,14.18-6.85,19.72-4.86a4.52,4.52,0,0,1,2.92,5l-4.56,26,8.85,10.16a4.54,4.54,0,0,1,.67,4.92l-4.1,8.62,1.44,8a4.52,4.52,0,0,1-2.5,4.88l-10.49,5a4.53,4.53,0,0,1-4.77-.53l-16.89-13.44-64.45,15.56c-3.11,2.85-13.71,12.46-21.22,18.08-9.08,6.79-16,9.2-16.3,9.3a3.87,3.87,0,0,1-.67.17l-35.33,6.35a90.19,90.19,0,0,1-15.8,1.51M68.73,254.19c3.56,2.33,14,7.28,34.91,3.53l34.93-6.28a61,61,0,0,0,13.55-7.89c8.32-6.22,21.24-18.16,21.37-18.28a4.69,4.69,0,0,1,2-1.08L238.63,209,169.1,219.06a4.53,4.53,0,0,1-4.06-1.51l-7.9-9.11c-6.46.5-26,2.43-39.87,8.56l-10.54,8.9a4.52,4.52,0,0,1-2,1c-.33.07-32.57,7-36,27.31m35.08-31.74h0Zm140.92-14.71a4.49,4.49,0,0,1,2.38,1l16.4,13.05,4.84-2.32-1.1-6.08a4.5,4.5,0,0,1,.37-2.75l3.46-7.25-8.32-9.55a4.53,4.53,0,0,1-1-3.75l4.19-23.93c-2.09-.25-4.14-.1-4.75.93l-14.47,38.37a4.52,4.52,0,0,1-2,2.32"/><path class="cls-3" d="M104.9,285.77c-5.17,0-9.44-1.51-12.73-4.51-7.17-6.55-6.3-17.59-6.26-18.05a4.53,4.53,0,0,1,9,.76c-.15,2,.15,7.72,3.37,10.63,2.23,2,5.81,2.6,10.64,1.73l47.63-8.56a4.53,4.53,0,1,1,1.6,8.91l-47.64,8.56a32.45,32.45,0,0,1-5.63.53"/><path class="cls-3" d="M109.73,285.31a4.53,4.53,0,0,1-4.45-3.73l-3.4-18.95a4.52,4.52,0,1,1,8.9-1.6l3.41,19a4.52,4.52,0,0,1-4.46,5.33"/><path class="cls-3" d="M145.94,278.8a4.52,4.52,0,0,1-4.44-3.72L138,255.5a4.53,4.53,0,0,1,8.91-1.6l3.51,19.58a4.51,4.51,0,0,1-3.65,5.25,4.43,4.43,0,0,1-.81.07"/><path class="cls-4" d="M144.19,245.35a19,19,0,1,1,19-19,19,19,0,0,1-19,19"/><polygon class="cls-2" points="140.67 212.75 147.71 212.75 147.71 219.59 153.32 215.67 157.36 221.44 150.33 226.36 157.36 231.28 153.32 237.05 147.71 233.12 147.71 239.97 140.67 239.97 140.67 233.12 135.06 237.05 131.02 231.28 138.05 226.36 131.02 221.44 135.06 215.67 140.67 219.59 140.67 212.75"/><path class="cls-1" d="M68.72,254.19s0-15.75,33.08-26.57L108,257.3s-26.92,5.89-39.31-3.11"/><path class="cls-5" d="M163.24,29.51a16.46,16.46,0,0,1,8.27,2.22l117,67.52a16.6,16.6,0,0,1,8.27,14.33V312a16.61,16.61,0,0,1-8.27,14.34l-117,67.52a16.53,16.53,0,0,1-16.55,0L38,326.36A16.62,16.62,0,0,1,29.73,312V113.58A16.61,16.61,0,0,1,38,99.25L155,31.73a16.52,16.52,0,0,1,8.28-2.22m0-13.35a29.87,29.87,0,0,0-15,4L31.34,87.69a29.89,29.89,0,0,0-15,25.89V312a29.89,29.89,0,0,0,15,25.9l117,67.52a29.87,29.87,0,0,0,29.9,0l117-67.52A29.9,29.9,0,0,0,310.09,312V113.58a29.9,29.9,0,0,0-14.95-25.89L178.19,20.16a29.9,29.9,0,0,0-14.95-4"/><path class="cls-1" d="M163.14,15a29.88,29.88,0,0,1,15,4L295,86.52A29.91,29.91,0,0,1,310,112.42V310.86A29.9,29.9,0,0,1,295,336.75l-117,67.53a29.94,29.94,0,0,1-29.9,0L31.24,336.75a29.9,29.9,0,0,1-14.95-25.89V112.42a29.91,29.91,0,0,1,15-25.9L148.19,19a29.88,29.88,0,0,1,14.95-4m0-13.35a43.36,43.36,0,0,0-21.63,5.8L24.56,75A43.36,43.36,0,0,0,2.94,112.42V310.86a43.38,43.38,0,0,0,21.62,37.46l117,67.52a43.3,43.3,0,0,0,43.26,0l117-67.52a43.39,43.39,0,0,0,21.63-37.46V112.42A43.38,43.38,0,0,0,301.72,75l-117-67.52a43.36,43.36,0,0,0-21.63-5.8"/><path class="cls-6" d="M100.58,569.35H94.13c-.5,0-.7-.22-.61-.67l4-22.41a.72.72,0,0,1,.78-.68h5.84c3.41,0,6,.66,7.76,2s2.65,3.44,2.65,6.39a19.56,19.56,0,0,1-.3,3.21q-1.15,6.69-4.43,9.45C107.59,568.44,104.53,569.35,100.58,569.35ZM103.7,549h-3l-3,17h3a9.83,9.83,0,0,0,6.42-1.89q2.31-1.89,3.21-6.93a15.7,15.7,0,0,0,.27-2.63c0-2-.57-3.49-1.73-4.31A9,9,0,0,0,103.7,549Z"/><path class="cls-6" d="M116.87,568.68l3.95-22.41a.74.74,0,0,1,.78-.68H124c.47,0,.66.13.57.4l-4,22.68a.69.69,0,0,1-.76.68h-2.31C117,569.35,116.8,569.13,116.87,568.68Z"/><path class="cls-6" d="M136.11,569.35h-2.9c-.42,0-.66-.23-.72-.71l-3.86-22.3c0-.5.16-.75.62-.75h2.39c.39,0,.61.23.65.67L134.55,560l.61,5.58h.07l2.6-5.64,7-13.66a1,1,0,0,1,.91-.64h2.64a.5.5,0,0,1,.46.22.57.57,0,0,1-.05.53l-11.7,22.3A1.12,1.12,0,0,1,136.11,569.35Z"/><path class="cls-6" d="M149.11,568.68l4-22.41a.74.74,0,0,1,.77-.68h2.37c.48,0,.67.13.58.4l-4,22.68a.7.7,0,0,1-.77.68h-2.3C149.25,569.35,149.05,569.13,149.11,568.68Z"/><path class="cls-6" d="M174.77,562.09a6.38,6.38,0,0,1-2.81,5.67,12.23,12.23,0,0,1-7,1.9,23.13,23.13,0,0,1-4.12-.36,10.16,10.16,0,0,1-2.94-.86c-.41-.2-.53-.46-.37-.78l1-1.82c.2-.45.5-.59.88-.41a13.39,13.39,0,0,0,5.44,1,11.58,11.58,0,0,0,2-.18,10.35,10.35,0,0,0,2-.6,3.63,3.63,0,0,0,1.58-1.22,3.23,3.23,0,0,0,.59-1.93,2.1,2.1,0,0,0-.29-1.07,4.69,4.69,0,0,0-.58-.82,4.09,4.09,0,0,0-1.12-.71l-1.19-.56-1.42-.68a14.49,14.49,0,0,1-4.22-2.45,4.61,4.61,0,0,1-1.49-3.64,6.28,6.28,0,0,1,2.57-5.5,11.32,11.32,0,0,1,6.72-1.83,14.48,14.48,0,0,1,6.19,1.08.57.57,0,0,1,.34.81l-1,1.76a.69.69,0,0,1-1,.37,11.78,11.78,0,0,0-4.6-.77c-3.67,0-5.51,1.21-5.51,3.65a2.62,2.62,0,0,0,.07.57,2.14,2.14,0,0,0,.22.52c.1.17.2.31.29.44a1.74,1.74,0,0,0,.46.4l.49.36a3.2,3.2,0,0,0,.61.34l.64.3.73.35.75.36,1.81.85a13,13,0,0,1,1.61.94,6.75,6.75,0,0,1,1.4,1.19,4.9,4.9,0,0,1,.84,1.45A5,5,0,0,1,174.77,562.09Z"/><path class="cls-6" d="M178.08,568.68,182,546.27a.74.74,0,0,1,.78-.68h2.37c.47,0,.66.13.57.4l-4,22.68a.71.71,0,0,1-.77.68h-2.31C178.21,569.35,178,569.13,178.08,568.68Z"/><path class="cls-6" d="M200.76,545.22a8.92,8.92,0,0,1,6.52,2.26c1.54,1.51,2.3,3.7,2.3,6.56a22,22,0,0,1-.33,3.45q-1.09,6-4.16,9.11a10.85,10.85,0,0,1-8.05,3.09,8.93,8.93,0,0,1-6.52-2.25c-1.53-1.49-2.3-3.69-2.3-6.57a20,20,0,0,1,.31-3.41c.69-4,2.09-7.06,4.17-9.13A10.94,10.94,0,0,1,200.76,545.22Zm-3.45,21.19q6.57,0,8.15-8.95a17.84,17.84,0,0,0,.3-3.08q0-5.88-5.3-5.88-6.53,0-8.15,9a21.65,21.65,0,0,0-.27,3.11Q192,566.41,197.31,566.41Z"/><path class="cls-6" d="M234.25,546.24l-4,22.44a.71.71,0,0,1-.78.67H227.2a.84.84,0,0,1-.84-.51l-8-17.06-3,16.9a.71.71,0,0,1-.74.67h-2.26c-.49,0-.7-.22-.61-.67l4-22.41a.72.72,0,0,1,.81-.68h2.23q.67,0,.84.48l8,17.1,2.94-16.9a.72.72,0,0,1,.79-.68h2.28A.54.54,0,0,1,234.25,546.24Z"/></svg>