<?xml version="1.0" encoding="UTF-8"?>
<svg xmlns="http://www.w3.org/2000/svg" xmlns:xlink="http://www.w3.org/1999/xlink" width="3000" height="3000" viewBox="0 0 3000 3000">
<defs>
<clipPath id="clip-0">
<path clip-rule="nonzero" d="M 405 459 L 2673 459 L 2673 2727 L 405 2727 Z M 405 459 "/>
</clipPath>
<clipPath id="clip-1">
<path clip-rule="nonzero" d="M 2672.261719 1592.851562 C 2672.261719 2218.929688 2164.71875 2726.46875 1538.640625 2726.46875 C 912.558594 2726.46875 405.019531 2218.929688 405.019531 1592.851562 C 405.019531 966.769531 912.558594 459.230469 1538.640625 459.230469 C 2164.71875 459.230469 2672.261719 966.769531 2672.261719 1592.851562 Z M 2672.261719 1592.851562 "/>
</clipPath>
<clipPath id="clip-2">
<path clip-rule="nonzero" d="M 2672.261719 1592.851562 C 2672.261719 2218.929688 2164.71875 2726.46875 1538.640625 2726.46875 C 912.558594 2726.46875 405.019531 2218.929688 405.019531 1592.851562 C 405.019531 966.769531 912.558594 459.230469 1538.640625 459.230469 C 2164.71875 459.230469 2672.261719 966.769531 2672.261719 1592.851562 "/>
</clipPath>
<linearGradient id="linear-pattern-0" gradientUnits="userSpaceOnUse" x1="0.000000000000000056" y1="0" x2="1.000004" y2="0" gradientTransform="matrix(2267.23, 0, 0, 2267.23, 405.021, 1592.85)">
<stop offset="0" stop-color="rgb(16.851807%, 22.549438%, 55.569458%)" stop-opacity="1"/>
<stop offset="0.25" stop-color="rgb(16.851807%, 22.549438%, 55.569458%)" stop-opacity="1"/>
<stop offset="0.257812" stop-color="rgb(16.853333%, 22.55249%, 55.59082%)" stop-opacity="1"/>
<stop offset="0.261719" stop-color="rgb(16.873169%, 22.58606%, 55.813599%)" stop-opacity="1"/>
<stop offset="0.265625" stop-color="rgb(16.889954%, 22.615051%, 56.015015%)" stop-opacity="1"/>
<stop offset="0.269531" stop-color="rgb(16.836548%, 22.744751%, 56.233215%)" stop-opacity="1"/>
<stop offset="0.273437" stop-color="rgb(16.781616%, 22.872925%, 56.451416%)" stop-opacity="1"/>
<stop offset="0.277344" stop-color="rgb(16.793823%, 23.008728%, 56.600952%)" stop-opacity="1"/>
<stop offset="0.28125" stop-color="rgb(16.807556%, 23.143005%, 56.750488%)" stop-opacity="1"/>
<stop offset="0.285156" stop-color="rgb(16.825867%, 23.278809%, 56.855774%)" stop-opacity="1"/>
<stop offset="0.289062" stop-color="rgb(16.845703%, 23.416138%, 56.959534%)" stop-opacity="1"/>
<stop offset="0.292969" stop-color="rgb(16.802979%, 23.564148%, 57.066345%)" stop-opacity="1"/>
<stop offset="0.296875" stop-color="rgb(16.758728%, 23.713684%, 57.173157%)" stop-opacity="1"/>
<stop offset="0.300781" stop-color="rgb(16.822815%, 23.843384%, 57.276917%)" stop-opacity="1"/>
<stop offset="0.304688" stop-color="rgb(16.885376%, 23.974609%, 57.380676%)" stop-opacity="1"/>
<stop offset="0.308594" stop-color="rgb(16.967773%, 24.134827%, 57.611084%)" stop-opacity="1"/>
<stop offset="0.3125" stop-color="rgb(17.051697%, 24.29657%, 57.843018%)" stop-opacity="1"/>
<stop offset="0.316406" stop-color="rgb(17.030334%, 24.501038%, 58.074951%)" stop-opacity="1"/>
<stop offset="0.320312" stop-color="rgb(17.010498%, 24.705505%, 58.308411%)" stop-opacity="1"/>
<stop offset="0.324219" stop-color="rgb(16.976929%, 24.89624%, 58.509827%)" stop-opacity="1"/>
<stop offset="0.328125" stop-color="rgb(16.941833%, 25.088501%, 58.711243%)" stop-opacity="1"/>
<stop offset="0.332031" stop-color="rgb(16.992188%, 25.213623%, 58.869934%)" stop-opacity="1"/>
<stop offset="0.335937" stop-color="rgb(17.042542%, 25.340271%, 59.030151%)" stop-opacity="1"/>
<stop offset="0.34375" stop-color="rgb(17.010498%, 25.413513%, 59.144592%)" stop-opacity="1"/>
<stop offset="0.347656" stop-color="rgb(17.024231%, 25.613403%, 59.472656%)" stop-opacity="1"/>
<stop offset="0.351562" stop-color="rgb(17.068481%, 25.737%, 59.686279%)" stop-opacity="1"/>
<stop offset="0.355469" stop-color="rgb(17.068481%, 25.90332%, 59.973145%)" stop-opacity="1"/>
<stop offset="0.359375" stop-color="rgb(17.068481%, 26.071167%, 60.26001%)" stop-opacity="1"/>
<stop offset="0.363281" stop-color="rgb(17.06543%, 26.239014%, 60.572815%)" stop-opacity="1"/>
<stop offset="0.367187" stop-color="rgb(17.060852%, 26.408386%, 60.884094%)" stop-opacity="1"/>
<stop offset="0.371094" stop-color="rgb(17.103577%, 26.542664%, 61.164856%)" stop-opacity="1"/>
<stop offset="0.375" stop-color="rgb(17.144775%, 26.676941%, 61.444092%)" stop-opacity="1"/>
<stop offset="0.378906" stop-color="rgb(17.085266%, 26.831055%, 61.618042%)" stop-opacity="1"/>
<stop offset="0.382812" stop-color="rgb(17.025757%, 26.983643%, 61.791992%)" stop-opacity="1"/>
<stop offset="0.390625" stop-color="rgb(17.103577%, 27.056885%, 61.862183%)" stop-opacity="1"/>
<stop offset="0.394531" stop-color="rgb(17.25769%, 27.241516%, 62.019348%)" stop-opacity="1"/>
<stop offset="0.398437" stop-color="rgb(17.337036%, 27.352905%, 62.109375%)" stop-opacity="1"/>
<stop offset="0.402344" stop-color="rgb(17.359924%, 27.500916%, 62.219238%)" stop-opacity="1"/>
<stop offset="0.40625" stop-color="rgb(17.382812%, 27.6474%, 62.330627%)" stop-opacity="1"/>
<stop offset="0.410156" stop-color="rgb(17.344666%, 27.80304%, 62.442017%)" stop-opacity="1"/>
<stop offset="0.414062" stop-color="rgb(17.304993%, 27.958679%, 62.554932%)" stop-opacity="1"/>
<stop offset="0.417969" stop-color="rgb(17.375183%, 28.100586%, 62.664795%)" stop-opacity="1"/>
<stop offset="0.421875" stop-color="rgb(17.445374%, 28.244019%, 62.776184%)" stop-opacity="1"/>
<stop offset="0.425781" stop-color="rgb(17.407227%, 28.401184%, 62.887573%)" stop-opacity="1"/>
<stop offset="0.429687" stop-color="rgb(17.367554%, 28.556824%, 63.000488%)" stop-opacity="1"/>
<stop offset="0.433594" stop-color="rgb(17.410278%, 28.656006%, 63.075256%)" stop-opacity="1"/>
<stop offset="0.4375" stop-color="rgb(17.451477%, 28.755188%, 63.15155%)" stop-opacity="1"/>
<stop offset="0.441406" stop-color="rgb(17.489624%, 28.855896%, 63.253784%)" stop-opacity="1"/>
<stop offset="0.445312" stop-color="rgb(17.527771%, 28.956604%, 63.354492%)" stop-opacity="1"/>
<stop offset="0.449219" stop-color="rgb(17.488098%, 29.112244%, 63.523865%)" stop-opacity="1"/>
<stop offset="0.453125" stop-color="rgb(17.446899%, 29.266357%, 63.691711%)" stop-opacity="1"/>
<stop offset="0.457031" stop-color="rgb(17.518616%, 29.412842%, 63.803101%)" stop-opacity="1"/>
<stop offset="0.460937" stop-color="rgb(17.590332%, 29.559326%, 63.91449%)" stop-opacity="1"/>
<stop offset="0.464844" stop-color="rgb(17.660522%, 29.704285%, 64.083862%)" stop-opacity="1"/>
<stop offset="0.46875" stop-color="rgb(17.729187%, 29.850769%, 64.254761%)" stop-opacity="1"/>
<stop offset="0.472656" stop-color="rgb(17.718506%, 30.004883%, 64.433289%)" stop-opacity="1"/>
<stop offset="0.476562" stop-color="rgb(17.707825%, 30.157471%, 64.610291%)" stop-opacity="1"/>
<stop offset="0.480469" stop-color="rgb(17.712402%, 30.281067%, 64.743042%)" stop-opacity="1"/>
<stop offset="0.484375" stop-color="rgb(17.715454%, 30.404663%, 64.872742%)" stop-opacity="1"/>
<stop offset="0.492187" stop-color="rgb(17.816162%, 30.474854%, 64.929199%)" stop-opacity="1"/>
<stop offset="0.5" stop-color="rgb(18.016052%, 30.613708%, 65.042114%)" stop-opacity="1"/>
<stop offset="0.503906" stop-color="rgb(18.077087%, 30.833435%, 65.264893%)" stop-opacity="1"/>
<stop offset="0.507812" stop-color="rgb(18.03894%, 30.982971%, 65.431213%)" stop-opacity="1"/>
<stop offset="0.511719" stop-color="rgb(18.066406%, 31.138611%, 65.570068%)" stop-opacity="1"/>
<stop offset="0.515625" stop-color="rgb(18.093872%, 31.292725%, 65.707397%)" stop-opacity="1"/>
<stop offset="0.519531" stop-color="rgb(18.16864%, 31.445312%, 65.820312%)" stop-opacity="1"/>
<stop offset="0.523438" stop-color="rgb(18.244934%, 31.5979%, 65.934753%)" stop-opacity="1"/>
<stop offset="0.527344" stop-color="rgb(18.301392%, 31.75354%, 66.049194%)" stop-opacity="1"/>
<stop offset="0.53125" stop-color="rgb(18.359375%, 31.907654%, 66.162109%)" stop-opacity="1"/>
<stop offset="0.535156" stop-color="rgb(18.307495%, 32.069397%, 66.27655%)" stop-opacity="1"/>
<stop offset="0.539062" stop-color="rgb(18.255615%, 32.232666%, 66.390991%)" stop-opacity="1"/>
<stop offset="0.546875" stop-color="rgb(18.341064%, 32.316589%, 66.455078%)" stop-opacity="1"/>
<stop offset="0.550781" stop-color="rgb(18.511963%, 32.525635%, 66.610718%)" stop-opacity="1"/>
<stop offset="0.554688" stop-color="rgb(18.598938%, 32.652283%, 66.705322%)" stop-opacity="1"/>
<stop offset="0.558594" stop-color="rgb(18.624878%, 32.810974%, 66.819763%)" stop-opacity="1"/>
<stop offset="0.5625" stop-color="rgb(18.650818%, 32.971191%, 66.934204%)" stop-opacity="1"/>
<stop offset="0.566406" stop-color="rgb(18.623352%, 33.122253%, 67.03949%)" stop-opacity="1"/>
<stop offset="0.570313" stop-color="rgb(18.59436%, 33.27179%, 67.146301%)" stop-opacity="1"/>
<stop offset="0.578125" stop-color="rgb(18.69812%, 33.348083%, 67.202759%)" stop-opacity="1"/>
<stop offset="0.582031" stop-color="rgb(18.762207%, 33.578491%, 67.433167%)" stop-opacity="1"/>
<stop offset="0.585937" stop-color="rgb(18.72406%, 33.732605%, 67.605591%)" stop-opacity="1"/>
<stop offset="0.589844" stop-color="rgb(18.756104%, 33.894348%, 67.744446%)" stop-opacity="1"/>
<stop offset="0.59375" stop-color="rgb(18.788147%, 34.054565%, 67.883301%)" stop-opacity="1"/>
<stop offset="0.597656" stop-color="rgb(18.867493%, 34.214783%, 67.999268%)" stop-opacity="1"/>
<stop offset="0.601562" stop-color="rgb(18.946838%, 34.375%, 68.113708%)" stop-opacity="1"/>
<stop offset="0.605469" stop-color="rgb(19.030762%, 34.52301%, 68.22052%)" stop-opacity="1"/>
<stop offset="0.609375" stop-color="rgb(19.113159%, 34.671021%, 68.325806%)" stop-opacity="1"/>
<stop offset="0.617188" stop-color="rgb(19.218445%, 34.750366%, 68.383789%)" stop-opacity="1"/>
<stop offset="0.621094" stop-color="rgb(19.406128%, 34.985352%, 68.553162%)" stop-opacity="1"/>
<stop offset="0.625" stop-color="rgb(19.488525%, 35.139465%, 68.663025%)" stop-opacity="1"/>
<stop offset="0.628906" stop-color="rgb(19.482422%, 35.30426%, 68.82782%)" stop-opacity="1"/>
<stop offset="0.632812" stop-color="rgb(19.474792%, 35.470581%, 68.991089%)" stop-opacity="1"/>
<stop offset="0.636719" stop-color="rgb(19.477844%, 35.635376%, 69.148254%)" stop-opacity="1"/>
<stop offset="0.640625" stop-color="rgb(19.47937%, 35.801697%, 69.306946%)" stop-opacity="1"/>
<stop offset="0.644531" stop-color="rgb(19.564819%, 35.952759%, 69.413757%)" stop-opacity="1"/>
<stop offset="0.648438" stop-color="rgb(19.650269%, 36.103821%, 69.520569%)" stop-opacity="1"/>
<stop offset="0.65625" stop-color="rgb(19.75708%, 36.186218%, 69.580078%)" stop-opacity="1"/>
<stop offset="0.660156" stop-color="rgb(19.947815%, 36.428833%, 69.750977%)" stop-opacity="1"/>
<stop offset="0.664062" stop-color="rgb(20.031738%, 36.58905%, 69.862366%)" stop-opacity="1"/>
<stop offset="0.667969" stop-color="rgb(20.115662%, 36.756897%, 69.979858%)" stop-opacity="1"/>
<stop offset="0.671875" stop-color="rgb(20.198059%, 36.924744%, 70.095825%)" stop-opacity="1"/>
<stop offset="0.675781" stop-color="rgb(20.227051%, 37.094116%, 70.213318%)" stop-opacity="1"/>
<stop offset="0.679688" stop-color="rgb(20.254517%, 37.263489%, 70.330811%)" stop-opacity="1"/>
<stop offset="0.683594" stop-color="rgb(20.23468%, 37.419128%, 70.437622%)" stop-opacity="1"/>
<stop offset="0.6875" stop-color="rgb(20.211792%, 37.573242%, 70.544434%)" stop-opacity="1"/>
<stop offset="0.695312" stop-color="rgb(20.320129%, 37.658691%, 70.602417%)" stop-opacity="1"/>
<stop offset="0.699219" stop-color="rgb(20.391846%, 37.908936%, 70.774841%)" stop-opacity="1"/>
<stop offset="0.703125" stop-color="rgb(20.35675%, 38.072205%, 70.88623%)" stop-opacity="1"/>
<stop offset="0.707031" stop-color="rgb(20.307922%, 38.241577%, 71.002197%)" stop-opacity="1"/>
<stop offset="0.710938" stop-color="rgb(20.26062%, 38.412476%, 71.11969%)" stop-opacity="1"/>
<stop offset="0.714844" stop-color="rgb(20.26825%, 38.583374%, 71.2677%)" stop-opacity="1"/>
<stop offset="0.71875" stop-color="rgb(20.274353%, 38.754272%, 71.417236%)" stop-opacity="1"/>
<stop offset="0.722656" stop-color="rgb(20.358276%, 38.926697%, 71.59729%)" stop-opacity="1"/>
<stop offset="0.726562" stop-color="rgb(20.440674%, 39.097595%, 71.777344%)" stop-opacity="1"/>
<stop offset="0.730469" stop-color="rgb(20.527649%, 39.271545%, 71.896362%)" stop-opacity="1"/>
<stop offset="0.734375" stop-color="rgb(20.613098%, 39.447021%, 72.015381%)" stop-opacity="1"/>
<stop offset="0.742188" stop-color="rgb(20.721436%, 39.541626%, 72.079468%)" stop-opacity="1"/>
<stop offset="0.746094" stop-color="rgb(20.832825%, 39.782715%, 72.242737%)" stop-opacity="1"/>
<stop offset="0.75" stop-color="rgb(20.835876%, 39.927673%, 72.340393%)" stop-opacity="1"/>
<stop offset="0.753906" stop-color="rgb(20.846558%, 40.101624%, 72.459412%)" stop-opacity="1"/>
<stop offset="0.757812" stop-color="rgb(20.857239%, 40.275574%, 72.576904%)" stop-opacity="1"/>
<stop offset="0.761719" stop-color="rgb(20.948792%, 40.437317%, 72.685242%)" stop-opacity="1"/>
<stop offset="0.765625" stop-color="rgb(21.040344%, 40.59906%, 72.793579%)" stop-opacity="1"/>
<stop offset="0.773437" stop-color="rgb(21.151733%, 40.690613%, 72.854614%)" stop-opacity="1"/>
<stop offset="0.777344" stop-color="rgb(21.224976%, 40.948486%, 73.101807%)" stop-opacity="1"/>
<stop offset="0.78125" stop-color="rgb(21.186829%, 41.116333%, 73.287964%)" stop-opacity="1"/>
<stop offset="0.785156" stop-color="rgb(21.232605%, 41.293335%, 73.431396%)" stop-opacity="1"/>
<stop offset="0.789062" stop-color="rgb(21.278381%, 41.471863%, 73.574829%)" stop-opacity="1"/>
<stop offset="0.792969" stop-color="rgb(21.318054%, 41.610718%, 73.667908%)" stop-opacity="1"/>
<stop offset="0.796875" stop-color="rgb(21.357727%, 41.751099%, 73.762512%)" stop-opacity="1"/>
<stop offset="0.804688" stop-color="rgb(21.356201%, 41.854858%, 73.832703%)" stop-opacity="1"/>
<stop offset="0.808594" stop-color="rgb(21.443176%, 42.141724%, 74.021912%)" stop-opacity="1"/>
<stop offset="0.8125" stop-color="rgb(21.531677%, 42.323303%, 74.142456%)" stop-opacity="1"/>
<stop offset="0.816406" stop-color="rgb(21.621704%, 42.504883%, 74.263%)" stop-opacity="1"/>
<stop offset="0.820312" stop-color="rgb(21.713257%, 42.686462%, 74.383545%)" stop-opacity="1"/>
<stop offset="0.824219" stop-color="rgb(21.710205%, 42.86499%, 74.502563%)" stop-opacity="1"/>
<stop offset="0.828125" stop-color="rgb(21.707153%, 43.043518%, 74.621582%)" stop-opacity="1"/>
<stop offset="0.832031" stop-color="rgb(21.722412%, 43.222046%, 74.740601%)" stop-opacity="1"/>
<stop offset="0.835938" stop-color="rgb(21.736145%, 43.4021%, 74.859619%)" stop-opacity="1"/>
<stop offset="0.839844" stop-color="rgb(21.80481%, 43.566895%, 74.969482%)" stop-opacity="1"/>
<stop offset="0.84375" stop-color="rgb(21.875%, 43.733215%, 75.07782%)" stop-opacity="1"/>
<stop offset="0.851562" stop-color="rgb(21.852112%, 43.821716%, 75.137329%)" stop-opacity="1"/>
<stop offset="0.855469" stop-color="rgb(21.911621%, 44.090271%, 75.390625%)" stop-opacity="1"/>
<stop offset="0.859375" stop-color="rgb(21.995544%, 44.270325%, 75.584412%)" stop-opacity="1"/>
<stop offset="0.863281" stop-color="rgb(22.087097%, 44.456482%, 75.730896%)" stop-opacity="1"/>
<stop offset="0.867188" stop-color="rgb(22.17865%, 44.644165%, 75.87738%)" stop-opacity="1"/>
<stop offset="0.875" stop-color="rgb(22.23053%, 44.747925%, 75.944519%)" stop-opacity="1"/>
<stop offset="1" stop-color="rgb(22.28241%, 44.851685%, 76.011658%)" stop-opacity="1"/>
</linearGradient>
</defs>
<g clip-path="url(#clip-0)">
<g clip-path="url(#clip-1)">
<g clip-path="url(#clip-2)">
<path fill-rule="nonzero" fill="url(#linear-pattern-0)" d="M 405.019531 459.230469 L 405.019531 2726.46875 L 2672.261719 2726.46875 L 2672.261719 459.230469 Z M 405.019531 459.230469 "/>
</g>
</g>
</g>
<path fill-rule="nonzero" fill="rgb(100%, 100%, 100%)" fill-opacity="1" d="M 1216.28125 2120.628906 C 1216.28125 2101.351562 1216.269531 2088.621094 1216.28125 2075.890625 C 1216.28125 1960.191406 1216.28125 1844.488281 1216.308594 1728.789062 C 1216.308594 1720.621094 1216.21875 1712.421875 1216.851562 1704.289062 C 1217.898438 1690.640625 1226.109375 1683.160156 1239.210938 1681.5 C 1252.269531 1679.851562 1262.820312 1688.730469 1265.320312 1704.191406 C 1266.800781 1713.328125 1266.261719 1722.828125 1266.261719 1732.171875 C 1266.269531 1846.699219 1266.199219 1961.230469 1266.160156 2075.761719 C 1266.148438 2089.410156 1266.160156 2103.050781 1266.160156 2118.53125 C 1302.660156 2118.53125 1334.691406 2118.53125 1371.078125 2118.53125 C 1371.078125 2102.898438 1371.078125 2089.210938 1371.078125 2075.519531 C 1371.089844 1847.628906 1371.53125 1619.730469 1370.511719 1391.839844 C 1370.390625 1364.898438 1378.140625 1347.660156 1402.359375 1336.019531 C 1426.378906 1324.480469 1449.328125 1310.730469 1471.738281 1298.5 C 1473.578125 1250.691406 1460.160156 1228.289062 1420.609375 1211.148438 C 1413.140625 1207.910156 1405.050781 1205.851562 1398.019531 1201.890625 C 1382.011719 1192.890625 1370.738281 1197.210938 1358.46875 1210.25 C 1329.660156 1240.871094 1299.621094 1270.351562 1269.421875 1299.609375 C 1244.46875 1323.78125 1236.71875 1323.359375 1211.5 1298.5 C 1184.871094 1272.261719 1158.699219 1245.550781 1132.070312 1219.308594 C 1123.128906 1210.511719 1113.390625 1202.519531 1104.101562 1194.230469 C 1093.320312 1198.539062 1084.671875 1201.878906 1076.109375 1205.429688 C 1019.519531 1228.929688 1007.429688 1247.148438 1007.398438 1308.890625 C 1007.359375 1400.039062 1007.03125 1491.199219 1007.589844 1582.359375 C 1007.691406 1598.46875 1009.488281 1615.210938 1014.199219 1630.519531 C 1020.539062 1651.179688 1034.480469 1666.300781 1061.351562 1673.261719 C 1061.351562 1659.128906 1061.339844 1647.929688 1061.351562 1636.738281 C 1061.378906 1556.101562 1061.378906 1475.460938 1061.488281 1394.820312 C 1061.5 1385.5 1061.921875 1376.148438 1062.53125 1366.839844 C 1063.339844 1354.449219 1071.378906 1347.410156 1082.5 1345.921875 C 1095.460938 1344.179688 1105.988281 1350.699219 1109.230469 1363.460938 C 1111.761719 1373.410156 1111.289062 1384.25 1111.300781 1394.699219 C 1111.390625 1622.589844 1111.371094 1850.480469 1111.371094 2078.378906 C 1111.371094 2090.921875 1111.371094 2103.449219 1111.371094 2118.371094 C 1126.300781 2119.269531 1137.671875 2120.371094 1149.050781 2120.539062 C 1169.800781 2120.859375 1190.558594 2120.628906 1216.28125 2120.628906 Z M 2043.019531 1551.261719 C 2043.019531 1504.558594 2042.25 1457.839844 2043.398438 1411.171875 C 2043.859375 1392.539062 2038.140625 1381.171875 2021.421875 1372.011719 C 1830.109375 1267.21875 1638.78125 1266.269531 1446.539062 1369.480469 C 1427.851562 1379.511719 1420.191406 1391.628906 1420.480469 1413.28125 C 1421.609375 1499.660156 1421.171875 1586.070312 1420.871094 1672.460938 C 1420.589844 1751.171875 1444.851562 1821.441406 1492.179688 1883.980469 C 1550.621094 1961.171875 1627.648438 2014.71875 1712.929688 2057.980469 C 1727 2065.121094 1739.03125 2063.75 1752.539062 2057.019531 C 1819.941406 2023.460938 1881.710938 1981.949219 1934.269531 1927.789062 C 2007.511719 1852.308594 2046.609375 1762.921875 2043.160156 1656.339844 C 2042.03125 1621.351562 2042.980469 1586.289062 2043.019531 1551.261719 Z M 1420.921875 1875.191406 C 1420.921875 1894.898438 1420.910156 1907.390625 1420.921875 1919.878906 C 1420.941406 1982.960938 1421.308594 2046.050781 1420.890625 2109.140625 C 1420.601562 2153.390625 1403.800781 2169.871094 1358.828125 2170.089844 C 1279.390625 2170.488281 1199.949219 2170.621094 1120.5 2170.171875 C 1078.140625 2169.941406 1061.679688 2153.320312 1061.53125 2110.300781 C 1061.109375 1996.980469 1061.390625 1883.648438 1061.398438 1770.328125 C 1061.398438 1757.621094 1061.398438 1744.910156 1061.398438 1731.949219 C 1049.761719 1726.980469 1039.929688 1723.46875 1030.71875 1718.738281 C 986.832031 1696.171875 959.175781 1660.691406 958.4375 1610.960938 C 956.769531 1498.828125 956.640625 1386.628906 958.617188 1274.519531 C 959.46875 1226.300781 987.042969 1191.410156 1029.679688 1169.761719 C 1049.390625 1159.75 1070.699219 1152.929688 1090.96875 1143.949219 C 1109.421875 1135.78125 1124.050781 1139.128906 1138.121094 1153.929688 C 1163.878906 1181 1190.78125 1206.96875 1217.328125 1233.269531 C 1224.679688 1240.550781 1232.488281 1247.351562 1241.800781 1255.960938 C 1274.601562 1223.429688 1307.539062 1193.640625 1336.878906 1160.660156 C 1356.890625 1138.171875 1376.429688 1134.679688 1401.539062 1148.300781 C 1408.691406 1152.179688 1416.371094 1155.320312 1424.128906 1157.800781 C 1478.949219 1175.308594 1513.308594 1211.191406 1524.539062 1268.28125 C 1524.941406 1270.289062 1527.148438 1271.941406 1529.800781 1275.46875 C 1559.230469 1268.101562 1589.289062 1259.480469 1619.808594 1253.128906 C 1744.148438 1227.238281 1863.621094 1246.050781 1979.101562 1295.238281 C 2009.078125 1308.019531 2037.628906 1324.21875 2066.621094 1339.28125 C 2084.449219 1348.539062 2093.71875 1361.710938 2093.488281 1383.898438 C 2092.410156 1486.699219 2094.851562 1589.558594 2092.558594 1692.308594 C 2090.058594 1804.660156 2039.699219 1896.691406 1960.941406 1973.75 C 1902.921875 2030.519531 1835.640625 2074.441406 1761.898438 2108.699219 C 1741.261719 2118.28125 1723.371094 2118.910156 1702.398438 2108.960938 C 1597.289062 2059.058594 1505.039062 1993.679688 1438.230469 1896.378906 C 1434.46875 1890.898438 1429.808594 1886.019531 1420.921875 1875.191406 "/>
<path fill-rule="nonzero" fill="rgb(100%, 100%, 100%)" fill-opacity="1" d="M 1138 982.960938 C 1138.039062 1039.929688 1182.691406 1085.101562 1239.621094 1085.78125 C 1298.078125 1086.480469 1344.410156 1040.71875 1344.328125 982.371094 C 1344.25 924.671875 1297.03125 878.429688 1239.050781 879.28125 C 1182.859375 880.109375 1137.960938 926.171875 1138 982.960938 Z M 1395.058594 983.78125 C 1395.070312 1067.941406 1325.25 1138.980469 1241.578125 1137.351562 C 1147.25 1135.5 1085.429688 1066.011719 1086.390625 981.820312 C 1087.511719 883.75 1165.191406 828.371094 1240.039062 828.570312 C 1327.570312 828.808594 1395.050781 896.070312 1395.058594 983.78125 "/>
<path fill-rule="nonzero" fill="rgb(100%, 100%, 100%)" fill-opacity="1" d="M 1681.609375 1748.199219 C 1740.609375 1688.589844 1796.320312 1632.328125 1852.03125 1576.070312 C 1856.949219 1571.101562 1861.570312 1565.75 1866.960938 1561.351562 C 1880.179688 1550.53125 1895.058594 1550.050781 1904.601562 1559.589844 C 1914.351562 1569.328125 1914.160156 1583.488281 1901.609375 1596.671875 C 1876.710938 1622.800781 1850.800781 1647.988281 1825.300781 1673.558594 C 1786.621094 1712.328125 1748.019531 1751.191406 1709.210938 1789.828125 C 1685.199219 1813.71875 1675.519531 1813.820312 1651.21875 1789.898438 C 1622.980469 1762.109375 1595.21875 1733.839844 1567.230469 1705.808594 C 1564.761719 1703.328125 1561.820312 1701.261719 1559.671875 1698.550781 C 1550.621094 1687.179688 1549.449219 1674.96875 1558.660156 1663.480469 C 1567.21875 1652.800781 1582.851562 1652.890625 1595.960938 1664.171875 C 1607.410156 1674.019531 1617.441406 1685.53125 1628.238281 1696.148438 C 1644.710938 1712.351562 1661.320312 1728.421875 1681.609375 1748.199219 "/>
</svg>
