<?xml version="1.0" encoding="UTF-8"?>
<svg xmlns="http://www.w3.org/2000/svg" xmlns:xlink="http://www.w3.org/1999/xlink" width="3873" height="3873" viewBox="0 0 3873 3873">
<defs>
<clipPath id="clip-0">
<path clip-rule="evenodd" d="M 1936.5 0 C 3006 0 3873 867 3873 1936.5 C 3873 3006 3006 3873 1936.5 3873 C 867 3873 0 3006 0 1936.5 C 0 867 867 0 1936.5 0 "/>
</clipPath>
<linearGradient id="linear-pattern-0" gradientUnits="userSpaceOnUse" x1="-0.500003" y1="0" x2="1.500004" y2="0" gradientTransform="matrix(2072.1, -1778.5, 1778.5, 2072.1, 900.448, 2825.75)">
<stop offset="0" stop-color="rgb(0%, 19.999695%, 59.999084%)" stop-opacity="1"/>
<stop offset="0.25" stop-color="rgb(0%, 19.999695%, 59.999084%)" stop-opacity="1"/>
<stop offset="0.253906" stop-color="rgb(0.907898%, 20.425415%, 60.211182%)" stop-opacity="1"/>
<stop offset="0.257812" stop-color="rgb(1.817322%, 20.851135%, 60.424805%)" stop-opacity="1"/>
<stop offset="0.261719" stop-color="rgb(2.72522%, 21.276855%, 60.638428%)" stop-opacity="1"/>
<stop offset="0.265625" stop-color="rgb(3.634644%, 21.704102%, 60.852051%)" stop-opacity="1"/>
<stop offset="0.269531" stop-color="rgb(4.544067%, 22.129822%, 61.064148%)" stop-opacity="1"/>
<stop offset="0.273438" stop-color="rgb(5.453491%, 22.555542%, 61.277771%)" stop-opacity="1"/>
<stop offset="0.277344" stop-color="rgb(6.361389%, 22.981262%, 61.489868%)" stop-opacity="1"/>
<stop offset="0.28125" stop-color="rgb(7.270813%, 23.408508%, 61.703491%)" stop-opacity="1"/>
<stop offset="0.285156" stop-color="rgb(8.180237%, 23.834229%, 61.915588%)" stop-opacity="1"/>
<stop offset="0.289062" stop-color="rgb(9.089661%, 24.259949%, 62.129211%)" stop-opacity="1"/>
<stop offset="0.292969" stop-color="rgb(9.997559%, 24.685669%, 62.342834%)" stop-opacity="1"/>
<stop offset="0.296875" stop-color="rgb(10.906982%, 25.112915%, 62.556458%)" stop-opacity="1"/>
<stop offset="0.300781" stop-color="rgb(11.816406%, 25.538635%, 62.768555%)" stop-opacity="1"/>
<stop offset="0.304688" stop-color="rgb(12.72583%, 25.964355%, 62.982178%)" stop-opacity="1"/>
<stop offset="0.308594" stop-color="rgb(13.633728%, 26.390076%, 63.194275%)" stop-opacity="1"/>
<stop offset="0.3125" stop-color="rgb(14.543152%, 26.817322%, 63.407898%)" stop-opacity="1"/>
<stop offset="0.316406" stop-color="rgb(15.452576%, 27.243042%, 63.619995%)" stop-opacity="1"/>
<stop offset="0.320312" stop-color="rgb(16.362%, 27.668762%, 63.833618%)" stop-opacity="1"/>
<stop offset="0.324219" stop-color="rgb(17.269897%, 28.094482%, 64.047241%)" stop-opacity="1"/>
<stop offset="0.328125" stop-color="rgb(18.179321%, 28.521729%, 64.260864%)" stop-opacity="1"/>
<stop offset="0.332031" stop-color="rgb(19.088745%, 28.947449%, 64.472961%)" stop-opacity="1"/>
<stop offset="0.335938" stop-color="rgb(19.998169%, 29.373169%, 64.686584%)" stop-opacity="1"/>
<stop offset="0.339844" stop-color="rgb(20.906067%, 29.798889%, 64.898682%)" stop-opacity="1"/>
<stop offset="0.34375" stop-color="rgb(21.815491%, 30.226135%, 65.112305%)" stop-opacity="1"/>
<stop offset="0.347656" stop-color="rgb(22.724915%, 30.651855%, 65.324402%)" stop-opacity="1"/>
<stop offset="0.351562" stop-color="rgb(23.634338%, 31.077576%, 65.538025%)" stop-opacity="1"/>
<stop offset="0.355469" stop-color="rgb(24.542236%, 31.503296%, 65.751648%)" stop-opacity="1"/>
<stop offset="0.359375" stop-color="rgb(25.45166%, 31.930542%, 65.965271%)" stop-opacity="1"/>
<stop offset="0.363281" stop-color="rgb(26.361084%, 32.356262%, 66.177368%)" stop-opacity="1"/>
<stop offset="0.367188" stop-color="rgb(27.270508%, 32.781982%, 66.390991%)" stop-opacity="1"/>
<stop offset="0.371094" stop-color="rgb(28.178406%, 33.207703%, 66.603088%)" stop-opacity="1"/>
<stop offset="0.375" stop-color="rgb(29.08783%, 33.634949%, 66.816711%)" stop-opacity="1"/>
<stop offset="0.378906" stop-color="rgb(29.997253%, 34.060669%, 67.028809%)" stop-opacity="1"/>
<stop offset="0.382812" stop-color="rgb(30.906677%, 34.486389%, 67.242432%)" stop-opacity="1"/>
<stop offset="0.386719" stop-color="rgb(31.814575%, 34.912109%, 67.456055%)" stop-opacity="1"/>
<stop offset="0.390625" stop-color="rgb(32.723999%, 35.339355%, 67.669678%)" stop-opacity="1"/>
<stop offset="0.394531" stop-color="rgb(33.633423%, 35.765076%, 67.881775%)" stop-opacity="1"/>
<stop offset="0.398438" stop-color="rgb(34.542847%, 36.190796%, 68.095398%)" stop-opacity="1"/>
<stop offset="0.402344" stop-color="rgb(35.450745%, 36.616516%, 68.307495%)" stop-opacity="1"/>
<stop offset="0.40625" stop-color="rgb(36.360168%, 37.043762%, 68.521118%)" stop-opacity="1"/>
<stop offset="0.410156" stop-color="rgb(37.269592%, 37.469482%, 68.733215%)" stop-opacity="1"/>
<stop offset="0.414062" stop-color="rgb(38.179016%, 37.895203%, 68.946838%)" stop-opacity="1"/>
<stop offset="0.417969" stop-color="rgb(39.086914%, 38.320923%, 69.160461%)" stop-opacity="1"/>
<stop offset="0.421875" stop-color="rgb(39.996338%, 38.748169%, 69.374084%)" stop-opacity="1"/>
<stop offset="0.425781" stop-color="rgb(40.905762%, 39.173889%, 69.586182%)" stop-opacity="1"/>
<stop offset="0.429688" stop-color="rgb(41.815186%, 39.599609%, 69.799805%)" stop-opacity="1"/>
<stop offset="0.433594" stop-color="rgb(42.723083%, 40.02533%, 70.011902%)" stop-opacity="1"/>
<stop offset="0.4375" stop-color="rgb(43.632507%, 40.452576%, 70.225525%)" stop-opacity="1"/>
<stop offset="0.441406" stop-color="rgb(44.541931%, 40.878296%, 70.437622%)" stop-opacity="1"/>
<stop offset="0.445312" stop-color="rgb(45.451355%, 41.304016%, 70.651245%)" stop-opacity="1"/>
<stop offset="0.449219" stop-color="rgb(46.359253%, 41.729736%, 70.864868%)" stop-opacity="1"/>
<stop offset="0.453125" stop-color="rgb(47.268677%, 42.156982%, 71.078491%)" stop-opacity="1"/>
<stop offset="0.457031" stop-color="rgb(48.178101%, 42.582703%, 71.290588%)" stop-opacity="1"/>
<stop offset="0.460938" stop-color="rgb(49.087524%, 43.008423%, 71.504211%)" stop-opacity="1"/>
<stop offset="0.464844" stop-color="rgb(49.801636%, 43.141174%, 71.463013%)" stop-opacity="1"/>
<stop offset="0.46875" stop-color="rgb(50.515747%, 43.275452%, 71.42334%)" stop-opacity="1"/>
<stop offset="0.472656" stop-color="rgb(50.924683%, 42.951965%, 70.986938%)" stop-opacity="1"/>
<stop offset="0.476562" stop-color="rgb(51.333618%, 42.630005%, 70.550537%)" stop-opacity="1"/>
<stop offset="0.480469" stop-color="rgb(51.742554%, 42.306519%, 70.114136%)" stop-opacity="1"/>
<stop offset="0.484375" stop-color="rgb(52.153015%, 41.983032%, 69.677734%)" stop-opacity="1"/>
<stop offset="0.488281" stop-color="rgb(52.561951%, 41.659546%, 69.241333%)" stop-opacity="1"/>
<stop offset="0.492188" stop-color="rgb(52.972412%, 41.33606%, 68.804932%)" stop-opacity="1"/>
<stop offset="0.496094" stop-color="rgb(53.381348%, 41.012573%, 68.36853%)" stop-opacity="1"/>
<stop offset="0.5" stop-color="rgb(53.791809%, 40.690613%, 67.932129%)" stop-opacity="1"/>
<stop offset="0.503906" stop-color="rgb(54.200745%, 40.367126%, 67.495728%)" stop-opacity="1"/>
<stop offset="0.507812" stop-color="rgb(54.60968%, 40.04364%, 67.059326%)" stop-opacity="1"/>
<stop offset="0.511719" stop-color="rgb(55.018616%, 39.720154%, 66.622925%)" stop-opacity="1"/>
<stop offset="0.515625" stop-color="rgb(55.429077%, 39.396667%, 66.186523%)" stop-opacity="1"/>
<stop offset="0.519531" stop-color="rgb(55.838013%, 39.073181%, 65.748596%)" stop-opacity="1"/>
<stop offset="0.523438" stop-color="rgb(56.248474%, 38.749695%, 65.312195%)" stop-opacity="1"/>
<stop offset="0.527344" stop-color="rgb(56.65741%, 38.426208%, 64.875793%)" stop-opacity="1"/>
<stop offset="0.53125" stop-color="rgb(57.067871%, 38.104248%, 64.439392%)" stop-opacity="1"/>
<stop offset="0.535156" stop-color="rgb(57.476807%, 37.780762%, 64.002991%)" stop-opacity="1"/>
<stop offset="0.539062" stop-color="rgb(57.885742%, 37.457275%, 63.566589%)" stop-opacity="1"/>
<stop offset="0.542969" stop-color="rgb(58.294678%, 37.133789%, 63.130188%)" stop-opacity="1"/>
<stop offset="0.546875" stop-color="rgb(58.705139%, 36.810303%, 62.693787%)" stop-opacity="1"/>
<stop offset="0.550781" stop-color="rgb(59.114075%, 36.486816%, 62.257385%)" stop-opacity="1"/>
<stop offset="0.554688" stop-color="rgb(59.524536%, 36.16333%, 61.820984%)" stop-opacity="1"/>
<stop offset="0.558594" stop-color="rgb(59.933472%, 35.839844%, 61.384583%)" stop-opacity="1"/>
<stop offset="0.5625" stop-color="rgb(60.343933%, 35.517883%, 60.948181%)" stop-opacity="1"/>
<stop offset="0.566406" stop-color="rgb(60.752869%, 35.194397%, 60.51178%)" stop-opacity="1"/>
<stop offset="0.570312" stop-color="rgb(61.161804%, 34.870911%, 60.075378%)" stop-opacity="1"/>
<stop offset="0.574219" stop-color="rgb(61.57074%, 34.547424%, 59.638977%)" stop-opacity="1"/>
<stop offset="0.578125" stop-color="rgb(61.981201%, 34.223938%, 59.202576%)" stop-opacity="1"/>
<stop offset="0.582031" stop-color="rgb(62.390137%, 33.900452%, 58.766174%)" stop-opacity="1"/>
<stop offset="0.585938" stop-color="rgb(62.800598%, 33.576965%, 58.329773%)" stop-opacity="1"/>
<stop offset="0.589844" stop-color="rgb(63.209534%, 33.253479%, 57.893372%)" stop-opacity="1"/>
<stop offset="0.59375" stop-color="rgb(63.618469%, 32.931519%, 57.45697%)" stop-opacity="1"/>
<stop offset="0.597656" stop-color="rgb(64.027405%, 32.608032%, 57.020569%)" stop-opacity="1"/>
<stop offset="0.601562" stop-color="rgb(64.437866%, 32.284546%, 56.584167%)" stop-opacity="1"/>
<stop offset="0.605469" stop-color="rgb(64.846802%, 31.96106%, 56.147766%)" stop-opacity="1"/>
<stop offset="0.609375" stop-color="rgb(65.257263%, 31.637573%, 55.711365%)" stop-opacity="1"/>
<stop offset="0.613281" stop-color="rgb(65.666199%, 31.314087%, 55.274963%)" stop-opacity="1"/>
<stop offset="0.617188" stop-color="rgb(66.07666%, 30.990601%, 54.838562%)" stop-opacity="1"/>
<stop offset="0.621094" stop-color="rgb(66.485596%, 30.667114%, 54.402161%)" stop-opacity="1"/>
<stop offset="0.625" stop-color="rgb(66.894531%, 30.345154%, 53.965759%)" stop-opacity="1"/>
<stop offset="0.628906" stop-color="rgb(67.303467%, 30.021667%, 53.529358%)" stop-opacity="1"/>
<stop offset="0.632812" stop-color="rgb(67.713928%, 29.698181%, 53.092957%)" stop-opacity="1"/>
<stop offset="0.636719" stop-color="rgb(68.122864%, 29.374695%, 52.656555%)" stop-opacity="1"/>
<stop offset="0.640625" stop-color="rgb(68.533325%, 29.051208%, 52.220154%)" stop-opacity="1"/>
<stop offset="0.644531" stop-color="rgb(68.942261%, 28.727722%, 51.783752%)" stop-opacity="1"/>
<stop offset="0.648438" stop-color="rgb(69.352722%, 28.404236%, 51.347351%)" stop-opacity="1"/>
<stop offset="0.652344" stop-color="rgb(69.761658%, 28.08075%, 50.91095%)" stop-opacity="1"/>
<stop offset="0.65625" stop-color="rgb(70.170593%, 27.758789%, 50.474548%)" stop-opacity="1"/>
<stop offset="0.660156" stop-color="rgb(70.579529%, 27.435303%, 50.036621%)" stop-opacity="1"/>
<stop offset="0.664062" stop-color="rgb(70.98999%, 27.111816%, 49.60022%)" stop-opacity="1"/>
<stop offset="0.667969" stop-color="rgb(71.398926%, 26.78833%, 49.163818%)" stop-opacity="1"/>
<stop offset="0.671875" stop-color="rgb(71.809387%, 26.464844%, 48.727417%)" stop-opacity="1"/>
<stop offset="0.675781" stop-color="rgb(72.218323%, 26.141357%, 48.291016%)" stop-opacity="1"/>
<stop offset="0.679688" stop-color="rgb(72.628784%, 25.817871%, 47.854614%)" stop-opacity="1"/>
<stop offset="0.683594" stop-color="rgb(73.03772%, 25.494385%, 47.418213%)" stop-opacity="1"/>
<stop offset="0.6875" stop-color="rgb(73.446655%, 25.172424%, 46.981812%)" stop-opacity="1"/>
<stop offset="0.691406" stop-color="rgb(73.855591%, 24.848938%, 46.54541%)" stop-opacity="1"/>
<stop offset="0.695312" stop-color="rgb(74.266052%, 24.525452%, 46.109009%)" stop-opacity="1"/>
<stop offset="0.699219" stop-color="rgb(74.674988%, 24.201965%, 45.672607%)" stop-opacity="1"/>
<stop offset="0.703125" stop-color="rgb(75.085449%, 23.878479%, 45.236206%)" stop-opacity="1"/>
<stop offset="0.707031" stop-color="rgb(75.494385%, 23.554993%, 44.799805%)" stop-opacity="1"/>
<stop offset="0.710938" stop-color="rgb(75.904846%, 23.231506%, 44.363403%)" stop-opacity="1"/>
<stop offset="0.714844" stop-color="rgb(76.313782%, 22.90802%, 43.927002%)" stop-opacity="1"/>
<stop offset="0.71875" stop-color="rgb(76.722717%, 22.58606%, 43.490601%)" stop-opacity="1"/>
<stop offset="0.722656" stop-color="rgb(77.131653%, 22.262573%, 43.054199%)" stop-opacity="1"/>
<stop offset="0.726562" stop-color="rgb(77.542114%, 21.939087%, 42.617798%)" stop-opacity="1"/>
<stop offset="0.730469" stop-color="rgb(77.95105%, 21.615601%, 42.181396%)" stop-opacity="1"/>
<stop offset="0.734375" stop-color="rgb(78.361511%, 21.292114%, 41.744995%)" stop-opacity="1"/>
<stop offset="0.738281" stop-color="rgb(78.770447%, 20.968628%, 41.308594%)" stop-opacity="1"/>
<stop offset="0.742188" stop-color="rgb(79.180908%, 20.645142%, 40.872192%)" stop-opacity="1"/>
<stop offset="0.746094" stop-color="rgb(79.589844%, 20.321655%, 40.435791%)" stop-opacity="1"/>
<stop offset="0.75" stop-color="rgb(79.998779%, 19.999695%, 39.99939%)" stop-opacity="1"/>
<stop offset="1" stop-color="rgb(79.998779%, 19.999695%, 39.99939%)" stop-opacity="1"/>
</linearGradient>
</defs>
<g clip-path="url(#clip-0)">
<path fill-rule="nonzero" fill="url(#linear-pattern-0)" d="M -1914.113281 1642.898438 L 1642.898438 5787.113281 L 5787.113281 2230.101562 L 2230.101562 -1914.113281 Z M -1914.113281 1642.898438 "/>
</g>
<path fill-rule="evenodd" fill="rgb(100%, 100%, 99.609375%)" fill-opacity="1" d="M 1666.699219 1533.300781 C 1709.601562 1395.5 1818.898438 1286.699219 1957.101562 1244.699219 C 1969.898438 1260.300781 2075.601562 1393.5 2016.199219 1469.800781 C 1940.5 1567.101562 1933.800781 1609.699219 1985.101562 1667.800781 C 2003.398438 1688.5 1997.199219 1701.5 1963.101562 1742.101562 C 1956.898438 1749.5 1950.398438 1757.199219 1944.199219 1765.398438 C 1937.601562 1774 1927.601562 1784 1917.199219 1782.699219 C 1911 1781.898438 1888.5 1774.5 1861.5 1711.5 C 1848.199219 1680.398438 1848.5 1658.199219 1848.800781 1640.300781 C 1849.601562 1592.800781 1836.699219 1573.601562 1762.898438 1560.300781 C 1717.601562 1552.101562 1688.601562 1542.300781 1666.699219 1533.300781 Z M 2477.898438 1852.5 C 2427.601562 1956.699219 2337.800781 2036.199219 2230.300781 2074.601562 C 2268.898438 1995.699219 2272 1924.601562 2240 1858 C 2232.800781 1843.101562 2226.199219 1829.699219 2220.199219 1817.5 C 2196.101562 1768.601562 2180.199219 1736.300781 2184.898438 1723.300781 C 2188.699219 1713 2212.300781 1701.300781 2237.199219 1690.199219 C 2267.898438 1676.601562 2290.199219 1674.5 2312.5 1673.800781 C 2359.101562 1740.5 2415.199219 1800.601562 2477.898438 1852.5 Z M 2084.101562 2099.898438 C 1843.101562 2099.898438 1647.101562 1903.898438 1647.101562 1662.898438 C 1647.101562 1633.101562 1650.101562 1603.898438 1655.800781 1575.699219 C 1678.5 1584.601562 1709.699219 1594.800781 1755.199219 1603 C 1788.601562 1609 1799.800781 1614.699219 1803.300781 1618.5 C 1805.699219 1621.101562 1805.699219 1627.898438 1805.5 1639.699219 C 1805.199219 1659.398438 1804.699219 1689.101562 1821.699219 1728.699219 C 1847.5 1788.898438 1877.898438 1821.601562 1911.898438 1825.898438 C 1914.199219 1826.199219 1916.699219 1826.398438 1919.300781 1826.398438 C 1935.800781 1826.398438 1957.601562 1819.5 1978.601562 1792 C 1984.300781 1784.601562 1990.398438 1777.300781 1996.300781 1770.199219 C 2026 1734.800781 2062.898438 1690.800781 2017.5 1639.300781 C 1989.800781 1607.898438 1975.898438 1592.199219 2050.300781 1496.5 C 2119.300781 1407.699219 2038.300781 1280.699219 2003.101562 1233.5 C 2029.300781 1228.601562 2056.300781 1226 2083.898438 1226 C 2112 1226 2139.800781 1228.601562 2167 1233.898438 C 2169.699219 1368.601562 2206.300781 1496.5 2273.898438 1613.699219 C 2277.5 1620 2281.199219 1626.199219 2285 1632.398438 C 2266.101562 1634.601562 2244.800781 1639.398438 2219.300781 1650.800781 C 2176.300781 1669.898438 2152.800781 1684.101562 2143.898438 1708.800781 C 2132.898438 1739.101562 2149 1771.800781 2181 1836.898438 C 2187 1849 2193.5 1862.300781 2200.601562 1877.101562 C 2230.300781 1938.699219 2222.699219 2004 2176.601562 2082.601562 C 2175.101562 2085.199219 2174.199219 2088 2173.800781 2090.800781 C 2145 2096.601562 2114.800781 2099.898438 2084.101562 2099.898438 "/>
<path fill-rule="evenodd" fill="rgb(100%, 100%, 99.609375%)" fill-opacity="1" d="M 2531.699219 1561.300781 C 2526.199219 1561.300781 2520.601562 1559.199219 2516.398438 1554.898438 L 2463.5 1502 C 2455 1493.5 2455 1479.800781 2463.5 1471.398438 C 2472 1462.898438 2485.699219 1462.898438 2494.101562 1471.398438 L 2531.699219 1509 L 2692.898438 1347.898438 C 2701.398438 1339.398438 2715.101562 1339.398438 2723.5 1347.898438 C 2732 1356.398438 2732 1370.101562 2723.5 1378.5 L 2547 1555 C 2542.800781 1559.199219 2537.300781 1561.300781 2531.699219 1561.300781 Z M 2338.398438 1281.699219 C 2356.300781 1454.101562 2446.199219 1612.199219 2593.5 1730.199219 C 2740.800781 1612.101562 2830.699219 1454.101562 2848.601562 1281.699219 C 2754.199219 1266.300781 2666.601562 1229.601562 2593.199219 1174.5 C 2520 1229.5 2432.601562 1266.300781 2338.398438 1281.699219 Z M 2593.5 1779.398438 C 2588.800781 1779.398438 2584.199219 1777.898438 2580.300781 1774.898438 C 2409.398438 1643.699219 2307.5 1462.5 2293.398438 1264.699219 C 2292.601562 1253.199219 2300.800781 1243.101562 2312.199219 1241.699219 C 2412.300781 1228.800781 2504.800781 1190.199219 2579.699219 1130.199219 C 2587.601562 1123.800781 2598.898438 1123.800781 2606.800781 1130.199219 C 2681.800781 1190.300781 2774.5 1228.898438 2874.699219 1241.800781 C 2886.101562 1243.300781 2894.398438 1253.398438 2893.601562 1264.800781 C 2879.5 1462.601562 2777.601562 1643.699219 2606.699219 1774.898438 C 2602.800781 1777.898438 2598.101562 1779.398438 2593.5 1779.398438 Z M 2593.5 1879.199219 C 2589.300781 1879.199219 2585.101562 1878 2581.5 1875.601562 C 2469 1800.800781 2375.699219 1702.699219 2311.800781 1591.898438 C 2244.601562 1475.398438 2210.5 1349.601562 2210.5 1217.800781 C 2210.5 1207.5 2210.699219 1196.800781 2211.199219 1185.898438 C 2211.699219 1174.199219 2221.5 1165.199219 2233.101562 1165.199219 L 2238.898438 1165.300781 C 2371.898438 1165.300781 2495.199219 1112.800781 2577.199219 1021.300781 C 2581.300781 1016.699219 2587.199219 1014.101562 2593.300781 1014.101562 C 2599.398438 1014.101562 2605.300781 1016.699219 2609.398438 1021.300781 C 2691.398438 1112.800781 2814.699219 1165.300781 2947.699219 1165.300781 C 2949.199219 1165.300781 2950.601562 1165.300781 2952.101562 1165.300781 L 2953.898438 1165.300781 C 2954 1165.300781 2954.101562 1165.300781 2954.199219 1165.300781 C 2965.800781 1165.300781 2975.300781 1174.398438 2975.800781 1186 C 2976.300781 1197 2976.5 1207.699219 2976.5 1217.898438 C 2976.5 1349.699219 2942.398438 1475.601562 2875.199219 1592 C 2811.300781 1702.800781 2718 1800.898438 2605.398438 1875.699219 C 2601.898438 1878 2597.699219 1879.199219 2593.5 1879.199219 "/>
<path fill-rule="evenodd" fill="rgb(100%, 100%, 99.609375%)" fill-opacity="1" d="M 2109.300781 2859 C 1976.898438 2859 1856.398438 2818.101562 1844.101562 2813.800781 L 1354.199219 2676 L 1354.199219 2025.398438 C 1430.5 1996 1517.898438 1993.398438 1615 2017.800781 C 1712.398438 2042.199219 1820.101562 2094.101562 1935.101562 2171.800781 C 1970.601562 2195.800781 2026.101562 2225.800781 2089 2232.300781 L 2255.5 2232.300781 C 2358.101562 2232.300781 2444.699219 2365.898438 2373.699219 2433.5 C 2325.398438 2479.5 2230.898438 2497.601562 2176.5 2500.101562 C 2073.300781 2504.800781 1977.101562 2471.898438 1878.300781 2492.800781 C 2013.5 2496 2173.601562 2579.5 2353.5 2502 C 2443.300781 2463.300781 2446.898438 2407.800781 2524 2373.601562 L 2748 2284.398438 C 2833.5 2250.300781 2930.699219 2292.199219 2964.800781 2377.699219 C 2998.800781 2463.199219 2957 2560.398438 2871.5 2594.5 L 2277.398438 2831 C 2224.101562 2851.601562 2165.601562 2859 2109.300781 2859 "/>
<path fill-rule="evenodd" fill="rgb(100%, 100%, 99.609375%)" fill-opacity="1" d="M 1046.601562 2552.300781 C 1024.800781 2552.300781 1007.101562 2570 1007.101562 2591.800781 C 1007.101562 2613.601562 1024.800781 2631.300781 1046.601562 2631.300781 C 1068.398438 2631.300781 1086.101562 2613.601562 1086.101562 2591.800781 C 1086.101562 2570 1068.300781 2552.300781 1046.601562 2552.300781 Z M 1046.601562 2674.5 C 1000.898438 2674.5 963.800781 2637.398438 963.800781 2591.699219 C 963.800781 2546.101562 1000.898438 2508.898438 1046.601562 2508.898438 C 1092.300781 2508.898438 1129.398438 2546 1129.398438 2591.699219 C 1129.398438 2637.398438 1092.199219 2674.5 1046.601562 2674.5 Z M 1173.898438 2743.101562 L 918.101562 2743.101562 C 906.101562 2743.101562 896.398438 2733.398438 896.398438 2721.398438 L 896.398438 1977.5 C 896.398438 1965.5 906.101562 1955.800781 918.101562 1955.800781 L 1174 1955.800781 L 1174 2743.101562 Z M 1289.199219 2743.101562 L 1217.300781 2743.101562 L 1217.300781 1955.898438 L 1289.199219 1955.898438 C 1301.199219 1955.898438 1310.898438 1965.601562 1310.898438 1977.601562 L 1310.898438 2721.5 C 1310.898438 2733.398438 1301.199219 2743.101562 1289.199219 2743.101562 "/>
</svg>
