<?xml version="1.0" encoding="UTF-8"?>
<svg xmlns="http://www.w3.org/2000/svg" xmlns:xlink="http://www.w3.org/1999/xlink" width="3000" height="3000" viewBox="0 0 3000 3000">
<defs>
<clipPath id="clip-0">
<path clip-rule="nonzero" d="M 367 503 L 2635 503 L 2635 2771 L 367 2771 Z M 367 503 "/>
</clipPath>
<clipPath id="clip-1">
<path clip-rule="nonzero" d="M 2634.398438 1636.679688 C 2634.398438 2262.761719 2126.871094 2770.300781 1500.789062 2770.300781 C 874.707031 2770.300781 367.171875 2262.761719 367.171875 1636.679688 C 367.171875 1010.601562 874.707031 503.058594 1500.789062 503.058594 C 2126.871094 503.058594 2634.398438 1010.601562 2634.398438 1636.679688 Z M 2634.398438 1636.679688 "/>
</clipPath>
<clipPath id="clip-2">
<path clip-rule="nonzero" d="M 2634.398438 1636.679688 C 2634.398438 2262.761719 2126.871094 2770.300781 1500.789062 2770.300781 C 874.707031 2770.300781 367.171875 2262.761719 367.171875 1636.679688 C 367.171875 1010.601562 874.707031 503.058594 1500.789062 503.058594 C 2126.871094 503.058594 2634.398438 1010.601562 2634.398438 1636.679688 "/>
</clipPath>
<linearGradient id="linear-pattern-0" gradientUnits="userSpaceOnUse" x1="-0.000000000000000028" y1="0" x2="1" y2="0" gradientTransform="matrix(2267.23, 0, 0, 2267.23, 367.17, 1636.68)">
<stop offset="0" stop-color="rgb(16.851807%, 22.549438%, 55.569458%)" stop-opacity="1"/>
<stop offset="0.25" stop-color="rgb(16.851807%, 22.549438%, 55.569458%)" stop-opacity="1"/>
<stop offset="0.257812" stop-color="rgb(16.853333%, 22.55249%, 55.59082%)" stop-opacity="1"/>
<stop offset="0.261719" stop-color="rgb(16.873169%, 22.58606%, 55.813599%)" stop-opacity="1"/>
<stop offset="0.265625" stop-color="rgb(16.889954%, 22.615051%, 56.015015%)" stop-opacity="1"/>
<stop offset="0.269531" stop-color="rgb(16.836548%, 22.744751%, 56.233215%)" stop-opacity="1"/>
<stop offset="0.273438" stop-color="rgb(16.781616%, 22.872925%, 56.451416%)" stop-opacity="1"/>
<stop offset="0.277344" stop-color="rgb(16.793823%, 23.008728%, 56.600952%)" stop-opacity="1"/>
<stop offset="0.28125" stop-color="rgb(16.807556%, 23.143005%, 56.750488%)" stop-opacity="1"/>
<stop offset="0.285156" stop-color="rgb(16.825867%, 23.278809%, 56.855774%)" stop-opacity="1"/>
<stop offset="0.289062" stop-color="rgb(16.845703%, 23.416138%, 56.959534%)" stop-opacity="1"/>
<stop offset="0.292969" stop-color="rgb(16.802979%, 23.564148%, 57.066345%)" stop-opacity="1"/>
<stop offset="0.296875" stop-color="rgb(16.758728%, 23.713684%, 57.173157%)" stop-opacity="1"/>
<stop offset="0.300781" stop-color="rgb(16.822815%, 23.843384%, 57.276917%)" stop-opacity="1"/>
<stop offset="0.304688" stop-color="rgb(16.885376%, 23.974609%, 57.380676%)" stop-opacity="1"/>
<stop offset="0.308594" stop-color="rgb(16.967773%, 24.134827%, 57.611084%)" stop-opacity="1"/>
<stop offset="0.3125" stop-color="rgb(17.051697%, 24.29657%, 57.843018%)" stop-opacity="1"/>
<stop offset="0.316406" stop-color="rgb(17.030334%, 24.501038%, 58.074951%)" stop-opacity="1"/>
<stop offset="0.320312" stop-color="rgb(17.010498%, 24.705505%, 58.308411%)" stop-opacity="1"/>
<stop offset="0.324219" stop-color="rgb(16.976929%, 24.89624%, 58.509827%)" stop-opacity="1"/>
<stop offset="0.328125" stop-color="rgb(16.941833%, 25.088501%, 58.711243%)" stop-opacity="1"/>
<stop offset="0.332031" stop-color="rgb(16.992188%, 25.213623%, 58.869934%)" stop-opacity="1"/>
<stop offset="0.335938" stop-color="rgb(17.042542%, 25.340271%, 59.030151%)" stop-opacity="1"/>
<stop offset="0.34375" stop-color="rgb(17.010498%, 25.413513%, 59.144592%)" stop-opacity="1"/>
<stop offset="0.347656" stop-color="rgb(17.024231%, 25.611877%, 59.472656%)" stop-opacity="1"/>
<stop offset="0.351562" stop-color="rgb(17.070007%, 25.735474%, 59.684753%)" stop-opacity="1"/>
<stop offset="0.355469" stop-color="rgb(17.070007%, 25.90332%, 59.971619%)" stop-opacity="1"/>
<stop offset="0.359375" stop-color="rgb(17.068481%, 26.071167%, 60.26001%)" stop-opacity="1"/>
<stop offset="0.363281" stop-color="rgb(17.06543%, 26.239014%, 60.572815%)" stop-opacity="1"/>
<stop offset="0.367188" stop-color="rgb(17.060852%, 26.408386%, 60.884094%)" stop-opacity="1"/>
<stop offset="0.371094" stop-color="rgb(17.103577%, 26.542664%, 61.164856%)" stop-opacity="1"/>
<stop offset="0.375" stop-color="rgb(17.144775%, 26.675415%, 61.444092%)" stop-opacity="1"/>
<stop offset="0.378906" stop-color="rgb(17.085266%, 26.829529%, 61.618042%)" stop-opacity="1"/>
<stop offset="0.382812" stop-color="rgb(17.025757%, 26.983643%, 61.791992%)" stop-opacity="1"/>
<stop offset="0.390625" stop-color="rgb(17.103577%, 27.056885%, 61.862183%)" stop-opacity="1"/>
<stop offset="0.394531" stop-color="rgb(17.25769%, 27.241516%, 62.019348%)" stop-opacity="1"/>
<stop offset="0.398438" stop-color="rgb(17.337036%, 27.352905%, 62.109375%)" stop-opacity="1"/>
<stop offset="0.402344" stop-color="rgb(17.359924%, 27.500916%, 62.219238%)" stop-opacity="1"/>
<stop offset="0.40625" stop-color="rgb(17.382812%, 27.6474%, 62.330627%)" stop-opacity="1"/>
<stop offset="0.410156" stop-color="rgb(17.344666%, 27.80304%, 62.442017%)" stop-opacity="1"/>
<stop offset="0.414062" stop-color="rgb(17.304993%, 27.958679%, 62.554932%)" stop-opacity="1"/>
<stop offset="0.417969" stop-color="rgb(17.375183%, 28.100586%, 62.664795%)" stop-opacity="1"/>
<stop offset="0.421875" stop-color="rgb(17.445374%, 28.244019%, 62.776184%)" stop-opacity="1"/>
<stop offset="0.425781" stop-color="rgb(17.407227%, 28.401184%, 62.887573%)" stop-opacity="1"/>
<stop offset="0.429688" stop-color="rgb(17.367554%, 28.556824%, 63.000488%)" stop-opacity="1"/>
<stop offset="0.433594" stop-color="rgb(17.410278%, 28.656006%, 63.075256%)" stop-opacity="1"/>
<stop offset="0.4375" stop-color="rgb(17.451477%, 28.755188%, 63.15155%)" stop-opacity="1"/>
<stop offset="0.441406" stop-color="rgb(17.489624%, 28.855896%, 63.253784%)" stop-opacity="1"/>
<stop offset="0.445312" stop-color="rgb(17.527771%, 28.956604%, 63.354492%)" stop-opacity="1"/>
<stop offset="0.449219" stop-color="rgb(17.488098%, 29.112244%, 63.523865%)" stop-opacity="1"/>
<stop offset="0.453125" stop-color="rgb(17.446899%, 29.266357%, 63.691711%)" stop-opacity="1"/>
<stop offset="0.457031" stop-color="rgb(17.518616%, 29.412842%, 63.803101%)" stop-opacity="1"/>
<stop offset="0.460938" stop-color="rgb(17.590332%, 29.559326%, 63.91449%)" stop-opacity="1"/>
<stop offset="0.464844" stop-color="rgb(17.660522%, 29.704285%, 64.083862%)" stop-opacity="1"/>
<stop offset="0.46875" stop-color="rgb(17.729187%, 29.850769%, 64.254761%)" stop-opacity="1"/>
<stop offset="0.472656" stop-color="rgb(17.718506%, 30.004883%, 64.433289%)" stop-opacity="1"/>
<stop offset="0.476562" stop-color="rgb(17.707825%, 30.157471%, 64.610291%)" stop-opacity="1"/>
<stop offset="0.480469" stop-color="rgb(17.712402%, 30.281067%, 64.743042%)" stop-opacity="1"/>
<stop offset="0.484375" stop-color="rgb(17.715454%, 30.404663%, 64.872742%)" stop-opacity="1"/>
<stop offset="0.492188" stop-color="rgb(17.816162%, 30.474854%, 64.929199%)" stop-opacity="1"/>
<stop offset="0.5" stop-color="rgb(18.016052%, 30.613708%, 65.042114%)" stop-opacity="1"/>
<stop offset="0.503906" stop-color="rgb(18.077087%, 30.833435%, 65.264893%)" stop-opacity="1"/>
<stop offset="0.507812" stop-color="rgb(18.03894%, 30.982971%, 65.431213%)" stop-opacity="1"/>
<stop offset="0.511719" stop-color="rgb(18.066406%, 31.138611%, 65.570068%)" stop-opacity="1"/>
<stop offset="0.515625" stop-color="rgb(18.093872%, 31.292725%, 65.707397%)" stop-opacity="1"/>
<stop offset="0.519531" stop-color="rgb(18.16864%, 31.445312%, 65.820312%)" stop-opacity="1"/>
<stop offset="0.523438" stop-color="rgb(18.244934%, 31.5979%, 65.934753%)" stop-opacity="1"/>
<stop offset="0.527344" stop-color="rgb(18.301392%, 31.752014%, 66.047668%)" stop-opacity="1"/>
<stop offset="0.53125" stop-color="rgb(18.359375%, 31.907654%, 66.162109%)" stop-opacity="1"/>
<stop offset="0.535156" stop-color="rgb(18.307495%, 32.069397%, 66.27655%)" stop-opacity="1"/>
<stop offset="0.539062" stop-color="rgb(18.255615%, 32.232666%, 66.390991%)" stop-opacity="1"/>
<stop offset="0.546875" stop-color="rgb(18.341064%, 32.316589%, 66.455078%)" stop-opacity="1"/>
<stop offset="0.550781" stop-color="rgb(18.511963%, 32.525635%, 66.610718%)" stop-opacity="1"/>
<stop offset="0.554688" stop-color="rgb(18.598938%, 32.652283%, 66.705322%)" stop-opacity="1"/>
<stop offset="0.558594" stop-color="rgb(18.624878%, 32.810974%, 66.819763%)" stop-opacity="1"/>
<stop offset="0.5625" stop-color="rgb(18.650818%, 32.971191%, 66.934204%)" stop-opacity="1"/>
<stop offset="0.566406" stop-color="rgb(18.623352%, 33.122253%, 67.03949%)" stop-opacity="1"/>
<stop offset="0.570312" stop-color="rgb(18.59436%, 33.27179%, 67.146301%)" stop-opacity="1"/>
<stop offset="0.578125" stop-color="rgb(18.69812%, 33.348083%, 67.202759%)" stop-opacity="1"/>
<stop offset="0.582031" stop-color="rgb(18.762207%, 33.578491%, 67.433167%)" stop-opacity="1"/>
<stop offset="0.585938" stop-color="rgb(18.72406%, 33.732605%, 67.605591%)" stop-opacity="1"/>
<stop offset="0.589844" stop-color="rgb(18.756104%, 33.894348%, 67.744446%)" stop-opacity="1"/>
<stop offset="0.59375" stop-color="rgb(18.788147%, 34.054565%, 67.883301%)" stop-opacity="1"/>
<stop offset="0.597656" stop-color="rgb(18.867493%, 34.214783%, 67.999268%)" stop-opacity="1"/>
<stop offset="0.601562" stop-color="rgb(18.946838%, 34.375%, 68.113708%)" stop-opacity="1"/>
<stop offset="0.605469" stop-color="rgb(19.030762%, 34.52301%, 68.22052%)" stop-opacity="1"/>
<stop offset="0.609375" stop-color="rgb(19.113159%, 34.671021%, 68.325806%)" stop-opacity="1"/>
<stop offset="0.617188" stop-color="rgb(19.218445%, 34.750366%, 68.383789%)" stop-opacity="1"/>
<stop offset="0.621094" stop-color="rgb(19.406128%, 34.985352%, 68.553162%)" stop-opacity="1"/>
<stop offset="0.625" stop-color="rgb(19.488525%, 35.139465%, 68.663025%)" stop-opacity="1"/>
<stop offset="0.628906" stop-color="rgb(19.482422%, 35.30426%, 68.82782%)" stop-opacity="1"/>
<stop offset="0.632812" stop-color="rgb(19.474792%, 35.470581%, 68.991089%)" stop-opacity="1"/>
<stop offset="0.636719" stop-color="rgb(19.476318%, 35.635376%, 69.148254%)" stop-opacity="1"/>
<stop offset="0.640625" stop-color="rgb(19.477844%, 35.801697%, 69.306946%)" stop-opacity="1"/>
<stop offset="0.644531" stop-color="rgb(19.564819%, 35.952759%, 69.413757%)" stop-opacity="1"/>
<stop offset="0.648438" stop-color="rgb(19.650269%, 36.103821%, 69.520569%)" stop-opacity="1"/>
<stop offset="0.65625" stop-color="rgb(19.75708%, 36.186218%, 69.580078%)" stop-opacity="1"/>
<stop offset="0.660156" stop-color="rgb(19.947815%, 36.428833%, 69.750977%)" stop-opacity="1"/>
<stop offset="0.664062" stop-color="rgb(20.031738%, 36.58905%, 69.862366%)" stop-opacity="1"/>
<stop offset="0.667969" stop-color="rgb(20.115662%, 36.756897%, 69.979858%)" stop-opacity="1"/>
<stop offset="0.671875" stop-color="rgb(20.198059%, 36.924744%, 70.095825%)" stop-opacity="1"/>
<stop offset="0.675781" stop-color="rgb(20.227051%, 37.094116%, 70.213318%)" stop-opacity="1"/>
<stop offset="0.679688" stop-color="rgb(20.254517%, 37.263489%, 70.330811%)" stop-opacity="1"/>
<stop offset="0.683594" stop-color="rgb(20.23468%, 37.419128%, 70.437622%)" stop-opacity="1"/>
<stop offset="0.6875" stop-color="rgb(20.211792%, 37.573242%, 70.544434%)" stop-opacity="1"/>
<stop offset="0.695312" stop-color="rgb(20.320129%, 37.658691%, 70.602417%)" stop-opacity="1"/>
<stop offset="0.699219" stop-color="rgb(20.391846%, 37.908936%, 70.774841%)" stop-opacity="1"/>
<stop offset="0.703125" stop-color="rgb(20.35675%, 38.072205%, 70.88623%)" stop-opacity="1"/>
<stop offset="0.707031" stop-color="rgb(20.307922%, 38.241577%, 71.002197%)" stop-opacity="1"/>
<stop offset="0.710938" stop-color="rgb(20.26062%, 38.412476%, 71.11969%)" stop-opacity="1"/>
<stop offset="0.714844" stop-color="rgb(20.26825%, 38.583374%, 71.2677%)" stop-opacity="1"/>
<stop offset="0.71875" stop-color="rgb(20.274353%, 38.752747%, 71.417236%)" stop-opacity="1"/>
<stop offset="0.722656" stop-color="rgb(20.358276%, 38.925171%, 71.59729%)" stop-opacity="1"/>
<stop offset="0.726562" stop-color="rgb(20.440674%, 39.097595%, 71.777344%)" stop-opacity="1"/>
<stop offset="0.730469" stop-color="rgb(20.527649%, 39.271545%, 71.896362%)" stop-opacity="1"/>
<stop offset="0.734375" stop-color="rgb(20.613098%, 39.447021%, 72.015381%)" stop-opacity="1"/>
<stop offset="0.742188" stop-color="rgb(20.721436%, 39.541626%, 72.079468%)" stop-opacity="1"/>
<stop offset="0.746094" stop-color="rgb(20.832825%, 39.782715%, 72.242737%)" stop-opacity="1"/>
<stop offset="0.75" stop-color="rgb(20.835876%, 39.927673%, 72.340393%)" stop-opacity="1"/>
<stop offset="0.753906" stop-color="rgb(20.846558%, 40.101624%, 72.459412%)" stop-opacity="1"/>
<stop offset="0.757812" stop-color="rgb(20.857239%, 40.275574%, 72.576904%)" stop-opacity="1"/>
<stop offset="0.761719" stop-color="rgb(20.948792%, 40.437317%, 72.685242%)" stop-opacity="1"/>
<stop offset="0.765625" stop-color="rgb(21.040344%, 40.59906%, 72.793579%)" stop-opacity="1"/>
<stop offset="0.773438" stop-color="rgb(21.151733%, 40.690613%, 72.854614%)" stop-opacity="1"/>
<stop offset="0.777344" stop-color="rgb(21.224976%, 40.948486%, 73.100281%)" stop-opacity="1"/>
<stop offset="0.78125" stop-color="rgb(21.186829%, 41.116333%, 73.287964%)" stop-opacity="1"/>
<stop offset="0.785156" stop-color="rgb(21.231079%, 41.293335%, 73.431396%)" stop-opacity="1"/>
<stop offset="0.789062" stop-color="rgb(21.276855%, 41.471863%, 73.574829%)" stop-opacity="1"/>
<stop offset="0.792969" stop-color="rgb(21.318054%, 41.610718%, 73.667908%)" stop-opacity="1"/>
<stop offset="0.796875" stop-color="rgb(21.357727%, 41.751099%, 73.762512%)" stop-opacity="1"/>
<stop offset="0.804688" stop-color="rgb(21.356201%, 41.854858%, 73.832703%)" stop-opacity="1"/>
<stop offset="0.808594" stop-color="rgb(21.443176%, 42.141724%, 74.021912%)" stop-opacity="1"/>
<stop offset="0.8125" stop-color="rgb(21.531677%, 42.323303%, 74.142456%)" stop-opacity="1"/>
<stop offset="0.816406" stop-color="rgb(21.621704%, 42.504883%, 74.263%)" stop-opacity="1"/>
<stop offset="0.820312" stop-color="rgb(21.713257%, 42.686462%, 74.383545%)" stop-opacity="1"/>
<stop offset="0.824219" stop-color="rgb(21.710205%, 42.86499%, 74.502563%)" stop-opacity="1"/>
<stop offset="0.828125" stop-color="rgb(21.707153%, 43.043518%, 74.621582%)" stop-opacity="1"/>
<stop offset="0.832031" stop-color="rgb(21.720886%, 43.222046%, 74.740601%)" stop-opacity="1"/>
<stop offset="0.835938" stop-color="rgb(21.734619%, 43.4021%, 74.859619%)" stop-opacity="1"/>
<stop offset="0.839844" stop-color="rgb(21.80481%, 43.566895%, 74.969482%)" stop-opacity="1"/>
<stop offset="0.84375" stop-color="rgb(21.875%, 43.733215%, 75.07782%)" stop-opacity="1"/>
<stop offset="0.851562" stop-color="rgb(21.852112%, 43.821716%, 75.137329%)" stop-opacity="1"/>
<stop offset="0.855469" stop-color="rgb(21.911621%, 44.090271%, 75.390625%)" stop-opacity="1"/>
<stop offset="0.859375" stop-color="rgb(21.995544%, 44.270325%, 75.584412%)" stop-opacity="1"/>
<stop offset="0.863281" stop-color="rgb(22.087097%, 44.456482%, 75.730896%)" stop-opacity="1"/>
<stop offset="0.867188" stop-color="rgb(22.17865%, 44.644165%, 75.87738%)" stop-opacity="1"/>
<stop offset="0.875" stop-color="rgb(22.23053%, 44.747925%, 75.944519%)" stop-opacity="1"/>
<stop offset="1" stop-color="rgb(22.28241%, 44.851685%, 76.011658%)" stop-opacity="1"/>
</linearGradient>
</defs>
<g clip-path="url(#clip-0)">
<g clip-path="url(#clip-1)">
<g clip-path="url(#clip-2)">
<path fill-rule="nonzero" fill="url(#linear-pattern-0)" d="M 367.171875 503.058594 L 367.171875 2770.300781 L 2634.398438 2770.300781 L 2634.398438 503.058594 Z M 367.171875 503.058594 "/>
</g>
</g>
</g>
<path fill-rule="nonzero" fill="rgb(100%, 100%, 100%)" fill-opacity="1" d="M 2072.371094 1565.269531 C 2101.820312 1565.269531 2127.570312 1566.230469 2153.191406 1564.878906 C 2166.640625 1564.171875 2174.828125 1554.601562 2174.289062 1540.429688 C 2173.828125 1528.371094 2167.351562 1520.359375 2155.148438 1517.199219 C 2112.929688 1506.28125 2090.671875 1517.851562 2072.371094 1565.269531 Z M 1548.761719 1327.140625 C 1548.761719 1406.609375 1548.761719 1484.421875 1548.761719 1563.589844 C 1549.289062 1563.789062 1552.289062 1565.890625 1555.300781 1565.898438 C 1693.558594 1566.148438 1831.820312 1566.261719 1970.078125 1566.238281 C 1976.488281 1566.238281 1982.921875 1565.089844 1989.308594 1564.308594 C 1990.28125 1564.199219 1991.308594 1563.371094 1992.011719 1562.589844 C 1992.71875 1561.808594 1993.050781 1560.699219 1994.910156 1557.058594 C 1974.601562 1496.320312 1953.730469 1433.53125 1932.578125 1370.839844 C 1919.269531 1331.421875 1910.300781 1324.800781 1868.738281 1324.710938 C 1771.851562 1324.5 1674.949219 1324.578125 1578.050781 1324.730469 C 1569.671875 1324.738281 1561.300781 1326.070312 1548.761719 1327.140625 Z M 1164.449219 1887.570312 C 1164.449219 1949.210938 1163.898438 2009.878906 1164.808594 2070.539062 C 1165.058594 2087.101562 1174.199219 2094.828125 1193.121094 2095.640625 C 1221.359375 2096.851562 1249.738281 2096.949219 1277.960938 2095.53125 C 1301.121094 2094.359375 1307.800781 2086.121094 1309.160156 2062.300781 C 1309.898438 2049.28125 1309 2036.148438 1309.960938 2023.160156 C 1310.96875 2009.570312 1318.441406 2001.050781 1332.71875 2000.109375 C 1339.230469 1999.679688 1345.769531 1999.699219 1352.300781 1999.699219 C 1547.109375 1999.679688 1741.929688 1999.648438 1936.75 1999.710938 C 1979.390625 1999.730469 1981.570312 2001.980469 1982.230469 2043.308594 C 1982.308594 2048.75 1982.429688 2054.191406 1982.609375 2059.621094 C 1983.558594 2088.410156 1990.21875 2095.25 2020 2096.050781 C 2041.75 2096.628906 2063.53125 2096.429688 2085.289062 2096.121094 C 2121.269531 2095.609375 2127.308594 2089.960938 2127.511719 2054.460938 C 2127.871094 1991.339844 2127.601562 1928.210938 2127.601562 1865.089844 C 2127.601562 1813.941406 2127.878906 1762.789062 2127.539062 1711.628906 C 2127.261719 1670.851562 2108.820312 1639.761719 2071.898438 1623.078125 C 2055.769531 1615.789062 2036.128906 1613.75 2018.070312 1613.671875 C 1863.53125 1612.980469 1708.980469 1613.25 1554.429688 1613.371094 C 1545.921875 1613.371094 1537.398438 1614.519531 1531.441406 1614.949219 C 1513.070312 1646.289062 1497.921875 1676.519531 1478.789062 1703.980469 C 1421.28125 1786.550781 1341.011719 1841.550781 1252.808594 1886.789062 C 1226.890625 1900.078125 1202.480469 1906.589844 1176.398438 1888.808594 C 1174.21875 1887.320312 1170.488281 1888.109375 1164.449219 1887.570312 Z M 1501.398438 1377.328125 C 1501.371094 1377.328125 1501.351562 1377.328125 1501.320312 1377.328125 C 1501.320312 1331.578125 1500.949219 1285.808594 1501.53125 1240.058594 C 1501.730469 1224.511719 1497.671875 1213.898438 1482.820312 1205.929688 C 1399 1160.96875 1310.519531 1131.960938 1214.910156 1131.359375 C 1119.238281 1130.769531 1030.621094 1159.199219 946.390625 1203.410156 C 928.46875 1212.820312 922.378906 1224.410156 922.644531 1244.488281 C 923.726562 1326.191406 923.367188 1407.910156 922.886719 1489.621094 C 922.472656 1559.769531 944.679688 1622.140625 985.625 1678.359375 C 1040.269531 1753.398438 1113.730469 1804.730469 1195.78125 1845.371094 C 1207.730469 1851.289062 1217.890625 1850.441406 1229.71875 1844.679688 C 1300.960938 1809.960938 1365.480469 1766.078125 1417.570312 1705.820312 C 1472.960938 1641.730469 1504.128906 1568.179688 1501.570312 1481.921875 C 1500.539062 1447.089844 1501.398438 1412.199219 1501.398438 1377.328125 Z M 1934.261719 2047.808594 C 1741.488281 2047.808594 1551.339844 2047.808594 1358.789062 2047.808594 C 1357.738281 2056.261719 1356.449219 2064.5 1355.738281 2072.789062 C 1352.109375 2115.058594 1326.46875 2141 1284.289062 2142.660156 C 1253.839844 2143.851562 1223.289062 2143.53125 1192.820312 2142.78125 C 1145.390625 2141.601562 1117.628906 2114.96875 1116.441406 2067.398438 C 1115.140625 2015.160156 1113.820312 1962.71875 1116.988281 1910.640625 C 1119.269531 1873.109375 1108.421875 1849.679688 1075.511719 1828.519531 C 1005.03125 1783.199219 948.214844 1723.410156 911.046875 1646.78125 C 889.328125 1602 876.796875 1554.980469 876.53125 1505.230469 C 876.019531 1409.398438 876.859375 1313.550781 875.976562 1217.71875 C 875.792969 1197.691406 882.8125 1185.378906 899.757812 1175.53125 C 1070.011719 1076.640625 1246.769531 1053.449219 1431.738281 1129.960938 C 1463.820312 1143.21875 1494.238281 1160.488281 1525.429688 1175.910156 C 1542.871094 1184.53125 1551.078125 1197.839844 1549.671875 1217.96875 C 1548.390625 1236.058594 1549.398438 1254.320312 1549.398438 1276.238281 C 1564.960938 1276.238281 1576.621094 1276.238281 1588.28125 1276.238281 C 1679.761719 1276.230469 1771.25 1276.191406 1862.730469 1276.210938 C 1930.898438 1276.230469 1958.421875 1296.109375 1980.441406 1361.449219 C 1996.429688 1408.871094 2012.140625 1456.378906 2028.058594 1503.820312 C 2029.679688 1508.671875 2031.898438 1513.328125 2035.46875 1522.078125 C 2042.171875 1512.101562 2046.46875 1505.199219 2051.261719 1498.648438 C 2081.71875 1456.941406 2178.351562 1456.75 2209.03125 1498.28125 C 2237.75 1537.148438 2221.339844 1591.601562 2175.71875 1608.460938 C 2170.660156 1610.328125 2165.320312 1611.480469 2160.039062 1612.691406 C 2155.011719 1613.839844 2149.898438 1614.628906 2141.160156 1616.269531 C 2172.578125 1654.628906 2175.25 1697.390625 2174.800781 1741.789062 C 2173.761719 1846.328125 2174.640625 1950.890625 2174.25 2055.449219 C 2174.199219 2069.429688 2174.058594 2084.410156 2169.289062 2097.179688 C 2157.769531 2128.058594 2132.929688 2142.199219 2100.570312 2142.789062 C 2071.179688 2143.328125 2041.761719 2143.390625 2012.359375 2142.800781 C 1964.46875 2141.851562 1938.941406 2116.589844 1935.800781 2068.101562 C 1935.460938 2062.730469 1934.988281 2057.371094 1934.261719 2047.808594 "/>
<path fill-rule="nonzero" fill="rgb(100%, 100%, 100%)" fill-opacity="1" d="M 1163.449219 1557.410156 C 1217.921875 1502.648438 1268.5 1451.730469 1319.160156 1400.890625 C 1326.839844 1393.179688 1334.359375 1385.191406 1342.800781 1378.378906 C 1352.699219 1370.410156 1363.488281 1371.71875 1372.421875 1380.140625 C 1381.460938 1388.648438 1382.601562 1399.140625 1375.539062 1409.660156 C 1372.53125 1414.128906 1368.71875 1418.148438 1364.878906 1421.980469 C 1306.300781 1480.429688 1247.910156 1539.078125 1188.910156 1597.101562 C 1166.199219 1619.429688 1161.019531 1618.921875 1138.039062 1596.371094 C 1112.390625 1571.210938 1087.179688 1545.589844 1061.808594 1520.140625 C 1058.730469 1517.058594 1055.480469 1514.078125 1052.839844 1510.648438 C 1042.78125 1497.519531 1042.628906 1484.078125 1053.171875 1475.941406 C 1064.058594 1467.53125 1075.289062 1467.828125 1085.460938 1477.78125 C 1094.011719 1486.140625 1102.480469 1494.578125 1110.839844 1503.140625 C 1127.53125 1520.238281 1144.121094 1537.460938 1163.449219 1557.410156 "/>
<path fill-rule="nonzero" fill="rgb(100%, 100%, 100%)" fill-opacity="1" d="M 2030.851562 1758.351562 C 2030.769531 1732.300781 2009.558594 1710.398438 1984.039062 1710.011719 C 1956.128906 1709.601562 1935 1731.058594 1935.539062 1759.289062 C 1936.050781 1785.808594 1956.851562 1805.960938 1983.480469 1805.71875 C 2009.679688 1805.488281 2030.921875 1784.238281 2030.851562 1758.351562 Z M 1886.5 1757.160156 C 1886.800781 1706.078125 1931.941406 1661.238281 1982.769531 1661.53125 C 2034.328125 1661.828125 2079.308594 1706.488281 2079.101562 1757.179688 C 2078.890625 1810.808594 2033.808594 1855.46875 1981.179688 1854.179688 C 1929.140625 1852.910156 1886.210938 1808.910156 1886.5 1757.160156 "/>
</svg>
