<svg id="Layer_1" data-name="Layer 1" xmlns="http://www.w3.org/2000/svg" xmlns:xlink="http://www.w3.org/1999/xlink" viewBox="0 0 327.83 576"><defs><style>.cls-1{fill:none;}.cls-2,.cls-8{fill:#335296;}.cls-3{clip-path:url(#clip-path);}.cls-4{clip-path:url(#clip-path-2);}.cls-5,.cls-7{fill:#93d4da;}.cls-6{clip-path:url(#clip-path-3);}.cls-7,.cls-8{fill-rule:evenodd;}.cls-9{fill:#fff;}.cls-10{fill:#ef3e42;}</style><clipPath id="clip-path"><rect class="cls-1" x="-349.45" y="-249.62" width="1920" height="1080"/></clipPath><clipPath id="clip-path-2"><path class="cls-1" d="M97.73,22.68,302.81,204.37V41.56a54.37,54.37,0,0,0-21-18.88Z"/></clipPath><clipPath id="clip-path-3"><path class="cls-1" d="M72.08,16.87A54.22,54.22,0,0,0,17.85,71.09V256.35c0,.79,0,1.57.06,2.36,0,1.36-.06,2.72-.06,4.09a146.86,146.86,0,0,0,293.71,0c0-1.37,0-2.73-.06-4.09,0-.79.06-1.57.06-2.36V71.09a54.22,54.22,0,0,0-54.23-54.22Z"/></clipPath></defs><title>Artboard 1</title><path class="cls-2" d="M50.43,497.24H65c1.66,0,2.36.83,2.08,2.49l-4,22.35A3.79,3.79,0,0,1,61,524.71q-6.72,3.6-17.1,3.6-9.83,0-15.4-4.56T23,509.63a43.7,43.7,0,0,1,.69-6.93q2.3-13.21,9.62-19.14t19.25-5.91q10.17,0,15.22,3.8a2.72,2.72,0,0,1,1.11,1.42,3.27,3.27,0,0,1-.48,1.91L64.76,491q-1.19,2.07-3.67,1.1a21.75,21.75,0,0,0-7.82-1.45q-6.65,0-9.87,2.7T38.94,503a26.61,26.61,0,0,0-.42,4.36q0,4.29,2.25,6.13t7,1.83a12.68,12.68,0,0,0,3.6-.42l1.18-6.78H48.7c-1.66,0-2.35-.8-2.08-2.42l1-5.95A2.6,2.6,0,0,1,50.43,497.24Z"/><path class="cls-2" d="M80.05,478.48H97.12q19,0,19,13.43a25.74,25.74,0,0,1-.41,4.36,18.26,18.26,0,0,1-11.49,14.39l5.88,13.71a2.5,2.5,0,0,1,.07,2.21,1.85,1.85,0,0,1-1.8.9H98.78a3.13,3.13,0,0,1-3.26-2L90.6,513l-4.09,0-2.15,12c-.32,1.67-1.23,2.5-2.75,2.5H71.73c-1.79,0-2.53-.82-2.2-2.48l7.76-44A2.6,2.6,0,0,1,80.05,478.48Zm8.57,22.62h5a8.24,8.24,0,0,0,4.89-1.2,5.82,5.82,0,0,0,2.11-3.81,8,8,0,0,0,.14-1.65,3,3,0,0,0-1.25-2.75,8.28,8.28,0,0,0-4.08-.75h-5Z"/><path class="cls-2" d="M145.32,477.65q9.13,0,14.33,4.53t5.19,13.88a38.24,38.24,0,0,1-.69,7.06q-4.5,25.2-26.37,25.19-9.14,0-14.29-4.53T118.33,510a38.56,38.56,0,0,1,.69-7.13Q123.52,477.66,145.32,477.65Zm-5.95,37.79a7.31,7.31,0,0,0,6-2.91q2.31-2.91,3.49-9.55a36.78,36.78,0,0,0,.56-5.47q0-7-5.61-7a7.31,7.31,0,0,0-6,2.91q-2.31,2.91-3.49,9.55a36.78,36.78,0,0,0-.56,5.47Q133.76,515.44,139.37,515.44Z"/><path class="cls-2" d="M186.78,528.24q-18.4,0-18.41-14.46a28.37,28.37,0,0,1,.42-4.71l5-28.09a2.58,2.58,0,0,1,2.75-2.5h10c1.74,0,2.47.82,2.19,2.48l-4.69,26.65a20.8,20.8,0,0,0-.21,3,3.74,3.74,0,0,0,4.36,4.36,5.68,5.68,0,0,0,4.46-1.73,11.24,11.24,0,0,0,2.25-5.53L199.66,481a2.6,2.6,0,0,1,2.77-2.49h10.12q2.64,0,2.22,2.49l-5,28.1q-1.74,9.82-7.3,14.5T186.78,528.24Z"/><path class="cls-2" d="M263.49,481l-7.77,44a2.67,2.67,0,0,1-2.83,2.5h-9.62a2.79,2.79,0,0,1-2.84-1.52L232.2,503.8,228.46,525a2.67,2.67,0,0,1-2.82,2.5h-9.52c-1.75,0-2.46-.83-2.14-2.49l7.77-44a2.59,2.59,0,0,1,2.76-2.49h9.62c1.52,0,2.47.51,2.84,1.52l8.3,22.15L249,481a2.58,2.58,0,0,1,2.75-2.49h9.52C263,478.48,263.76,479.3,263.49,481Z"/><path class="cls-2" d="M281.09,527.48h-15.9c-1.75,0-2.46-.82-2.14-2.48l7.69-44a2.6,2.6,0,0,1,2.77-2.49h14.88q10.51,0,15.75,4.32t5.22,13.54a39.41,39.41,0,0,1-.55,6.64q-2.07,12.87-8.71,18.69T281.09,527.48Zm5-36h-2.15l-4,23h2.14q5.06,0,7.69-2.46c1.75-1.63,3-4.65,3.8-9a32.53,32.53,0,0,0,.49-4.5q0-3.87-1.91-5.43C290.88,492,288.86,491.49,286.08,491.49Z"/><g class="cls-3"><path class="cls-2" d="M311.56,71.09a54.22,54.22,0,0,0-54.23-54.22H72.08A54.22,54.22,0,0,0,17.85,71.09V256.35c0,.79,0,1.57.06,2.35,0,1.37-.06,2.73-.06,4.1a146.86,146.86,0,1,0,293.71,0c0-1.37,0-2.73-.06-4.1,0-.78.06-1.56.06-2.35Z"/></g><g class="cls-4"><rect class="cls-5" x="149.27" y="22.74" width="7.89" height="181.09"/><rect class="cls-5" x="137.13" y="22.74" width="7.89" height="181.09"/><rect class="cls-5" x="161.41" y="22.74" width="7.89" height="181.09"/><rect class="cls-5" x="173.55" y="22.74" width="7.89" height="181.09"/><rect class="cls-5" x="185.69" y="22.74" width="7.89" height="181.09"/><rect class="cls-5" x="197.83" y="22.74" width="7.89" height="181.09"/><rect class="cls-5" x="209.97" y="22.74" width="7.89" height="181.09"/><rect class="cls-5" x="222.11" y="22.74" width="7.89" height="181.09"/><rect class="cls-5" x="234.25" y="22.74" width="7.89" height="181.09"/><rect class="cls-5" x="246.39" y="22.74" width="7.89" height="181.09"/><rect class="cls-5" x="258.53" y="22.74" width="7.89" height="181.09"/><rect class="cls-5" x="270.67" y="22.74" width="7.89" height="181.09"/><rect class="cls-5" x="282.81" y="22.74" width="7.89" height="181.09"/><rect class="cls-5" x="294.95" y="22.74" width="7.89" height="181.09"/></g><g class="cls-6"><polygon class="cls-5" points="55.73 11.72 -20.57 11.72 -20.57 437.43 70.76 437.43 536.25 437.43 55.73 11.72"/><polygon class="cls-2" points="-4.43 212.77 -218.86 22.58 209.28 22.81 -4.43 212.77"/><polygon class="cls-2" points="-233.2 417.83 -4.62 212.76 225.5 417.83 -25.03 417.83 -233.2 417.83"/><path class="cls-2" d="M203.94,234.5A22.09,22.09,0,1,0,226,212.41a22.09,22.09,0,0,0-22.09,22.09"/><path class="cls-2" d="M226,260.91a26.41,26.41,0,1,1,26.41-26.41A26.44,26.44,0,0,1,226,260.91m0-44.17a17.76,17.76,0,1,0,17.75,17.76A17.78,17.78,0,0,0,226,216.74"/><path class="cls-2" d="M66.09,234.5a22.09,22.09,0,1,0,22.09-22.09A22.09,22.09,0,0,0,66.09,234.5"/><path class="cls-2" d="M88.18,260.91a26.41,26.41,0,1,1,26.41-26.41,26.44,26.44,0,0,1-26.41,26.41m0-44.17a17.76,17.76,0,1,0,17.76,17.76,17.78,17.78,0,0,0-17.76-17.76"/><path class="cls-2" d="M253.79,229.81l-13-22.08H212.87l-18.16,22.08H115.33l-13.54-22.08H75.33L62.09,229.81s-7.55,2.15-10.76-5.54v-8h5.84l5.54-45.54h108l16.92,21.85,48.62,2.15,4.62,7.08s8.3,0,8.92,4.31-.31,6.29-.31,6.29l1.23,3.25h6.77v10.15Z"/><path class="cls-2" d="M59.74,234.44c-4.17,0-9.6-1.79-12.41-8.5a4.33,4.33,0,0,1-.33-1.67v-8A4.32,4.32,0,0,1,51.32,212h2l5.07-41.74a4.33,4.33,0,0,1,4.3-3.8h108a4.34,4.34,0,0,1,3.42,1.67l15.7,20.27,46.61,2.06a4.32,4.32,0,0,1,3.43,2l3.43,5.25c4.94.54,10,2.81,10.77,7.89a20.94,20.94,0,0,1,.1,5.82h3.31a4.33,4.33,0,0,1,4.33,4.33v10.15a4.33,4.33,0,0,1-1.15,2.94l-3.69,4a4.34,4.34,0,0,1-6.91-.74l-11.75-20h-23.4l-16.86,20.51a4.33,4.33,0,0,1-3.34,1.58H115.33a4.3,4.3,0,0,1-3.69-2.07l-12.28-20H77.78l-12,20A4.32,4.32,0,0,1,63.28,234a13.26,13.26,0,0,1-3.54.47M55.65,223.3a4.37,4.37,0,0,0,3.81,2.5l12.15-20.3a4.35,4.35,0,0,1,3.72-2.1h26.46a4.33,4.33,0,0,1,3.69,2.07l12.27,20h74.92L209.52,205a4.33,4.33,0,0,1,3.34-1.58h23.88l-2.9-4.44-46.4-2.06a4.32,4.32,0,0,1-3.23-1.67l-15.62-20.17h-102l-5.07,41.73a4.33,4.33,0,0,1-4.3,3.81H55.65ZM253,220l.14.23V220Zm-7.64-13,.2.35,0-.25-.17-.1"/><path class="cls-2" d="M158.71,161.55H76.57a6.06,6.06,0,1,1,0-12.11h82.14a6.06,6.06,0,1,1,0,12.11"/><path class="cls-2" d="M188.88,250.18h-63a6.06,6.06,0,0,1,0-12.11h63a6.06,6.06,0,0,1,0,12.11"/><polygon class="cls-5" points="180.38 190.59 166.93 172.44 146.73 172.44 146.73 190.59 180.38 190.59"/><path class="cls-7" d="M99.07,234.5a10.89,10.89,0,1,1-10.89-10.89A10.9,10.9,0,0,1,99.07,234.5"/><path class="cls-7" d="M236.91,234.5A10.89,10.89,0,1,1,226,223.61a10.89,10.89,0,0,1,10.88,10.89"/><path class="cls-7" d="M90.33,212.41a18.15,18.15,0,1,1,18.15-18.15,18.18,18.18,0,0,1-18.15,18.15"/><polygon class="cls-8" points="86.96 181.24 93.7 181.24 93.7 187.79 99.06 184.04 102.92 189.55 96.2 194.26 102.92 198.97 99.06 204.48 93.7 200.73 93.7 207.28 86.96 207.28 86.96 200.73 81.6 204.48 77.74 198.97 84.46 194.26 77.74 189.55 81.6 184.04 86.96 187.79 86.96 181.24"/><path class="cls-2" d="M185.35,325.15H225.5a34.68,34.68,0,0,0-46.95-16L207,280.72a34.71,34.71,0,0,0-44.69,22.53,34.71,34.71,0,0,0-44.7-22.53l27.49,27.49a34.66,34.66,0,0,0-44.85,16.94h39a34.74,34.74,0,0,0-20.83,44.13l35.17-35.17V403h16.79V333.5l35.77,35.78a34.72,34.72,0,0,0-20.83-44.13"/><path class="cls-5" d="M100.26,325.15H121.5L108.87,313.9a35,35,0,0,0-8.61,11.25"/><path class="cls-5" d="M126.66,333.21a34.73,34.73,0,0,0-8.21,36.07l24.77-24.77-14.65-13.06c-.65.56-1.29,1.14-1.91,1.76"/><polygon class="cls-5" points="153.62 402.97 170.41 402.97 170.41 368.74 153.62 353.77 153.62 402.97"/></g><g class="cls-3"><polygon class="cls-7" points="87.4 72.2 76.31 62.33 106.85 62.33 87.4 45.03 67.96 27.73 48.51 45.03 29.07 62.33 59.61 62.33 48.51 72.2 29.07 89.51 58.78 89.51 48.51 98.64 29.07 115.94 67.96 115.94 106.85 115.94 87.4 98.64 77.13 89.51 106.85 89.51 87.4 72.2"/><path class="cls-9" d="M257.33,30.22a40.92,40.92,0,0,1,40.88,40.87V256.35c0,.47,0,1,0,1.78,0,.32,0,.63,0,.94,0,1.34.06,2.56.06,3.73A133.51,133.51,0,0,1,70.3,357.2a132.6,132.6,0,0,1-39.1-94.4c0-1.17,0-2.39.05-3.73,0-.31,0-.63,0-.94,0-.54-.05-1.18-.05-1.78V71.09A40.92,40.92,0,0,1,72.08,30.22H257.33m0-13.35H72.08A54.22,54.22,0,0,0,17.85,71.09V256.35c0,.79,0,1.57.06,2.35,0,1.37-.06,2.73-.06,4.1a146.86,146.86,0,1,0,293.71,0c0-1.37,0-2.73-.06-4.1,0-.78.06-1.56.06-2.35V71.09a54.22,54.22,0,0,0-54.23-54.22"/><path class="cls-2" d="M257.33,16.87a54.22,54.22,0,0,1,54.23,54.22V256.35c0,.79,0,1.57-.06,2.35,0,1.37.06,2.73.06,4.1a146.86,146.86,0,1,1-293.71,0c0-1.37,0-2.73.06-4.1,0-.78-.06-1.56-.06-2.35V71.09A54.22,54.22,0,0,1,72.08,16.87H257.33m0-13.36H72.08A67.65,67.65,0,0,0,4.5,71.09V256.35c0,.89,0,1.75,0,2.45,0,1.41,0,2.72,0,4a160.24,160.24,0,0,0,307.81,62.36,159.13,159.13,0,0,0,12.6-62.36c0-1.28,0-2.59-.06-4,0-.7.06-1.56.06-2.45V71.09A67.66,67.66,0,0,0,257.33,3.51"/></g><path class="cls-10" d="M102.14,569.35H95.69c-.5,0-.7-.22-.61-.67l4-22.41a.71.71,0,0,1,.78-.68h5.84c3.41,0,6,.66,7.76,2s2.65,3.44,2.65,6.39a19.56,19.56,0,0,1-.3,3.21q-1.16,6.69-4.43,9.45C109.15,568.44,106.08,569.35,102.14,569.35ZM105.26,549h-3l-3,17h3a9.83,9.83,0,0,0,6.42-1.89c1.53-1.26,2.61-3.57,3.21-6.93a15.7,15.7,0,0,0,.27-2.63c0-2-.57-3.49-1.73-4.31A9,9,0,0,0,105.26,549Z"/><path class="cls-10" d="M118.43,568.68l3.95-22.41a.74.74,0,0,1,.78-.68h2.37c.47,0,.66.13.57.4l-4,22.68a.69.69,0,0,1-.76.68H119C118.56,569.35,118.36,569.13,118.43,568.68Z"/><path class="cls-10" d="M137.67,569.35h-2.9c-.42,0-.66-.23-.73-.71l-3.85-22.3c0-.5.16-.75.62-.75h2.39c.39,0,.61.23.65.67L136.11,560l.61,5.58h.07l2.6-5.64,7-13.66a1,1,0,0,1,.91-.64H150a.5.5,0,0,1,.46.22.55.55,0,0,1-.06.53l-11.69,22.3A1.12,1.12,0,0,1,137.67,569.35Z"/><path class="cls-10" d="M150.67,568.68l4-22.41a.74.74,0,0,1,.77-.68h2.37c.48,0,.67.13.58.4l-4,22.68a.71.71,0,0,1-.77.68h-2.3C150.81,569.35,150.61,569.13,150.67,568.68Z"/><path class="cls-10" d="M176.33,562.09a6.38,6.38,0,0,1-2.81,5.67,12.23,12.23,0,0,1-7,1.9,23.13,23.13,0,0,1-4.12-.36,10.16,10.16,0,0,1-2.94-.86c-.41-.2-.53-.46-.37-.78l1-1.82c.2-.45.5-.59.88-.41a13.39,13.39,0,0,0,5.44,1,11.58,11.58,0,0,0,2.05-.18,10.35,10.35,0,0,0,2-.6,3.63,3.63,0,0,0,1.58-1.22,3.23,3.23,0,0,0,.59-1.93,2.1,2.1,0,0,0-.29-1.07,4.69,4.69,0,0,0-.58-.82,4.26,4.26,0,0,0-1.12-.71l-1.19-.56-1.42-.68a14.56,14.56,0,0,1-4.23-2.45,4.64,4.64,0,0,1-1.48-3.64,6.28,6.28,0,0,1,2.57-5.5,11.32,11.32,0,0,1,6.72-1.83,14.48,14.48,0,0,1,6.19,1.08.57.57,0,0,1,.34.81l-1,1.76a.7.7,0,0,1-1,.37,11.78,11.78,0,0,0-4.6-.77c-3.67,0-5.51,1.21-5.51,3.65a2.62,2.62,0,0,0,.07.57,2.14,2.14,0,0,0,.22.52c.1.17.2.31.29.44a1.74,1.74,0,0,0,.46.4l.49.36a3.2,3.2,0,0,0,.61.34l.64.3.73.35.75.36,1.81.85a13,13,0,0,1,1.61.94,6.75,6.75,0,0,1,1.4,1.19,4.9,4.9,0,0,1,.84,1.45A5,5,0,0,1,176.33,562.09Z"/><path class="cls-10" d="M179.64,568.68l4-22.41a.74.74,0,0,1,.78-.68h2.37c.47,0,.66.13.57.4l-4,22.68a.69.69,0,0,1-.76.68h-2.31C179.77,569.35,179.57,569.13,179.64,568.68Z"/><path class="cls-10" d="M202.32,545.22a8.92,8.92,0,0,1,6.52,2.26c1.54,1.51,2.3,3.7,2.3,6.56a21,21,0,0,1-.34,3.45q-1.08,6-4.15,9.11a10.87,10.87,0,0,1-8.05,3.09,8.93,8.93,0,0,1-6.52-2.25c-1.53-1.49-2.3-3.69-2.3-6.57a21,21,0,0,1,.3-3.41q1-6,4.18-9.13A10.94,10.94,0,0,1,202.32,545.22Zm-3.45,21.19q6.56,0,8.15-8.95a17.84,17.84,0,0,0,.3-3.08q0-5.88-5.3-5.88-6.53,0-8.15,9a21.65,21.65,0,0,0-.27,3.11Q193.6,566.41,198.87,566.41Z"/><path class="cls-10" d="M235.81,546.24l-4,22.44a.71.71,0,0,1-.78.67h-2.28a.84.84,0,0,1-.84-.51l-8-17.06-3,16.9a.71.71,0,0,1-.74.67H214c-.5,0-.7-.22-.61-.67l3.95-22.41a.74.74,0,0,1,.82-.68h2.23q.67,0,.84.48l8,17.1,2.94-16.9a.72.72,0,0,1,.79-.68h2.28A.54.54,0,0,1,235.81,546.24Z"/></svg>