<?xml version="1.0" encoding="UTF-8"?>
<svg xmlns="http://www.w3.org/2000/svg" xmlns:xlink="http://www.w3.org/1999/xlink" width="3873" height="3873" viewBox="0 0 3873 3873">
<defs>
<clipPath id="clip-0">
<path clip-rule="evenodd" d="M 1936.5 0 C 3006 0 3873 867 3873 1936.5 C 3873 3006 3006 3873 1936.5 3873 C 867 3873 0 3006 0 1936.5 C 0 867 867 0 1936.5 0 "/>
</clipPath>
<linearGradient id="linear-pattern-0" gradientUnits="userSpaceOnUse" x1="-0.500003" y1="0" x2="1.500004" y2="0" gradientTransform="matrix(2072.1, -1778.5, 1778.5, 2072.1, 900.448, 2825.75)">
<stop offset="0" stop-color="rgb(100%, 0%, 0%)" stop-opacity="1"/>
<stop offset="0.25" stop-color="rgb(100%, 0%, 0%)" stop-opacity="1"/>
<stop offset="0.253906" stop-color="rgb(99.09668%, 0.787354%, 1.298523%)" stop-opacity="1"/>
<stop offset="0.257812" stop-color="rgb(98.194885%, 1.576233%, 2.598572%)" stop-opacity="1"/>
<stop offset="0.261719" stop-color="rgb(97.293091%, 2.363586%, 3.897095%)" stop-opacity="1"/>
<stop offset="0.265625" stop-color="rgb(96.391296%, 3.152466%, 5.197144%)" stop-opacity="1"/>
<stop offset="0.269531" stop-color="rgb(95.489502%, 3.939819%, 6.497192%)" stop-opacity="1"/>
<stop offset="0.273438" stop-color="rgb(94.587708%, 4.728699%, 7.797241%)" stop-opacity="1"/>
<stop offset="0.277344" stop-color="rgb(93.685913%, 5.516052%, 9.095764%)" stop-opacity="1"/>
<stop offset="0.28125" stop-color="rgb(92.784119%, 6.304932%, 10.395813%)" stop-opacity="1"/>
<stop offset="0.285156" stop-color="rgb(91.882324%, 7.093811%, 11.695862%)" stop-opacity="1"/>
<stop offset="0.289062" stop-color="rgb(90.98053%, 7.88269%, 12.995911%)" stop-opacity="1"/>
<stop offset="0.292969" stop-color="rgb(90.077209%, 8.670044%, 14.294434%)" stop-opacity="1"/>
<stop offset="0.296875" stop-color="rgb(89.175415%, 9.458923%, 15.594482%)" stop-opacity="1"/>
<stop offset="0.300781" stop-color="rgb(88.273621%, 10.246277%, 16.894531%)" stop-opacity="1"/>
<stop offset="0.304688" stop-color="rgb(87.371826%, 11.035156%, 18.19458%)" stop-opacity="1"/>
<stop offset="0.308594" stop-color="rgb(86.470032%, 11.82251%, 19.493103%)" stop-opacity="1"/>
<stop offset="0.3125" stop-color="rgb(85.568237%, 12.611389%, 20.793152%)" stop-opacity="1"/>
<stop offset="0.316406" stop-color="rgb(84.666443%, 13.400269%, 22.093201%)" stop-opacity="1"/>
<stop offset="0.320312" stop-color="rgb(83.764648%, 14.189148%, 23.39325%)" stop-opacity="1"/>
<stop offset="0.324219" stop-color="rgb(82.862854%, 14.976501%, 24.691772%)" stop-opacity="1"/>
<stop offset="0.328125" stop-color="rgb(81.96106%, 15.765381%, 25.991821%)" stop-opacity="1"/>
<stop offset="0.332031" stop-color="rgb(81.059265%, 16.552734%, 27.290344%)" stop-opacity="1"/>
<stop offset="0.335938" stop-color="rgb(80.157471%, 17.341614%, 28.590393%)" stop-opacity="1"/>
<stop offset="0.339844" stop-color="rgb(79.25415%, 18.128967%, 29.890442%)" stop-opacity="1"/>
<stop offset="0.34375" stop-color="rgb(78.352356%, 18.917847%, 31.190491%)" stop-opacity="1"/>
<stop offset="0.347656" stop-color="rgb(77.450562%, 19.706726%, 32.489014%)" stop-opacity="1"/>
<stop offset="0.351562" stop-color="rgb(76.548767%, 20.495605%, 33.789062%)" stop-opacity="1"/>
<stop offset="0.355469" stop-color="rgb(75.646973%, 21.282959%, 35.089111%)" stop-opacity="1"/>
<stop offset="0.359375" stop-color="rgb(74.745178%, 22.071838%, 36.38916%)" stop-opacity="1"/>
<stop offset="0.363281" stop-color="rgb(73.843384%, 22.859192%, 37.687683%)" stop-opacity="1"/>
<stop offset="0.367188" stop-color="rgb(72.941589%, 23.648071%, 38.987732%)" stop-opacity="1"/>
<stop offset="0.371094" stop-color="rgb(72.039795%, 24.435425%, 40.287781%)" stop-opacity="1"/>
<stop offset="0.375" stop-color="rgb(71.138%, 25.224304%, 41.58783%)" stop-opacity="1"/>
<stop offset="0.378906" stop-color="rgb(70.23468%, 26.013184%, 42.886353%)" stop-opacity="1"/>
<stop offset="0.382812" stop-color="rgb(69.332886%, 26.802063%, 44.186401%)" stop-opacity="1"/>
<stop offset="0.386719" stop-color="rgb(68.431091%, 27.589417%, 45.48645%)" stop-opacity="1"/>
<stop offset="0.390625" stop-color="rgb(67.529297%, 28.378296%, 46.786499%)" stop-opacity="1"/>
<stop offset="0.394531" stop-color="rgb(66.627502%, 29.165649%, 48.085022%)" stop-opacity="1"/>
<stop offset="0.398438" stop-color="rgb(65.725708%, 29.954529%, 49.385071%)" stop-opacity="1"/>
<stop offset="0.402344" stop-color="rgb(64.823914%, 30.741882%, 50.68512%)" stop-opacity="1"/>
<stop offset="0.40625" stop-color="rgb(63.922119%, 31.530762%, 51.985168%)" stop-opacity="1"/>
<stop offset="0.410156" stop-color="rgb(63.020325%, 32.319641%, 53.283691%)" stop-opacity="1"/>
<stop offset="0.414062" stop-color="rgb(62.11853%, 33.108521%, 54.58374%)" stop-opacity="1"/>
<stop offset="0.417969" stop-color="rgb(61.216736%, 33.895874%, 55.883789%)" stop-opacity="1"/>
<stop offset="0.421875" stop-color="rgb(60.314941%, 34.684753%, 57.183838%)" stop-opacity="1"/>
<stop offset="0.425781" stop-color="rgb(59.411621%, 35.472107%, 58.482361%)" stop-opacity="1"/>
<stop offset="0.429688" stop-color="rgb(58.509827%, 36.260986%, 59.78241%)" stop-opacity="1"/>
<stop offset="0.433594" stop-color="rgb(57.608032%, 37.04834%, 61.080933%)" stop-opacity="1"/>
<stop offset="0.4375" stop-color="rgb(56.706238%, 37.837219%, 62.380981%)" stop-opacity="1"/>
<stop offset="0.441406" stop-color="rgb(55.804443%, 38.626099%, 63.68103%)" stop-opacity="1"/>
<stop offset="0.445312" stop-color="rgb(54.902649%, 39.414978%, 64.981079%)" stop-opacity="1"/>
<stop offset="0.449219" stop-color="rgb(54.000854%, 40.202332%, 66.279602%)" stop-opacity="1"/>
<stop offset="0.453125" stop-color="rgb(53.09906%, 40.991211%, 67.579651%)" stop-opacity="1"/>
<stop offset="0.457031" stop-color="rgb(52.197266%, 41.778564%, 68.8797%)" stop-opacity="1"/>
<stop offset="0.460938" stop-color="rgb(51.295471%, 42.567444%, 70.179749%)" stop-opacity="1"/>
<stop offset="0.464844" stop-color="rgb(50.689697%, 43.35022%, 71.01593%)" stop-opacity="1"/>
<stop offset="0.46875" stop-color="rgb(50.085449%, 44.134521%, 71.852112%)" stop-opacity="1"/>
<stop offset="0.472656" stop-color="rgb(49.945068%, 44.909668%, 71.965027%)" stop-opacity="1"/>
<stop offset="0.476562" stop-color="rgb(49.806213%, 45.68634%, 72.077942%)" stop-opacity="1"/>
<stop offset="0.480469" stop-color="rgb(49.665833%, 46.461487%, 72.190857%)" stop-opacity="1"/>
<stop offset="0.484375" stop-color="rgb(49.525452%, 47.238159%, 72.305298%)" stop-opacity="1"/>
<stop offset="0.488281" stop-color="rgb(49.385071%, 48.013306%, 72.418213%)" stop-opacity="1"/>
<stop offset="0.492188" stop-color="rgb(49.24469%, 48.789978%, 72.531128%)" stop-opacity="1"/>
<stop offset="0.496094" stop-color="rgb(49.104309%, 49.565125%, 72.644043%)" stop-opacity="1"/>
<stop offset="0.5" stop-color="rgb(48.965454%, 50.341797%, 72.756958%)" stop-opacity="1"/>
<stop offset="0.503906" stop-color="rgb(48.825073%, 51.116943%, 72.869873%)" stop-opacity="1"/>
<stop offset="0.507812" stop-color="rgb(48.684692%, 51.893616%, 72.984314%)" stop-opacity="1"/>
<stop offset="0.511719" stop-color="rgb(48.544312%, 52.668762%, 73.097229%)" stop-opacity="1"/>
<stop offset="0.515625" stop-color="rgb(48.405457%, 53.445435%, 73.210144%)" stop-opacity="1"/>
<stop offset="0.519531" stop-color="rgb(48.265076%, 54.220581%, 73.323059%)" stop-opacity="1"/>
<stop offset="0.523438" stop-color="rgb(48.124695%, 54.997253%, 73.435974%)" stop-opacity="1"/>
<stop offset="0.527344" stop-color="rgb(47.984314%, 55.7724%, 73.548889%)" stop-opacity="1"/>
<stop offset="0.53125" stop-color="rgb(47.843933%, 56.549072%, 73.66333%)" stop-opacity="1"/>
<stop offset="0.535156" stop-color="rgb(47.703552%, 57.324219%, 73.776245%)" stop-opacity="1"/>
<stop offset="0.539062" stop-color="rgb(47.564697%, 58.100891%, 73.88916%)" stop-opacity="1"/>
<stop offset="0.542969" stop-color="rgb(47.424316%, 58.876038%, 74.002075%)" stop-opacity="1"/>
<stop offset="0.546875" stop-color="rgb(47.283936%, 59.65271%, 74.11499%)" stop-opacity="1"/>
<stop offset="0.550781" stop-color="rgb(47.143555%, 60.427856%, 74.227905%)" stop-opacity="1"/>
<stop offset="0.554688" stop-color="rgb(47.003174%, 61.204529%, 74.342346%)" stop-opacity="1"/>
<stop offset="0.558594" stop-color="rgb(46.862793%, 61.979675%, 74.455261%)" stop-opacity="1"/>
<stop offset="0.5625" stop-color="rgb(46.723938%, 62.756348%, 74.568176%)" stop-opacity="1"/>
<stop offset="0.566406" stop-color="rgb(46.583557%, 63.531494%, 74.681091%)" stop-opacity="1"/>
<stop offset="0.570312" stop-color="rgb(46.443176%, 64.308167%, 74.794006%)" stop-opacity="1"/>
<stop offset="0.574219" stop-color="rgb(46.302795%, 65.083313%, 74.906921%)" stop-opacity="1"/>
<stop offset="0.578125" stop-color="rgb(46.16394%, 65.859985%, 75.019836%)" stop-opacity="1"/>
<stop offset="0.582031" stop-color="rgb(46.02356%, 66.635132%, 75.132751%)" stop-opacity="1"/>
<stop offset="0.585938" stop-color="rgb(45.883179%, 67.411804%, 75.247192%)" stop-opacity="1"/>
<stop offset="0.589844" stop-color="rgb(45.742798%, 68.186951%, 75.360107%)" stop-opacity="1"/>
<stop offset="0.59375" stop-color="rgb(45.602417%, 68.963623%, 75.473022%)" stop-opacity="1"/>
<stop offset="0.597656" stop-color="rgb(45.462036%, 69.73877%, 75.585938%)" stop-opacity="1"/>
<stop offset="0.601562" stop-color="rgb(45.323181%, 70.515442%, 75.698853%)" stop-opacity="1"/>
<stop offset="0.605469" stop-color="rgb(45.1828%, 71.290588%, 75.811768%)" stop-opacity="1"/>
<stop offset="0.609375" stop-color="rgb(45.042419%, 72.067261%, 75.926208%)" stop-opacity="1"/>
<stop offset="0.613281" stop-color="rgb(44.902039%, 72.842407%, 76.039124%)" stop-opacity="1"/>
<stop offset="0.617188" stop-color="rgb(44.761658%, 73.61908%, 76.152039%)" stop-opacity="1"/>
<stop offset="0.621094" stop-color="rgb(44.621277%, 74.394226%, 76.264954%)" stop-opacity="1"/>
<stop offset="0.625" stop-color="rgb(44.482422%, 75.170898%, 76.377869%)" stop-opacity="1"/>
<stop offset="0.628906" stop-color="rgb(44.342041%, 75.946045%, 76.490784%)" stop-opacity="1"/>
<stop offset="0.632812" stop-color="rgb(44.20166%, 76.722717%, 76.605225%)" stop-opacity="1"/>
<stop offset="0.636719" stop-color="rgb(44.061279%, 77.497864%, 76.71814%)" stop-opacity="1"/>
<stop offset="0.640625" stop-color="rgb(43.922424%, 78.274536%, 76.831055%)" stop-opacity="1"/>
<stop offset="0.644531" stop-color="rgb(43.782043%, 79.049683%, 76.94397%)" stop-opacity="1"/>
<stop offset="0.648438" stop-color="rgb(43.641663%, 79.826355%, 77.056885%)" stop-opacity="1"/>
<stop offset="0.652344" stop-color="rgb(43.501282%, 80.601501%, 77.1698%)" stop-opacity="1"/>
<stop offset="0.65625" stop-color="rgb(43.360901%, 81.378174%, 77.284241%)" stop-opacity="1"/>
<stop offset="0.660156" stop-color="rgb(43.22052%, 82.15332%, 77.397156%)" stop-opacity="1"/>
<stop offset="0.664062" stop-color="rgb(43.081665%, 82.929993%, 77.510071%)" stop-opacity="1"/>
<stop offset="0.667969" stop-color="rgb(42.941284%, 83.705139%, 77.622986%)" stop-opacity="1"/>
<stop offset="0.671875" stop-color="rgb(42.800903%, 84.481812%, 77.735901%)" stop-opacity="1"/>
<stop offset="0.675781" stop-color="rgb(42.660522%, 85.256958%, 77.848816%)" stop-opacity="1"/>
<stop offset="0.679688" stop-color="rgb(42.520142%, 86.03363%, 77.963257%)" stop-opacity="1"/>
<stop offset="0.683594" stop-color="rgb(42.379761%, 86.808777%, 78.076172%)" stop-opacity="1"/>
<stop offset="0.6875" stop-color="rgb(42.240906%, 87.585449%, 78.189087%)" stop-opacity="1"/>
<stop offset="0.691406" stop-color="rgb(42.100525%, 88.360596%, 78.302002%)" stop-opacity="1"/>
<stop offset="0.695312" stop-color="rgb(41.960144%, 89.137268%, 78.414917%)" stop-opacity="1"/>
<stop offset="0.699219" stop-color="rgb(41.819763%, 89.912415%, 78.527832%)" stop-opacity="1"/>
<stop offset="0.703125" stop-color="rgb(41.680908%, 90.689087%, 78.640747%)" stop-opacity="1"/>
<stop offset="0.707031" stop-color="rgb(41.540527%, 91.464233%, 78.753662%)" stop-opacity="1"/>
<stop offset="0.710938" stop-color="rgb(41.400146%, 92.240906%, 78.868103%)" stop-opacity="1"/>
<stop offset="0.714844" stop-color="rgb(41.259766%, 93.016052%, 78.981018%)" stop-opacity="1"/>
<stop offset="0.71875" stop-color="rgb(41.119385%, 93.792725%, 79.093933%)" stop-opacity="1"/>
<stop offset="0.722656" stop-color="rgb(40.979004%, 94.567871%, 79.206848%)" stop-opacity="1"/>
<stop offset="0.726562" stop-color="rgb(40.840149%, 95.344543%, 79.319763%)" stop-opacity="1"/>
<stop offset="0.730469" stop-color="rgb(40.699768%, 96.11969%, 79.432678%)" stop-opacity="1"/>
<stop offset="0.734375" stop-color="rgb(40.559387%, 96.896362%, 79.547119%)" stop-opacity="1"/>
<stop offset="0.738281" stop-color="rgb(40.419006%, 97.671509%, 79.660034%)" stop-opacity="1"/>
<stop offset="0.742188" stop-color="rgb(40.278625%, 98.448181%, 79.772949%)" stop-opacity="1"/>
<stop offset="0.746094" stop-color="rgb(40.138245%, 99.223328%, 79.885864%)" stop-opacity="1"/>
<stop offset="0.75" stop-color="rgb(39.99939%, 100%, 79.998779%)" stop-opacity="1"/>
<stop offset="1" stop-color="rgb(39.99939%, 100%, 79.998779%)" stop-opacity="1"/>
</linearGradient>
</defs>
<g clip-path="url(#clip-0)">
<path fill-rule="nonzero" fill="url(#linear-pattern-0)" d="M -1914.113281 1642.898438 L 1642.898438 5787.113281 L 5787.113281 2230.101562 L 2230.101562 -1914.113281 Z M -1914.113281 1642.898438 "/>
</g>
<path fill-rule="evenodd" fill="rgb(100%, 100%, 99.609375%)" fill-opacity="1" d="M 1840.199219 1109.601562 L 1509.601562 1109.601562 C 1497.699219 1109.601562 1488 1100 1488 1088 C 1488 1076.101562 1497.601562 1066.398438 1509.601562 1066.398438 L 1840.199219 1066.398438 C 1852.101562 1066.398438 1861.800781 1076 1861.800781 1088 C 1861.699219 1099.898438 1852.101562 1109.601562 1840.199219 1109.601562 "/>
<path fill-rule="evenodd" fill="rgb(100%, 100%, 99.609375%)" fill-opacity="1" d="M 1541.898438 1390.898438 L 1807.800781 1390.898438 L 1807.800781 961 L 1541.898438 961 Z M 1840.199219 1455.5 L 1509.601562 1455.5 C 1491.699219 1455.5 1477.300781 1441 1477.300781 1423.199219 L 1477.300781 928.699219 C 1477.300781 910.800781 1491.800781 896.398438 1509.601562 896.398438 L 1840.199219 896.398438 C 1858.101562 896.398438 1872.5 910.898438 1872.5 928.699219 L 1872.5 1423.199219 C 1872.5 1441 1858 1455.5 1840.199219 1455.5 "/>
<path fill-rule="evenodd" fill="rgb(100%, 100%, 99.609375%)" fill-opacity="1" d="M 1917.300781 961 L 1432.398438 961 C 1414.5 961 1400.101562 946.5 1400.101562 928.699219 C 1400.101562 910.800781 1414.601562 896.398438 1432.398438 896.398438 L 1917.300781 896.398438 C 1935.199219 896.398438 1949.601562 910.898438 1949.601562 928.699219 C 1949.699219 946.601562 1935.199219 961 1917.300781 961 "/>
<path fill-rule="evenodd" fill="rgb(100%, 100%, 99.609375%)" fill-opacity="1" d="M 1950.300781 1361.199219 L 2049.101562 1361.199219 C 2102.699219 1361.199219 2146.300781 1404.800781 2146.300781 1458.398438 L 2146.300781 1586.199219 L 1950.300781 1586.199219 Z M 1211 1586.300781 L 1211 1458.5 C 1211 1404.898438 1254.601562 1361.300781 1308.199219 1361.300781 L 1394.398438 1361.300781 L 1394.398438 1586.300781 Z M 1394.398438 2615.101562 L 1308.199219 2615.101562 C 1254.601562 2615.101562 1211 2571.5 1211 2517.898438 L 1211 2394.101562 L 1394.398438 2394.101562 Z M 1678.699219 1715 C 1663.699219 1715 1651.5 1727.199219 1651.5 1742.199219 L 1651.5 2226.101562 C 1651.5 2241.101562 1663.699219 2253.300781 1678.699219 2253.300781 C 1693.699219 2253.300781 1705.898438 2241.101562 1705.898438 2226.101562 L 1705.898438 1742.199219 C 1705.898438 1727.199219 1693.699219 1715 1678.699219 1715 Z M 1678.699219 2296.5 C 1639.898438 2296.5 1608.398438 2264.898438 1608.398438 2226.199219 L 1608.398438 1742.300781 C 1608.398438 1703.5 1640 1672 1678.699219 1672 C 1717.5 1672 1749 1703.601562 1749 1742.300781 L 1749 2226.199219 C 1749 2265 1717.5 2296.5 1678.699219 2296.5 Z M 1907.601562 2133.601562 L 1907.601562 1742.199219 C 1907.601562 1727.199219 1895.398438 1715 1880.398438 1715 C 1865.398438 1715 1853.199219 1727.199219 1853.199219 1742.199219 L 1853.199219 2180.5 C 1860 2155.601562 1881.5 2136.699219 1907.601562 2133.601562 Z M 1477.101562 1715 C 1462.101562 1715 1449.898438 1727.199219 1449.898438 1742.199219 L 1449.898438 2226.101562 C 1449.898438 2241.101562 1462.101562 2253.300781 1477.101562 2253.300781 C 1492.101562 2253.300781 1504.300781 2241.101562 1504.300781 2226.101562 L 1504.300781 1742.199219 C 1504.300781 1727.199219 1492.101562 1715 1477.101562 1715 Z M 1477.101562 2296.5 C 1438.300781 2296.5 1406.800781 2264.898438 1406.800781 2226.199219 L 1406.800781 1742.300781 C 1406.800781 1703.5 1438.398438 1672 1477.101562 1672 C 1515.898438 1672 1547.398438 1703.601562 1547.398438 1742.300781 L 1547.398438 2226.199219 C 1547.398438 2265 1515.800781 2296.5 1477.101562 2296.5 Z M 1937.898438 2615.101562 L 1437.5 2615.101562 L 1437.5 2372.5 C 1437.5 2360.601562 1427.898438 2350.898438 1415.898438 2350.898438 L 1211 2350.898438 L 1211 1629.300781 L 1416 1629.300781 C 1427.898438 1629.300781 1437.5 1619.699219 1437.601562 1607.699219 L 1437.601562 1361.101562 L 1907.300781 1361.101562 L 1907.300781 1607.699219 C 1907.300781 1619.601562 1916.898438 1629.300781 1928.898438 1629.300781 L 2146.398438 1629.300781 L 2146.398438 2081.101562 C 2086 2111.5 2018.898438 2128.601562 1950.699219 2132.300781 L 1950.699219 1742.101562 C 1950.699219 1703.300781 1919.101562 1671.800781 1880.398438 1671.800781 C 1841.601562 1671.800781 1810.101562 1703.300781 1810.101562 1742.101562 L 1810.101562 2226 C 1810.101562 2254.699219 1827.300781 2279.398438 1852 2290.300781 C 1859.199219 2404 1888.398438 2512.800781 1937.898438 2615.101562 "/>
<path fill-rule="evenodd" fill="rgb(100%, 100%, 99.609375%)" fill-opacity="1" d="M 1464.199219 2714.101562 L 1456.601562 2714.101562 C 1422.800781 2714.101562 1395.300781 2686.601562 1395.300781 2652.800781 L 1395.300781 2615.101562 L 1525.398438 2615.101562 L 1525.398438 2652.800781 C 1525.398438 2686.601562 1497.898438 2714.101562 1464.199219 2714.101562 "/>
<path fill-rule="evenodd" fill="rgb(100%, 100%, 99.609375%)" fill-opacity="1" d="M 1900.800781 2714.101562 L 1893.199219 2714.101562 C 1859.398438 2714.101562 1831.898438 2686.601562 1831.898438 2652.800781 L 1831.898438 2615.101562 L 1937.800781 2615.101562 C 1945.199219 2630.5 1953.101562 2645.699219 1961.5 2660.800781 C 1957.699219 2690.800781 1931.898438 2714.101562 1900.800781 2714.101562 "/>
<path fill-rule="evenodd" fill="rgb(100%, 100%, 99.609375%)" fill-opacity="1" d="M 2243.300781 2631.300781 C 2237.800781 2631.300781 2232.300781 2629.199219 2228.101562 2625 L 2160.199219 2557.101562 C 2151.800781 2548.699219 2151.800781 2535 2160.199219 2526.601562 C 2168.601562 2518.199219 2182.300781 2518.199219 2190.699219 2526.601562 L 2243.398438 2579.300781 L 2454.601562 2368.101562 C 2463 2359.699219 2476.699219 2359.699219 2485.101562 2368.101562 C 2493.5 2376.5 2493.5 2390.199219 2485.101562 2398.601562 L 2258.601562 2625 C 2254.300781 2629.199219 2248.800781 2631.300781 2243.300781 2631.300781 Z M 2019.601562 2293.300781 C 2037.300781 2497.699219 2146.699219 2691.199219 2322.601562 2828.898438 C 2498.5 2691.199219 2607.898438 2497.699219 2625.601562 2293.398438 C 2512.601562 2277.199219 2408.5 2233.699219 2322.398438 2166.601562 C 2236.300781 2233.601562 2132.398438 2277.101562 2019.601562 2293.300781 Z M 2322.601562 2877.601562 C 2318 2877.601562 2313.5 2876.199219 2309.601562 2873.300781 C 2110.101562 2723 1988.199219 2505.199219 1975.101562 2275.800781 C 1974.398438 2264.398438 1982.800781 2254.398438 1994.199219 2253.199219 C 2112.699219 2239.800781 2221.398438 2194.601562 2308.601562 2122.5 C 2316.601562 2115.898438 2328.101562 2115.898438 2336.101562 2122.5 C 2423.398438 2194.699219 2532.300781 2239.898438 2651 2253.300781 C 2662.398438 2254.601562 2670.800781 2264.5 2670.101562 2275.898438 C 2657 2505.300781 2535.101562 2723.101562 2335.601562 2873.398438 C 2331.699219 2876.101562 2327.199219 2877.601562 2322.601562 2877.601562 Z M 2322.601562 2976.601562 C 2318.398438 2976.601562 2314.300781 2975.398438 2310.699219 2973 C 2184 2888.800781 2079 2778.300781 2007.101562 2653.699219 C 1931.5 2522.699219 1893.101562 2381.101562 1893.101562 2232.800781 C 1893.101562 2221.199219 1893.398438 2209.101562 1893.898438 2196.898438 C 1894.398438 2185.300781 1904.101562 2176.300781 1915.699219 2176.300781 L 1917.898438 2176.300781 C 1919.398438 2176.300781 1920.800781 2176.300781 1922.300781 2176.300781 C 2073.199219 2176.300781 2213.199219 2116.699219 2306.398438 2012.800781 C 2310.5 2008.199219 2316.300781 2005.601562 2322.398438 2005.601562 C 2328.5 2005.601562 2334.398438 2008.199219 2338.398438 2012.800781 C 2431.5 2116.699219 2571.5 2176.300781 2722.5 2176.300781 C 2724.199219 2176.300781 2725.898438 2176.300781 2727.699219 2176.199219 L 2729.601562 2176.199219 C 2741.199219 2176.101562 2750.898438 2185.199219 2751.398438 2196.800781 C 2751.898438 2209.101562 2752.199219 2221.199219 2752.199219 2232.699219 C 2752.199219 2380.898438 2713.898438 2522.601562 2638.199219 2653.601562 C 2566.199219 2778.300781 2461.300781 2888.699219 2334.601562 2972.898438 C 2330.898438 2975.398438 2326.699219 2976.601562 2322.601562 2976.601562 "/>
<path fill-rule="evenodd" fill="rgb(100%, 100%, 99.609375%)" fill-opacity="1" d="M 1142.398438 2345.898438 C 1130.5 2345.898438 1120.800781 2336.300781 1120.800781 2324.300781 L 1120.800781 2075.101562 C 1120.800781 2063.199219 1130.398438 2053.5 1142.398438 2053.5 C 1154.300781 2053.5 1164 2063.101562 1164 2075.101562 L 1164 2324.300781 C 1164 2336.300781 1154.300781 2345.898438 1142.398438 2345.898438 "/>
<path fill-rule="evenodd" fill="rgb(100%, 100%, 99.609375%)" fill-opacity="1" d="M 2215.601562 1725.398438 C 2203.699219 1725.398438 2194 1715.800781 2194 1703.800781 L 2194 1454.601562 C 2194 1442.699219 2203.601562 1433 2215.601562 1433 C 2227.601562 1433 2237.199219 1442.601562 2237.199219 1454.601562 L 2237.199219 1703.800781 C 2237.101562 1715.699219 2227.5 1725.398438 2215.601562 1725.398438 "/>
</svg>
