<?xml version="1.0" encoding="UTF-8"?>
<svg xmlns="http://www.w3.org/2000/svg" xmlns:xlink="http://www.w3.org/1999/xlink" width="3000" height="3000" viewBox="0 0 3000 3000">
<defs>
<clipPath id="clip-0">

</clipPath>
<clipPath id="clip-1">
<path clip-rule="nonzero" d="M 2694.890625 1568.339844 C 2694.890625 2194.421875 2187.359375 2701.960938 1561.28125 2701.960938 C 935.199219 2701.960938 427.660156 2194.421875 427.660156 1568.339844 C 427.660156 942.261719 935.199219 434.71875 1561.28125 434.71875 C 2187.359375 434.71875 2694.890625 942.261719 2694.890625 1568.339844 Z M 2694.890625 1568.339844 "/>
</clipPath>
<clipPath id="clip-2">
<path clip-rule="nonzero" d="M 2694.890625 1568.339844 C 2694.890625 2194.421875 2187.359375 2701.960938 1561.28125 2701.960938 C 935.199219 2701.960938 427.660156 2194.421875 427.660156 1568.339844 C 427.660156 942.261719 935.199219 434.71875 1561.28125 434.71875 C 2187.359375 434.71875 2694.890625 942.261719 2694.890625 1568.339844 "/>
</clipPath>
<linearGradient id="linear-pattern-0" gradientUnits="userSpaceOnUse" x1="0" y1="0" x2="1" y2="0" gradientTransform="matrix(2267.23, 0, 0, 2267.23, 427.66, 1568.34)">
<stop offset="0" stop-color="rgb(16.851807%, 22.549438%, 55.569458%)" stop-opacity="1"/>
<stop offset="0.25" stop-color="rgb(16.851807%, 22.549438%, 55.569458%)" stop-opacity="1"/>
<stop offset="0.257813" stop-color="rgb(16.853333%, 22.55249%, 55.59082%)" stop-opacity="1"/>
<stop offset="0.261719" stop-color="rgb(16.873169%, 22.58606%, 55.813599%)" stop-opacity="1"/>
<stop offset="0.265625" stop-color="rgb(16.889954%, 22.615051%, 56.015015%)" stop-opacity="1"/>
<stop offset="0.269531" stop-color="rgb(16.836548%, 22.744751%, 56.233215%)" stop-opacity="1"/>
<stop offset="0.273438" stop-color="rgb(16.781616%, 22.872925%, 56.451416%)" stop-opacity="1"/>
<stop offset="0.277344" stop-color="rgb(16.793823%, 23.008728%, 56.600952%)" stop-opacity="1"/>
<stop offset="0.28125" stop-color="rgb(16.807556%, 23.143005%, 56.750488%)" stop-opacity="1"/>
<stop offset="0.285156" stop-color="rgb(16.825867%, 23.278809%, 56.855774%)" stop-opacity="1"/>
<stop offset="0.289063" stop-color="rgb(16.845703%, 23.416138%, 56.959534%)" stop-opacity="1"/>
<stop offset="0.292969" stop-color="rgb(16.802979%, 23.564148%, 57.066345%)" stop-opacity="1"/>
<stop offset="0.296875" stop-color="rgb(16.758728%, 23.713684%, 57.173157%)" stop-opacity="1"/>
<stop offset="0.300781" stop-color="rgb(16.822815%, 23.843384%, 57.276917%)" stop-opacity="1"/>
<stop offset="0.304688" stop-color="rgb(16.885376%, 23.974609%, 57.380676%)" stop-opacity="1"/>
<stop offset="0.308594" stop-color="rgb(16.967773%, 24.134827%, 57.611084%)" stop-opacity="1"/>
<stop offset="0.3125" stop-color="rgb(17.051697%, 24.29657%, 57.843018%)" stop-opacity="1"/>
<stop offset="0.316406" stop-color="rgb(17.030334%, 24.501038%, 58.074951%)" stop-opacity="1"/>
<stop offset="0.320313" stop-color="rgb(17.010498%, 24.705505%, 58.308411%)" stop-opacity="1"/>
<stop offset="0.324219" stop-color="rgb(16.976929%, 24.89624%, 58.509827%)" stop-opacity="1"/>
<stop offset="0.328125" stop-color="rgb(16.941833%, 25.088501%, 58.711243%)" stop-opacity="1"/>
<stop offset="0.332031" stop-color="rgb(16.992188%, 25.213623%, 58.869934%)" stop-opacity="1"/>
<stop offset="0.335938" stop-color="rgb(17.042542%, 25.340271%, 59.030151%)" stop-opacity="1"/>
<stop offset="0.34375" stop-color="rgb(17.010498%, 25.413513%, 59.144592%)" stop-opacity="1"/>
<stop offset="0.347656" stop-color="rgb(17.024231%, 25.611877%, 59.472656%)" stop-opacity="1"/>
<stop offset="0.351563" stop-color="rgb(17.070007%, 25.735474%, 59.684753%)" stop-opacity="1"/>
<stop offset="0.355469" stop-color="rgb(17.070007%, 25.90332%, 59.971619%)" stop-opacity="1"/>
<stop offset="0.359375" stop-color="rgb(17.068481%, 26.071167%, 60.26001%)" stop-opacity="1"/>
<stop offset="0.363281" stop-color="rgb(17.06543%, 26.239014%, 60.572815%)" stop-opacity="1"/>
<stop offset="0.367188" stop-color="rgb(17.060852%, 26.408386%, 60.884094%)" stop-opacity="1"/>
<stop offset="0.371094" stop-color="rgb(17.103577%, 26.542664%, 61.164856%)" stop-opacity="1"/>
<stop offset="0.375" stop-color="rgb(17.144775%, 26.675415%, 61.444092%)" stop-opacity="1"/>
<stop offset="0.378906" stop-color="rgb(17.085266%, 26.829529%, 61.618042%)" stop-opacity="1"/>
<stop offset="0.382812" stop-color="rgb(17.025757%, 26.983643%, 61.791992%)" stop-opacity="1"/>
<stop offset="0.390625" stop-color="rgb(17.103577%, 27.056885%, 61.862183%)" stop-opacity="1"/>
<stop offset="0.394531" stop-color="rgb(17.25769%, 27.241516%, 62.019348%)" stop-opacity="1"/>
<stop offset="0.398438" stop-color="rgb(17.337036%, 27.352905%, 62.109375%)" stop-opacity="1"/>
<stop offset="0.402344" stop-color="rgb(17.359924%, 27.500916%, 62.219238%)" stop-opacity="1"/>
<stop offset="0.40625" stop-color="rgb(17.382812%, 27.6474%, 62.330627%)" stop-opacity="1"/>
<stop offset="0.410156" stop-color="rgb(17.344666%, 27.80304%, 62.442017%)" stop-opacity="1"/>
<stop offset="0.414062" stop-color="rgb(17.304993%, 27.958679%, 62.554932%)" stop-opacity="1"/>
<stop offset="0.417969" stop-color="rgb(17.375183%, 28.100586%, 62.664795%)" stop-opacity="1"/>
<stop offset="0.421875" stop-color="rgb(17.445374%, 28.244019%, 62.776184%)" stop-opacity="1"/>
<stop offset="0.425781" stop-color="rgb(17.407227%, 28.401184%, 62.887573%)" stop-opacity="1"/>
<stop offset="0.429688" stop-color="rgb(17.367554%, 28.556824%, 63.000488%)" stop-opacity="1"/>
<stop offset="0.433594" stop-color="rgb(17.410278%, 28.656006%, 63.075256%)" stop-opacity="1"/>
<stop offset="0.4375" stop-color="rgb(17.451477%, 28.755188%, 63.15155%)" stop-opacity="1"/>
<stop offset="0.441406" stop-color="rgb(17.489624%, 28.855896%, 63.253784%)" stop-opacity="1"/>
<stop offset="0.445312" stop-color="rgb(17.527771%, 28.956604%, 63.354492%)" stop-opacity="1"/>
<stop offset="0.449219" stop-color="rgb(17.488098%, 29.112244%, 63.523865%)" stop-opacity="1"/>
<stop offset="0.453125" stop-color="rgb(17.446899%, 29.266357%, 63.691711%)" stop-opacity="1"/>
<stop offset="0.457031" stop-color="rgb(17.518616%, 29.412842%, 63.803101%)" stop-opacity="1"/>
<stop offset="0.460938" stop-color="rgb(17.590332%, 29.559326%, 63.91449%)" stop-opacity="1"/>
<stop offset="0.464844" stop-color="rgb(17.660522%, 29.704285%, 64.083862%)" stop-opacity="1"/>
<stop offset="0.46875" stop-color="rgb(17.729187%, 29.850769%, 64.254761%)" stop-opacity="1"/>
<stop offset="0.472656" stop-color="rgb(17.718506%, 30.004883%, 64.433289%)" stop-opacity="1"/>
<stop offset="0.476562" stop-color="rgb(17.707825%, 30.157471%, 64.610291%)" stop-opacity="1"/>
<stop offset="0.480469" stop-color="rgb(17.712402%, 30.281067%, 64.743042%)" stop-opacity="1"/>
<stop offset="0.484375" stop-color="rgb(17.715454%, 30.404663%, 64.872742%)" stop-opacity="1"/>
<stop offset="0.492188" stop-color="rgb(17.816162%, 30.474854%, 64.929199%)" stop-opacity="1"/>
<stop offset="0.5" stop-color="rgb(18.016052%, 30.613708%, 65.042114%)" stop-opacity="1"/>
<stop offset="0.503906" stop-color="rgb(18.077087%, 30.833435%, 65.264893%)" stop-opacity="1"/>
<stop offset="0.507813" stop-color="rgb(18.03894%, 30.982971%, 65.431213%)" stop-opacity="1"/>
<stop offset="0.511719" stop-color="rgb(18.066406%, 31.138611%, 65.570068%)" stop-opacity="1"/>
<stop offset="0.515625" stop-color="rgb(18.093872%, 31.292725%, 65.707397%)" stop-opacity="1"/>
<stop offset="0.519531" stop-color="rgb(18.16864%, 31.445312%, 65.820312%)" stop-opacity="1"/>
<stop offset="0.523438" stop-color="rgb(18.244934%, 31.5979%, 65.934753%)" stop-opacity="1"/>
<stop offset="0.527344" stop-color="rgb(18.301392%, 31.752014%, 66.047668%)" stop-opacity="1"/>
<stop offset="0.53125" stop-color="rgb(18.359375%, 31.907654%, 66.162109%)" stop-opacity="1"/>
<stop offset="0.535156" stop-color="rgb(18.307495%, 32.069397%, 66.27655%)" stop-opacity="1"/>
<stop offset="0.539063" stop-color="rgb(18.255615%, 32.232666%, 66.390991%)" stop-opacity="1"/>
<stop offset="0.546875" stop-color="rgb(18.341064%, 32.316589%, 66.455078%)" stop-opacity="1"/>
<stop offset="0.550781" stop-color="rgb(18.511963%, 32.525635%, 66.610718%)" stop-opacity="1"/>
<stop offset="0.554688" stop-color="rgb(18.598938%, 32.652283%, 66.705322%)" stop-opacity="1"/>
<stop offset="0.558594" stop-color="rgb(18.624878%, 32.810974%, 66.819763%)" stop-opacity="1"/>
<stop offset="0.5625" stop-color="rgb(18.650818%, 32.971191%, 66.934204%)" stop-opacity="1"/>
<stop offset="0.566406" stop-color="rgb(18.623352%, 33.122253%, 67.03949%)" stop-opacity="1"/>
<stop offset="0.570313" stop-color="rgb(18.59436%, 33.27179%, 67.146301%)" stop-opacity="1"/>
<stop offset="0.578125" stop-color="rgb(18.69812%, 33.348083%, 67.202759%)" stop-opacity="1"/>
<stop offset="0.582031" stop-color="rgb(18.762207%, 33.578491%, 67.433167%)" stop-opacity="1"/>
<stop offset="0.585938" stop-color="rgb(18.72406%, 33.732605%, 67.605591%)" stop-opacity="1"/>
<stop offset="0.589844" stop-color="rgb(18.756104%, 33.894348%, 67.744446%)" stop-opacity="1"/>
<stop offset="0.59375" stop-color="rgb(18.788147%, 34.054565%, 67.883301%)" stop-opacity="1"/>
<stop offset="0.597656" stop-color="rgb(18.867493%, 34.214783%, 67.999268%)" stop-opacity="1"/>
<stop offset="0.601563" stop-color="rgb(18.946838%, 34.375%, 68.113708%)" stop-opacity="1"/>
<stop offset="0.605469" stop-color="rgb(19.030762%, 34.52301%, 68.22052%)" stop-opacity="1"/>
<stop offset="0.609375" stop-color="rgb(19.113159%, 34.671021%, 68.325806%)" stop-opacity="1"/>
<stop offset="0.617188" stop-color="rgb(19.218445%, 34.750366%, 68.383789%)" stop-opacity="1"/>
<stop offset="0.621094" stop-color="rgb(19.406128%, 34.985352%, 68.553162%)" stop-opacity="1"/>
<stop offset="0.625" stop-color="rgb(19.488525%, 35.139465%, 68.663025%)" stop-opacity="1"/>
<stop offset="0.628906" stop-color="rgb(19.482422%, 35.30426%, 68.82782%)" stop-opacity="1"/>
<stop offset="0.632813" stop-color="rgb(19.474792%, 35.470581%, 68.991089%)" stop-opacity="1"/>
<stop offset="0.636719" stop-color="rgb(19.476318%, 35.635376%, 69.148254%)" stop-opacity="1"/>
<stop offset="0.640625" stop-color="rgb(19.477844%, 35.801697%, 69.306946%)" stop-opacity="1"/>
<stop offset="0.644531" stop-color="rgb(19.564819%, 35.952759%, 69.413757%)" stop-opacity="1"/>
<stop offset="0.648438" stop-color="rgb(19.650269%, 36.103821%, 69.520569%)" stop-opacity="1"/>
<stop offset="0.65625" stop-color="rgb(19.75708%, 36.186218%, 69.580078%)" stop-opacity="1"/>
<stop offset="0.660156" stop-color="rgb(19.947815%, 36.428833%, 69.750977%)" stop-opacity="1"/>
<stop offset="0.664063" stop-color="rgb(20.031738%, 36.58905%, 69.862366%)" stop-opacity="1"/>
<stop offset="0.667969" stop-color="rgb(20.115662%, 36.756897%, 69.979858%)" stop-opacity="1"/>
<stop offset="0.671875" stop-color="rgb(20.198059%, 36.924744%, 70.095825%)" stop-opacity="1"/>
<stop offset="0.675781" stop-color="rgb(20.227051%, 37.094116%, 70.213318%)" stop-opacity="1"/>
<stop offset="0.679688" stop-color="rgb(20.254517%, 37.263489%, 70.330811%)" stop-opacity="1"/>
<stop offset="0.683594" stop-color="rgb(20.23468%, 37.419128%, 70.437622%)" stop-opacity="1"/>
<stop offset="0.6875" stop-color="rgb(20.211792%, 37.573242%, 70.544434%)" stop-opacity="1"/>
<stop offset="0.695313" stop-color="rgb(20.320129%, 37.658691%, 70.602417%)" stop-opacity="1"/>
<stop offset="0.699219" stop-color="rgb(20.391846%, 37.908936%, 70.774841%)" stop-opacity="1"/>
<stop offset="0.703125" stop-color="rgb(20.35675%, 38.072205%, 70.88623%)" stop-opacity="1"/>
<stop offset="0.707031" stop-color="rgb(20.307922%, 38.241577%, 71.002197%)" stop-opacity="1"/>
<stop offset="0.710938" stop-color="rgb(20.26062%, 38.412476%, 71.11969%)" stop-opacity="1"/>
<stop offset="0.714844" stop-color="rgb(20.26825%, 38.583374%, 71.2677%)" stop-opacity="1"/>
<stop offset="0.71875" stop-color="rgb(20.274353%, 38.752747%, 71.417236%)" stop-opacity="1"/>
<stop offset="0.722656" stop-color="rgb(20.358276%, 38.925171%, 71.59729%)" stop-opacity="1"/>
<stop offset="0.726563" stop-color="rgb(20.440674%, 39.097595%, 71.777344%)" stop-opacity="1"/>
<stop offset="0.730469" stop-color="rgb(20.527649%, 39.271545%, 71.896362%)" stop-opacity="1"/>
<stop offset="0.734375" stop-color="rgb(20.613098%, 39.447021%, 72.015381%)" stop-opacity="1"/>
<stop offset="0.742188" stop-color="rgb(20.721436%, 39.541626%, 72.079468%)" stop-opacity="1"/>
<stop offset="0.746094" stop-color="rgb(20.832825%, 39.782715%, 72.242737%)" stop-opacity="1"/>
<stop offset="0.75" stop-color="rgb(20.835876%, 39.927673%, 72.340393%)" stop-opacity="1"/>
<stop offset="0.753906" stop-color="rgb(20.846558%, 40.101624%, 72.459412%)" stop-opacity="1"/>
<stop offset="0.757812" stop-color="rgb(20.857239%, 40.275574%, 72.576904%)" stop-opacity="1"/>
<stop offset="0.761719" stop-color="rgb(20.948792%, 40.437317%, 72.685242%)" stop-opacity="1"/>
<stop offset="0.765625" stop-color="rgb(21.040344%, 40.59906%, 72.793579%)" stop-opacity="1"/>
<stop offset="0.773438" stop-color="rgb(21.151733%, 40.690613%, 72.854614%)" stop-opacity="1"/>
<stop offset="0.777344" stop-color="rgb(21.224976%, 40.948486%, 73.100281%)" stop-opacity="1"/>
<stop offset="0.78125" stop-color="rgb(21.186829%, 41.116333%, 73.287964%)" stop-opacity="1"/>
<stop offset="0.785156" stop-color="rgb(21.231079%, 41.293335%, 73.431396%)" stop-opacity="1"/>
<stop offset="0.789062" stop-color="rgb(21.276855%, 41.471863%, 73.574829%)" stop-opacity="1"/>
<stop offset="0.792969" stop-color="rgb(21.318054%, 41.610718%, 73.667908%)" stop-opacity="1"/>
<stop offset="0.796875" stop-color="rgb(21.357727%, 41.751099%, 73.762512%)" stop-opacity="1"/>
<stop offset="0.804688" stop-color="rgb(21.356201%, 41.854858%, 73.832703%)" stop-opacity="1"/>
<stop offset="0.808594" stop-color="rgb(21.443176%, 42.141724%, 74.021912%)" stop-opacity="1"/>
<stop offset="0.8125" stop-color="rgb(21.531677%, 42.323303%, 74.142456%)" stop-opacity="1"/>
<stop offset="0.816406" stop-color="rgb(21.621704%, 42.504883%, 74.263%)" stop-opacity="1"/>
<stop offset="0.820312" stop-color="rgb(21.713257%, 42.686462%, 74.383545%)" stop-opacity="1"/>
<stop offset="0.824219" stop-color="rgb(21.710205%, 42.86499%, 74.502563%)" stop-opacity="1"/>
<stop offset="0.828125" stop-color="rgb(21.707153%, 43.043518%, 74.621582%)" stop-opacity="1"/>
<stop offset="0.832031" stop-color="rgb(21.720886%, 43.222046%, 74.740601%)" stop-opacity="1"/>
<stop offset="0.835938" stop-color="rgb(21.734619%, 43.4021%, 74.859619%)" stop-opacity="1"/>
<stop offset="0.839844" stop-color="rgb(21.80481%, 43.566895%, 74.969482%)" stop-opacity="1"/>
<stop offset="0.84375" stop-color="rgb(21.875%, 43.733215%, 75.07782%)" stop-opacity="1"/>
<stop offset="0.851562" stop-color="rgb(21.852112%, 43.821716%, 75.137329%)" stop-opacity="1"/>
<stop offset="0.855469" stop-color="rgb(21.911621%, 44.090271%, 75.390625%)" stop-opacity="1"/>
<stop offset="0.859375" stop-color="rgb(21.995544%, 44.270325%, 75.584412%)" stop-opacity="1"/>
<stop offset="0.863281" stop-color="rgb(22.087097%, 44.456482%, 75.730896%)" stop-opacity="1"/>
<stop offset="0.867188" stop-color="rgb(22.17865%, 44.644165%, 75.87738%)" stop-opacity="1"/>
<stop offset="0.875" stop-color="rgb(22.23053%, 44.747925%, 75.944519%)" stop-opacity="1"/>
<stop offset="1" stop-color="rgb(22.28241%, 44.851685%, 76.011658%)" stop-opacity="1"/>
</linearGradient>
</defs>
<g clip-path="url(#clip-0)">
<g clip-path="url(#clip-1)">
<g clip-path="url(#clip-2)">
<path fill-rule="nonzero" fill="url(#linear-pattern-0)" d="M 427.660156 434.71875 L 427.660156 2701.960938 L 2694.890625 2701.960938 L 2694.890625 434.71875 Z M 427.660156 434.71875 "/>
</g>
</g>
</g>
<path fill-rule="nonzero" fill="rgb(100%, 100%, 100%)" fill-opacity="1" d="M 1845.539062 937.089844 C 1798.550781 952.179688 1761.261719 949.851562 1725.308594 929.078125 C 1704.609375 917.109375 1683.148438 919.730469 1662.960938 931.46875 C 1638.878906 945.460938 1613.078125 949.71875 1585.828125 946.351562 C 1575.460938 945.070312 1565.21875 942.660156 1549.261719 939.71875 C 1569.441406 1010.289062 1588.480469 1076.859375 1606.640625 1140.398438 C 1669.601562 1140.398438 1727.238281 1140.398438 1787.53125 1140.398438 C 1806.019531 1075.601562 1824.808594 1009.730469 1845.539062 937.089844 Z M 835.433594 1178.351562 C 835.433594 1282.898438 835.445312 1383.800781 835.429688 1484.699219 C 835.417969 1550.871094 853.484375 1611.859375 888.550781 1667.761719 C 950.832031 1767.03125 1042.160156 1831.539062 1145.179688 1882.339844 C 1158.699219 1889 1168.558594 1883.929688 1179.320312 1878.730469 C 1249.949219 1844.640625 1314.398438 1801.488281 1369.078125 1744.96875 C 1430.71875 1681.25 1476.140625 1607.628906 1479.699219 1517.171875 C 1483.890625 1410.339844 1481.261719 1303.25 1482.238281 1196.289062 C 1482.371094 1181.738281 1476.058594 1173.421875 1464.191406 1167.789062 C 1432.390625 1152.710938 1401.269531 1135.800781 1368.511719 1123.199219 C 1182.570312 1051.671875 1006.511719 1078.691406 835.433594 1178.351562 Z M 1537.261719 1231.300781 C 1536.71875 1237.171875 1535.898438 1241.949219 1535.890625 1246.730469 C 1535.730469 1325.789062 1535.699219 1404.851562 1535.570312 1483.910156 C 1535.5 1529.308594 1528.148438 1573.519531 1512.859375 1616.261719 C 1480.289062 1707.289062 1421.460938 1778.921875 1345.601562 1836.808594 C 1326 1851.761719 1315.839844 1867.378906 1318.921875 1891.769531 C 1319.980469 1900.148438 1318.378906 1908.851562 1319.199219 1917.28125 C 1323.640625 1962.789062 1317.761719 2004.699219 1279.671875 2036.019531 C 1277.839844 2037.519531 1276.511719 2039.71875 1275.171875 2041.738281 C 1261.859375 2061.851562 1263.089844 2079.25 1283.980469 2091.308594 C 1298.988281 2099.960938 1318.039062 2105.648438 1335.320312 2105.710938 C 1576.148438 2106.621094 1816.988281 2106.511719 2057.820312 2105.921875 C 2073.148438 2105.878906 2089.699219 2102.511719 2103.53125 2096.070312 C 2129.351562 2084.058594 2133.371094 2063 2116.769531 2039.828125 C 2110.421875 2030.96875 2103.28125 2022.601562 2095.910156 2014.550781 C 2081.269531 1998.601562 2073.289062 1980.53125 2074.570312 1958.410156 C 2075.421875 1943.859375 2074.988281 1929.230469 2074.800781 1914.628906 C 2073.371094 1810.101562 2075.28125 1705.371094 2069.359375 1601.078125 C 2063.828125 1503.730469 2032.199219 1413.25 1974.691406 1332.960938 C 1862.539062 1176.398438 1665.429688 1158 1537.261719 1231.300781 Z M 1262.859375 1896.351562 C 1238.640625 1908.359375 1214.589844 1919.671875 1191.140625 1932.121094 C 1170.359375 1943.148438 1151.308594 1944.019531 1129.039062 1933.46875 C 1033.289062 1888.128906 947.351562 1830 879.703125 1747.421875 C 815.773438 1669.378906 781.832031 1580.648438 783.261719 1478.601562 C 784.621094 1381.238281 784.492188 1283.839844 783.140625 1186.488281 C 782.761719 1158.921875 791.074219 1142.140625 815.710938 1128.019531 C 918.976562 1068.828125 1029.101562 1032.050781 1148.148438 1030 C 1280.441406 1027.710938 1402.300781 1067.179688 1514.46875 1136.511719 C 1525.25 1143.171875 1532.800781 1155.050781 1542.871094 1165.570312 C 1558.53125 1164.199219 1554.5 1152.640625 1551.480469 1141.878906 C 1538.320312 1095.058594 1525.019531 1048.28125 1511.78125 1001.488281 C 1503.171875 971.078125 1495.320312 940.429688 1485.75 910.328125 C 1475.898438 879.359375 1498.660156 862.359375 1525.46875 869.351562 C 1539.46875 873 1553.910156 877.058594 1566.351562 884.109375 C 1589.75 897.378906 1612.449219 898.808594 1635.578125 885.539062 C 1676.050781 862.328125 1716.339844 861.921875 1756.878906 885.011719 C 1780 898.160156 1802.679688 897.78125 1826.289062 885.050781 C 1838.929688 878.230469 1852.921875 872.71875 1866.96875 869.890625 C 1900.621094 863.109375 1916.351562 879.539062 1907.488281 912.769531 C 1894.351562 962.078125 1879.371094 1010.910156 1865.378906 1060 C 1856.109375 1092.570312 1847.210938 1125.230469 1838.578125 1156.28125 C 1841.949219 1160.328125 1843.089844 1163.011719 1845.039062 1163.851562 C 1974.808594 1220.128906 2050.800781 1322.589844 2093.488281 1453.449219 C 2116.691406 1524.589844 2126.910156 1597.878906 2127.128906 1672.558594 C 2127.398438 1761.410156 2127.699219 1850.269531 2126.808594 1939.109375 C 2126.601562 1959.960938 2131.148438 1977.21875 2146.519531 1991.339844 C 2148.300781 1992.96875 2149.828125 1994.898438 2151.46875 1996.691406 C 2211.199219 2061.960938 2171.480469 2142.019531 2090.191406 2156.371094 C 2078.320312 2158.460938 2065.941406 2158.109375 2053.800781 2158.121094 C 1815.238281 2158.25 1576.671875 2158.140625 1338.109375 2158.511719 C 1310.761719 2158.550781 1284.878906 2154.898438 1260.941406 2140.871094 C 1212.96875 2112.761719 1200 2058.359375 1230.570312 2012.320312 C 1233.261719 2008.269531 1236.25 2004.410156 1239.289062 2000.621094 C 1271.230469 1960.640625 1272.679688 1954.460938 1262.859375 1896.351562 "/>
<path fill-rule="nonzero" fill="rgb(100%, 100%, 100%)" fill-opacity="1" d="M 1669.800781 1450.679688 C 1669.800781 1438.910156 1668.988281 1424.390625 1670.011719 1410.011719 C 1671.289062 1391.96875 1681.78125 1380.871094 1696.121094 1380.210938 C 1710.570312 1379.539062 1720.960938 1389.839844 1723.480469 1408.488281 C 1724.609375 1416.890625 1723.960938 1425.511719 1724.390625 1434.011719 C 1724.738281 1441.121094 1725.488281 1448.21875 1726.171875 1456.558594 C 1737.519531 1459.820312 1748.078125 1462.109375 1758.109375 1465.851562 C 1796.351562 1480.109375 1820.71875 1506.800781 1828.261719 1547.410156 C 1829.78125 1555.601562 1831.699219 1565.890625 1828.160156 1572.308594 C 1823.511719 1580.738281 1813.960938 1591.199219 1805.929688 1591.730469 C 1797.730469 1592.261719 1787.359375 1583.128906 1780.738281 1575.71875 C 1776.621094 1571.121094 1778.359375 1561.671875 1776.308594 1554.738281 C 1769.121094 1530.449219 1751.570312 1515.601562 1726.128906 1514.019531 C 1706.738281 1512.820312 1687.128906 1512.671875 1667.769531 1514.089844 C 1637.820312 1516.289062 1617.101562 1538.019531 1616.398438 1565.710938 C 1615.699219 1593.5 1634.640625 1615.429688 1664.769531 1619.878906 C 1677.890625 1621.820312 1691.488281 1620.308594 1704.710938 1621.78125 C 1725.050781 1624.050781 1746.511719 1624.148438 1765.25 1631.171875 C 1809.398438 1647.71875 1832.191406 1686.960938 1829.898438 1734.839844 C 1827.738281 1779.941406 1800.898438 1815.179688 1757.359375 1829.710938 C 1748.179688 1832.78125 1738.75 1835.101562 1725.070312 1839.019531 C 1724.691406 1853.21875 1724.699219 1868.628906 1723.761719 1883.988281 C 1722.558594 1903.738281 1711.300781 1916.359375 1696.269531 1915.878906 C 1682.761719 1915.460938 1672.390625 1904.21875 1670.78125 1885.558594 C 1669.53125 1871.160156 1670.53125 1856.570312 1670.53125 1840.421875 C 1657.460938 1836.378906 1646.101562 1833.191406 1634.960938 1829.359375 C 1592.429688 1814.730469 1563.398438 1774.429688 1564.140625 1732.910156 C 1564.421875 1717.210938 1570.46875 1706.378906 1586 1704.28125 C 1601.230469 1702.230469 1612.980469 1710.019531 1614.929688 1725.519531 C 1618.070312 1750.441406 1627.199219 1771.890625 1652.339844 1778.578125 C 1685.441406 1787.390625 1719.988281 1790.230469 1751.960938 1773.789062 C 1772.070312 1763.460938 1781.410156 1738.691406 1776.800781 1717.449219 C 1771.960938 1695.128906 1752.449219 1677.371094 1727.628906 1675.410156 C 1707.058594 1673.789062 1686.210938 1675.71875 1665.628906 1674.140625 C 1618.710938 1670.550781 1583.988281 1646.738281 1569.199219 1602.390625 C 1555.191406 1560.378906 1562.371094 1518.730469 1598 1489.25 C 1616.949219 1473.558594 1642 1465.21875 1669.800781 1450.679688 "/>
<path fill-rule="nonzero" fill="rgb(100%, 100%, 100%)" fill-opacity="1" d="M 1103.789062 1556.550781 C 1116.078125 1545.050781 1125.019531 1537.109375 1133.480469 1528.679688 C 1184.300781 1478.019531 1234.988281 1427.238281 1285.769531 1376.550781 C 1291.789062 1370.539062 1297.449219 1363.921875 1304.359375 1359.140625 C 1316.929688 1350.429688 1331.871094 1352.410156 1340.371094 1363.339844 C 1349.058594 1374.53125 1348.148438 1385.820312 1338.800781 1396.351562 C 1333.960938 1401.808594 1329 1407.179688 1323.839844 1412.328125 C 1261.019531 1475.058594 1198.238281 1537.828125 1135.238281 1600.378906 C 1109.53125 1625.921875 1100.621094 1626.089844 1075.070312 1600.960938 C 1044.730469 1571.109375 1014.769531 1540.871094 985.074219 1510.371094 C 969.605469 1494.480469 968.121094 1480.71875 979.140625 1469.558594 C 990.007812 1458.539062 1006.601562 1459.191406 1021.03125 1473.230469 C 1047.988281 1499.429688 1074.078125 1526.53125 1103.789062 1556.550781 "/>
</svg>
