<?xml version="1.0" encoding="UTF-8"?>
<svg xmlns="http://www.w3.org/2000/svg" xmlns:xlink="http://www.w3.org/1999/xlink" width="3873" height="3873" viewBox="0 0 3873 3873">
<defs>
<clipPath id="clip-0">
<path clip-rule="evenodd" d="M 1936.5 0 C 3006 0 3873 867 3873 1936.5 C 3873 3006 3006 3873 1936.5 3873 C 867 3873 0 3006 0 1936.5 C 0 867 867 0 1936.5 0 "/>
</clipPath>
<linearGradient id="linear-pattern-0" gradientUnits="userSpaceOnUse" x1="-0.500003" y1="0" x2="1.500004" y2="0" gradientTransform="matrix(2072.1, -1778.5, 1778.5, 2072.1, 900.448, 2825.75)">
<stop offset="0" stop-color="rgb(95.684814%, 2.745056%, 40.783691%)" stop-opacity="1"/>
<stop offset="0.25" stop-color="rgb(95.684814%, 2.745056%, 40.783691%)" stop-opacity="1"/>
<stop offset="0.253906" stop-color="rgb(94.86084%, 3.483582%, 41.343689%)" stop-opacity="1"/>
<stop offset="0.257812" stop-color="rgb(94.038391%, 4.222107%, 41.905212%)" stop-opacity="1"/>
<stop offset="0.261719" stop-color="rgb(93.214417%, 4.960632%, 42.466736%)" stop-opacity="1"/>
<stop offset="0.265625" stop-color="rgb(92.390442%, 5.699158%, 43.028259%)" stop-opacity="1"/>
<stop offset="0.269531" stop-color="rgb(91.566467%, 6.437683%, 43.588257%)" stop-opacity="1"/>
<stop offset="0.273438" stop-color="rgb(90.742493%, 7.176208%, 44.14978%)" stop-opacity="1"/>
<stop offset="0.277344" stop-color="rgb(89.918518%, 7.914734%, 44.709778%)" stop-opacity="1"/>
<stop offset="0.28125" stop-color="rgb(89.094543%, 8.653259%, 45.271301%)" stop-opacity="1"/>
<stop offset="0.285156" stop-color="rgb(88.270569%, 9.391785%, 45.832825%)" stop-opacity="1"/>
<stop offset="0.289062" stop-color="rgb(87.44812%, 10.13031%, 46.394348%)" stop-opacity="1"/>
<stop offset="0.292969" stop-color="rgb(86.624146%, 10.868835%, 46.954346%)" stop-opacity="1"/>
<stop offset="0.296875" stop-color="rgb(85.800171%, 11.607361%, 47.515869%)" stop-opacity="1"/>
<stop offset="0.300781" stop-color="rgb(84.976196%, 12.345886%, 48.075867%)" stop-opacity="1"/>
<stop offset="0.304688" stop-color="rgb(84.152222%, 13.084412%, 48.63739%)" stop-opacity="1"/>
<stop offset="0.308594" stop-color="rgb(83.328247%, 13.822937%, 49.198914%)" stop-opacity="1"/>
<stop offset="0.3125" stop-color="rgb(82.504272%, 14.561462%, 49.760437%)" stop-opacity="1"/>
<stop offset="0.316406" stop-color="rgb(81.680298%, 15.299988%, 50.320435%)" stop-opacity="1"/>
<stop offset="0.320312" stop-color="rgb(80.856323%, 16.038513%, 50.881958%)" stop-opacity="1"/>
<stop offset="0.324219" stop-color="rgb(80.032349%, 16.777039%, 51.443481%)" stop-opacity="1"/>
<stop offset="0.328125" stop-color="rgb(79.2099%, 17.515564%, 52.005005%)" stop-opacity="1"/>
<stop offset="0.332031" stop-color="rgb(78.385925%, 18.254089%, 52.565002%)" stop-opacity="1"/>
<stop offset="0.335938" stop-color="rgb(77.561951%, 18.992615%, 53.126526%)" stop-opacity="1"/>
<stop offset="0.339844" stop-color="rgb(76.737976%, 19.73114%, 53.686523%)" stop-opacity="1"/>
<stop offset="0.34375" stop-color="rgb(75.914001%, 20.469666%, 54.248047%)" stop-opacity="1"/>
<stop offset="0.347656" stop-color="rgb(75.090027%, 21.208191%, 54.80957%)" stop-opacity="1"/>
<stop offset="0.351562" stop-color="rgb(74.266052%, 21.948242%, 55.371094%)" stop-opacity="1"/>
<stop offset="0.355469" stop-color="rgb(73.442078%, 22.686768%, 55.931091%)" stop-opacity="1"/>
<stop offset="0.359375" stop-color="rgb(72.619629%, 23.425293%, 56.492615%)" stop-opacity="1"/>
<stop offset="0.363281" stop-color="rgb(71.795654%, 24.163818%, 57.052612%)" stop-opacity="1"/>
<stop offset="0.367188" stop-color="rgb(70.97168%, 24.902344%, 57.614136%)" stop-opacity="1"/>
<stop offset="0.371094" stop-color="rgb(70.147705%, 25.640869%, 58.175659%)" stop-opacity="1"/>
<stop offset="0.375" stop-color="rgb(69.32373%, 26.379395%, 58.737183%)" stop-opacity="1"/>
<stop offset="0.378906" stop-color="rgb(68.499756%, 27.11792%, 59.29718%)" stop-opacity="1"/>
<stop offset="0.382812" stop-color="rgb(67.675781%, 27.856445%, 59.858704%)" stop-opacity="1"/>
<stop offset="0.386719" stop-color="rgb(66.851807%, 28.594971%, 60.420227%)" stop-opacity="1"/>
<stop offset="0.390625" stop-color="rgb(66.027832%, 29.333496%, 60.98175%)" stop-opacity="1"/>
<stop offset="0.394531" stop-color="rgb(65.203857%, 30.072021%, 61.541748%)" stop-opacity="1"/>
<stop offset="0.398438" stop-color="rgb(64.381409%, 30.810547%, 62.103271%)" stop-opacity="1"/>
<stop offset="0.402344" stop-color="rgb(63.557434%, 31.549072%, 62.663269%)" stop-opacity="1"/>
<stop offset="0.40625" stop-color="rgb(62.733459%, 32.287598%, 63.224792%)" stop-opacity="1"/>
<stop offset="0.410156" stop-color="rgb(61.909485%, 33.026123%, 63.786316%)" stop-opacity="1"/>
<stop offset="0.414062" stop-color="rgb(61.08551%, 33.764648%, 64.347839%)" stop-opacity="1"/>
<stop offset="0.417969" stop-color="rgb(60.261536%, 34.503174%, 64.907837%)" stop-opacity="1"/>
<stop offset="0.421875" stop-color="rgb(59.437561%, 35.241699%, 65.46936%)" stop-opacity="1"/>
<stop offset="0.425781" stop-color="rgb(58.613586%, 35.980225%, 66.029358%)" stop-opacity="1"/>
<stop offset="0.429688" stop-color="rgb(57.789612%, 36.71875%, 66.590881%)" stop-opacity="1"/>
<stop offset="0.433594" stop-color="rgb(56.965637%, 37.457275%, 67.152405%)" stop-opacity="1"/>
<stop offset="0.4375" stop-color="rgb(56.143188%, 38.197327%, 67.713928%)" stop-opacity="1"/>
<stop offset="0.441406" stop-color="rgb(55.319214%, 38.935852%, 68.273926%)" stop-opacity="1"/>
<stop offset="0.445312" stop-color="rgb(54.495239%, 39.674377%, 68.835449%)" stop-opacity="1"/>
<stop offset="0.449219" stop-color="rgb(53.671265%, 40.412903%, 69.396973%)" stop-opacity="1"/>
<stop offset="0.453125" stop-color="rgb(52.84729%, 41.151428%, 69.958496%)" stop-opacity="1"/>
<stop offset="0.457031" stop-color="rgb(52.023315%, 41.889954%, 70.518494%)" stop-opacity="1"/>
<stop offset="0.460938" stop-color="rgb(51.199341%, 42.628479%, 71.080017%)" stop-opacity="1"/>
<stop offset="0.464844" stop-color="rgb(50.505066%, 43.251038%, 71.556091%)" stop-opacity="1"/>
<stop offset="0.46875" stop-color="rgb(49.812317%, 43.873596%, 72.033691%)" stop-opacity="1"/>
<stop offset="0.472656" stop-color="rgb(49.320984%, 44.314575%, 72.37854%)" stop-opacity="1"/>
<stop offset="0.476562" stop-color="rgb(48.831177%, 44.75708%, 72.723389%)" stop-opacity="1"/>
<stop offset="0.480469" stop-color="rgb(48.34137%, 45.198059%, 73.068237%)" stop-opacity="1"/>
<stop offset="0.484375" stop-color="rgb(47.851562%, 45.640564%, 73.413086%)" stop-opacity="1"/>
<stop offset="0.488281" stop-color="rgb(47.360229%, 46.081543%, 73.757935%)" stop-opacity="1"/>
<stop offset="0.492188" stop-color="rgb(46.870422%, 46.524048%, 74.102783%)" stop-opacity="1"/>
<stop offset="0.496094" stop-color="rgb(46.379089%, 46.966553%, 74.447632%)" stop-opacity="1"/>
<stop offset="0.5" stop-color="rgb(45.889282%, 47.409058%, 74.79248%)" stop-opacity="1"/>
<stop offset="0.503906" stop-color="rgb(45.399475%, 47.850037%, 75.137329%)" stop-opacity="1"/>
<stop offset="0.507812" stop-color="rgb(44.909668%, 48.292542%, 75.482178%)" stop-opacity="1"/>
<stop offset="0.511719" stop-color="rgb(44.418335%, 48.733521%, 75.827026%)" stop-opacity="1"/>
<stop offset="0.515625" stop-color="rgb(43.928528%, 49.176025%, 76.171875%)" stop-opacity="1"/>
<stop offset="0.519531" stop-color="rgb(43.437195%, 49.617004%, 76.516724%)" stop-opacity="1"/>
<stop offset="0.523438" stop-color="rgb(42.947388%, 50.059509%, 76.861572%)" stop-opacity="1"/>
<stop offset="0.527344" stop-color="rgb(42.457581%, 50.500488%, 77.206421%)" stop-opacity="1"/>
<stop offset="0.53125" stop-color="rgb(41.967773%, 50.942993%, 77.55127%)" stop-opacity="1"/>
<stop offset="0.535156" stop-color="rgb(41.47644%, 51.383972%, 77.896118%)" stop-opacity="1"/>
<stop offset="0.539062" stop-color="rgb(40.986633%, 51.826477%, 78.240967%)" stop-opacity="1"/>
<stop offset="0.542969" stop-color="rgb(40.4953%, 52.267456%, 78.585815%)" stop-opacity="1"/>
<stop offset="0.546875" stop-color="rgb(40.005493%, 52.709961%, 78.930664%)" stop-opacity="1"/>
<stop offset="0.550781" stop-color="rgb(39.515686%, 53.15094%, 79.275513%)" stop-opacity="1"/>
<stop offset="0.554688" stop-color="rgb(39.025879%, 53.593445%, 79.620361%)" stop-opacity="1"/>
<stop offset="0.558594" stop-color="rgb(38.534546%, 54.034424%, 79.96521%)" stop-opacity="1"/>
<stop offset="0.5625" stop-color="rgb(38.044739%, 54.476929%, 80.310059%)" stop-opacity="1"/>
<stop offset="0.566406" stop-color="rgb(37.553406%, 54.919434%, 80.654907%)" stop-opacity="1"/>
<stop offset="0.570312" stop-color="rgb(37.063599%, 55.361938%, 80.999756%)" stop-opacity="1"/>
<stop offset="0.574219" stop-color="rgb(36.573792%, 55.802917%, 81.344604%)" stop-opacity="1"/>
<stop offset="0.578125" stop-color="rgb(36.083984%, 56.245422%, 81.689453%)" stop-opacity="1"/>
<stop offset="0.582031" stop-color="rgb(35.592651%, 56.686401%, 82.034302%)" stop-opacity="1"/>
<stop offset="0.585938" stop-color="rgb(35.102844%, 57.128906%, 82.37915%)" stop-opacity="1"/>
<stop offset="0.589844" stop-color="rgb(34.611511%, 57.569885%, 82.723999%)" stop-opacity="1"/>
<stop offset="0.59375" stop-color="rgb(34.121704%, 58.01239%, 83.068848%)" stop-opacity="1"/>
<stop offset="0.597656" stop-color="rgb(33.631897%, 58.453369%, 83.413696%)" stop-opacity="1"/>
<stop offset="0.601562" stop-color="rgb(33.14209%, 58.895874%, 83.758545%)" stop-opacity="1"/>
<stop offset="0.605469" stop-color="rgb(32.650757%, 59.336853%, 84.103394%)" stop-opacity="1"/>
<stop offset="0.609375" stop-color="rgb(32.16095%, 59.779358%, 84.448242%)" stop-opacity="1"/>
<stop offset="0.613281" stop-color="rgb(31.669617%, 60.220337%, 84.793091%)" stop-opacity="1"/>
<stop offset="0.617188" stop-color="rgb(31.17981%, 60.662842%, 85.137939%)" stop-opacity="1"/>
<stop offset="0.621094" stop-color="rgb(30.688477%, 61.103821%, 85.482788%)" stop-opacity="1"/>
<stop offset="0.625" stop-color="rgb(30.198669%, 61.546326%, 85.827637%)" stop-opacity="1"/>
<stop offset="0.628906" stop-color="rgb(29.708862%, 61.988831%, 86.172485%)" stop-opacity="1"/>
<stop offset="0.632812" stop-color="rgb(29.219055%, 62.431335%, 86.517334%)" stop-opacity="1"/>
<stop offset="0.636719" stop-color="rgb(28.727722%, 62.872314%, 86.862183%)" stop-opacity="1"/>
<stop offset="0.640625" stop-color="rgb(28.237915%, 63.314819%, 87.207031%)" stop-opacity="1"/>
<stop offset="0.644531" stop-color="rgb(27.746582%, 63.755798%, 87.55188%)" stop-opacity="1"/>
<stop offset="0.648438" stop-color="rgb(27.256775%, 64.198303%, 87.896729%)" stop-opacity="1"/>
<stop offset="0.652344" stop-color="rgb(26.766968%, 64.639282%, 88.241577%)" stop-opacity="1"/>
<stop offset="0.65625" stop-color="rgb(26.277161%, 65.081787%, 88.586426%)" stop-opacity="1"/>
<stop offset="0.660156" stop-color="rgb(25.785828%, 65.522766%, 88.931274%)" stop-opacity="1"/>
<stop offset="0.664062" stop-color="rgb(25.296021%, 65.965271%, 89.276123%)" stop-opacity="1"/>
<stop offset="0.667969" stop-color="rgb(24.804688%, 66.40625%, 89.620972%)" stop-opacity="1"/>
<stop offset="0.671875" stop-color="rgb(24.31488%, 66.848755%, 89.96582%)" stop-opacity="1"/>
<stop offset="0.675781" stop-color="rgb(23.825073%, 67.289734%, 90.310669%)" stop-opacity="1"/>
<stop offset="0.679688" stop-color="rgb(23.335266%, 67.732239%, 90.655518%)" stop-opacity="1"/>
<stop offset="0.683594" stop-color="rgb(22.843933%, 68.173218%, 91.000366%)" stop-opacity="1"/>
<stop offset="0.6875" stop-color="rgb(22.354126%, 68.615723%, 91.345215%)" stop-opacity="1"/>
<stop offset="0.691406" stop-color="rgb(21.862793%, 69.058228%, 91.690063%)" stop-opacity="1"/>
<stop offset="0.695312" stop-color="rgb(21.372986%, 69.500732%, 92.034912%)" stop-opacity="1"/>
<stop offset="0.699219" stop-color="rgb(20.883179%, 69.941711%, 92.379761%)" stop-opacity="1"/>
<stop offset="0.703125" stop-color="rgb(20.393372%, 70.384216%, 92.724609%)" stop-opacity="1"/>
<stop offset="0.707031" stop-color="rgb(19.902039%, 70.825195%, 93.069458%)" stop-opacity="1"/>
<stop offset="0.710938" stop-color="rgb(19.412231%, 71.2677%, 93.414307%)" stop-opacity="1"/>
<stop offset="0.714844" stop-color="rgb(18.920898%, 71.708679%, 93.759155%)" stop-opacity="1"/>
<stop offset="0.71875" stop-color="rgb(18.431091%, 72.151184%, 94.104004%)" stop-opacity="1"/>
<stop offset="0.722656" stop-color="rgb(17.941284%, 72.592163%, 94.448853%)" stop-opacity="1"/>
<stop offset="0.726562" stop-color="rgb(17.451477%, 73.034668%, 94.793701%)" stop-opacity="1"/>
<stop offset="0.730469" stop-color="rgb(16.960144%, 73.475647%, 95.13855%)" stop-opacity="1"/>
<stop offset="0.734375" stop-color="rgb(16.470337%, 73.918152%, 95.483398%)" stop-opacity="1"/>
<stop offset="0.738281" stop-color="rgb(15.979004%, 74.359131%, 95.828247%)" stop-opacity="1"/>
<stop offset="0.742188" stop-color="rgb(15.489197%, 74.801636%, 96.173096%)" stop-opacity="1"/>
<stop offset="0.746094" stop-color="rgb(14.99939%, 75.242615%, 96.516418%)" stop-opacity="1"/>
<stop offset="0.75" stop-color="rgb(14.509583%, 75.68512%, 96.861267%)" stop-opacity="1"/>
<stop offset="1" stop-color="rgb(14.509583%, 75.68512%, 96.861267%)" stop-opacity="1"/>
</linearGradient>
</defs>
<g clip-path="url(#clip-0)">
<path fill-rule="nonzero" fill="url(#linear-pattern-0)" d="M -1914.113281 1642.898438 L 1642.898438 5787.113281 L 5787.113281 2230.101562 L 2230.101562 -1914.113281 Z M -1914.113281 1642.898438 "/>
</g>
<path fill-rule="evenodd" fill="rgb(100%, 100%, 99.609375%)" fill-opacity="1" d="M 2027 1444.199219 C 2030 1552.398438 2028.398438 1664.199219 2025.5 1759.800781 C 1988.199219 1663.398438 1965.300781 1560.800781 1959.898438 1454 C 1982.300781 1451.699219 2004.699219 1448.398438 2027 1444.199219 Z M 1839.199219 2896.101562 C 1701 2535.300781 1660.699219 1584.398438 1708.601562 1189.199219 C 1716.898438 1118.601562 1767.898438 963 1859.398438 963 C 1927.199219 963 1983.5 1047.101562 2010 1187.800781 C 2014.699219 1212 2017.300781 1243.699219 2019.199219 1274.699219 C 2017 1275.199219 2014.699219 1275.699219 2012.5 1276.101562 C 1999.101562 1278.898438 1985.601562 1281.300781 1972.101562 1283.300781 C 1937 1288.5 1901.5 1291.101562 1865.898438 1291.101562 C 1864.199219 1291.101562 1862.398438 1291.101562 1860.699219 1291 L 1857.601562 1291 C 1822.5 1290.5 1793.398438 1318.101562 1791.800781 1353.199219 C 1791.101562 1369.800781 1790.699219 1386.5 1790.699219 1403.101562 C 1790.699219 1601.699219 1840.398438 1790.898438 1936 1965 C 1938.101562 1968.898438 1940.300781 1972.800781 1942.5 1976.699219 C 1944.699219 1980.601562 1946.898438 1984.398438 1949.101562 1988.199219 C 1954.300781 1997.199219 1959.699219 2006.199219 1965.101562 2015.101562 C 1969 2021.5 1972.898438 2027.800781 1976.898438 2034.101562 C 1987.5 2050.800781 1998.601562 2067.199219 2010 2083.398438 C 1999.300781 2276.800781 1967.101562 2668.199219 1879.699219 2896 C 1872.601562 2914.601562 1846.199219 2914.601562 1839.199219 2896.101562 "/>
<path fill-rule="evenodd" fill="rgb(100%, 100%, 99.609375%)" fill-opacity="1" d="M 896.398438 2116.398438 L 900.800781 2028.5 C 901.199219 2021.101562 905.300781 2014.398438 911.800781 2010.699219 L 1699.699219 1564.898438 C 1710.101562 1559 1723.300781 1562.699219 1729.199219 1573.101562 C 1735.101562 1583.5 1746.800781 1960.199219 1747.101562 1972.199219 C 1747.398438 1984.199219 1737.898438 1994.101562 1725.898438 1994.300781 L 1587.601562 1997.199219 L 922.5 2138.601562 C 908.699219 2141.601562 895.699219 2130.699219 896.398438 2116.398438 "/>
<path fill-rule="evenodd" fill="rgb(100%, 100%, 99.609375%)" fill-opacity="1" d="M 1560.800781 2786.800781 C 1506.101562 2786.800781 1464.898438 2766.699219 1450.199219 2731.5 C 1442.601562 2713.300781 1432.5 2665.101562 1502.300781 2609.101562 L 1747.699219 2412.101562 C 1757 2404.601562 1770.699219 2406.101562 1778.199219 2415.398438 C 1785.699219 2424.699219 1822.800781 2619.699219 1835.898438 2735.199219 C 1837.300781 2747.101562 1828.699219 2757.800781 1816.800781 2759.199219 L 1588.601562 2785.199219 C 1579 2786.199219 1569.699219 2786.800781 1560.800781 2786.800781 "/>
<path fill-rule="evenodd" fill="rgb(100%, 100%, 99.609375%)" fill-opacity="1" d="M 2130.199219 2785.101562 L 1902 2759.101562 C 1890.101562 2757.699219 1881.601562 2747 1882.898438 2735.101562 C 1884.300781 2723.199219 1933.101562 2424.601562 1940.601562 2415.300781 C 1948.101562 2406 1961.699219 2404.5 1971.101562 2412 L 2216.5 2609 C 2286.199219 2665 2276.199219 2713.300781 2268.601562 2731.398438 C 2247.300781 2782.699219 2179 2790.699219 2130.199219 2785.101562 "/>
<path fill-rule="evenodd" fill="rgb(100%, 100%, 99.609375%)" fill-opacity="1" d="M 980.300781 1922.101562 C 968.699219 1922.101562 958 1916 952.199219 1905.898438 C 943.199219 1890.398438 948.5 1870.5 964 1861.5 L 1480.398438 1561.199219 C 1495.898438 1552.199219 1515.800781 1557.5 1524.800781 1573 C 1533.800781 1588.5 1528.5 1608.398438 1513 1617.398438 L 996.601562 1917.699219 C 991.699219 1920.601562 986.101562 1922.101562 980.300781 1922.101562 "/>
<path fill-rule="evenodd" fill="rgb(100%, 100%, 99.609375%)" fill-opacity="1" d="M 1877.601562 1377.800781 C 1877.398438 1386.398438 1877.300781 1394.898438 1877.300781 1403.300781 C 1877.300781 1777.601562 2069.5 2122.101562 2405.300781 2350.398438 C 2741.101562 2122.101562 2933.300781 1777.699219 2933.300781 1403.300781 C 2933.300781 1395 2933.199219 1386.5 2933 1377.800781 C 2728 1375 2537.398438 1295.601562 2405 1158.101562 C 2272.699219 1295.398438 2082.398438 1374.800781 1877.601562 1377.800781 Z M 2405.300781 2398.101562 C 2401.101562 2398.101562 2396.898438 2396.898438 2393.300781 2394.5 C 2223.601562 2281.601562 2082.898438 2133.699219 1986.5 1966.699219 C 1885.300781 1791.300781 1833.898438 1601.699219 1833.898438 1403.300781 C 1833.898438 1387.699219 1834.300781 1371.5 1835 1355.199219 C 1835.5 1343.5 1845.199219 1334.398438 1856.898438 1334.5 L 1860 1334.5 C 1861.898438 1334.5 1863.898438 1334.601562 1865.800781 1334.601562 C 2071.300781 1334.601562 2261.898438 1253.398438 2388.800781 1111.800781 C 2392.898438 1107.199219 2398.800781 1104.601562 2404.898438 1104.601562 C 2411.101562 1104.601562 2416.898438 1107.199219 2421 1111.800781 C 2547.898438 1253.398438 2738.5 1334.601562 2944 1334.601562 C 2946.199219 1334.601562 2948.5 1334.601562 2950.699219 1334.5 L 2953.5 1334.5 C 2953.601562 1334.5 2953.699219 1334.5 2953.800781 1334.5 C 2965.398438 1334.5 2974.898438 1343.601562 2975.398438 1355.199219 C 2976.101562 1371.601562 2976.5 1387.800781 2976.5 1403.300781 C 2976.5 1601.699219 2925.199219 1791.300781 2823.898438 1966.699219 C 2727.5 2133.699219 2586.898438 2281.699219 2417.101562 2394.5 C 2413.601562 2396.898438 2409.5 2398.101562 2405.300781 2398.101562 "/>
<path fill-rule="evenodd" fill="rgb(100%, 100%, 99.609375%)" fill-opacity="1" d="M 2347.898438 1939.699219 L 2462.601562 1939.699219 L 2462.601562 1830.300781 C 2462.601562 1818.300781 2472.300781 1808.601562 2484.300781 1808.601562 L 2593.699219 1808.601562 L 2593.699219 1693.898438 L 2484.300781 1693.898438 C 2472.300781 1693.898438 2462.601562 1684.199219 2462.601562 1672.199219 L 2462.601562 1562.800781 L 2347.898438 1562.800781 L 2347.898438 1672.199219 C 2347.898438 1684.199219 2338.199219 1693.898438 2326.199219 1693.898438 L 2216.800781 1693.898438 L 2216.800781 1808.601562 L 2326.199219 1808.601562 C 2338.199219 1808.601562 2347.898438 1818.300781 2347.898438 1830.300781 L 2347.898438 1939.699219 "/>
<path fill-rule="evenodd" fill="rgb(100%, 100%, 99.609375%)" fill-opacity="1" d="M 2405.300781 2250.5 C 2673.601562 2049.898438 2834.898438 1761.398438 2850.699219 1454.199219 C 2683.898438 1436.5 2527 1371.300781 2404.898438 1269 C 2283 1371.101562 2126.300781 1436.300781 1959.800781 1454.101562 C 1975.699219 1761.398438 2137 2049.898438 2405.300781 2250.5 Z M 2175.5 1878.199219 C 2231.601562 1970.101562 2303.101562 2054.199219 2388.101562 2128.101562 C 2397.101562 2136 2398.101562 2149.601562 2390.199219 2158.699219 C 2385.898438 2163.601562 2379.898438 2166.101562 2373.800781 2166.101562 C 2368.800781 2166.101562 2363.699219 2164.300781 2359.601562 2160.800781 C 2271.300781 2083.898438 2196.898438 1996.5 2138.398438 1900.800781 C 2132.199219 1890.601562 2135.398438 1877.300781 2145.601562 1871 C 2155.898438 1864.800781 2169.199219 1868 2175.5 1878.199219 Z M 2615.300781 1650.601562 C 2627.300781 1650.601562 2637 1660.300781 2637 1672.300781 L 2637 1830.398438 C 2637 1842.398438 2627.300781 1852.101562 2615.300781 1852.101562 L 2506 1852.101562 L 2506 1961.5 C 2506 1973.5 2496.300781 1983.199219 2484.300781 1983.199219 L 2326.199219 1983.199219 C 2314.199219 1983.199219 2304.5 1973.5 2304.5 1961.5 L 2304.5 1852 L 2195.101562 1852 C 2183.101562 1852 2173.398438 1842.300781 2173.398438 1830.300781 L 2173.398438 1672.199219 C 2173.398438 1660.199219 2183.101562 1650.5 2195.101562 1650.5 L 2304.5 1650.5 L 2304.5 1541.101562 C 2304.5 1529.101562 2314.199219 1519.398438 2326.199219 1519.398438 L 2484.300781 1519.398438 C 2496.300781 1519.398438 2506 1529.101562 2506 1541.101562 L 2506 1650.5 L 2615.300781 1650.5 L 2615.300781 1650.601562 "/>
<path fill-rule="evenodd" fill="rgb(100%, 100%, 99.609375%)" fill-opacity="1" d="M 2393.300781 2394.5 C 2396.898438 2396.898438 2401.101562 2398.101562 2405.300781 2398.101562 C 2409.5 2398.101562 2413.699219 2396.898438 2417.300781 2394.5 C 2587 2281.601562 2727.699219 2133.699219 2824.101562 1966.699219 C 2925.300781 1791.300781 2976.699219 1601.699219 2976.699219 1403.300781 C 2976.699219 1387.800781 2976.300781 1371.601562 2975.601562 1355.199219 C 2975.101562 1343.601562 2965.5 1334.5 2954 1334.5 L 2950.898438 1334.5 C 2948.699219 1334.5 2946.398438 1334.601562 2944.199219 1334.601562 C 2738.699219 1334.601562 2548.101562 1253.398438 2421.199219 1111.800781 C 2417.101562 1107.199219 2411.199219 1104.601562 2405.101562 1104.601562 C 2399 1104.601562 2393.101562 1107.199219 2389 1111.800781 C 2294.898438 1216.800781 2165.699219 1288.601562 2021.5 1318.699219 C 2007.300781 1321.699219 1993 1324.199219 1978.601562 1326.300781 C 1941.800781 1331.800781 1904.199219 1334.601562 1866.101562 1334.601562 C 1864.199219 1334.601562 1862.199219 1334.601562 1860.300781 1334.5 L 1857.199219 1334.5 C 1845.5 1334.398438 1835.800781 1343.601562 1835.300781 1355.199219 C 1834.601562 1371.5 1834.199219 1387.699219 1834.199219 1403.300781 C 1834.199219 1593.300781 1881.300781 1775.199219 1974.199219 1944.300781 C 1976.300781 1948.101562 1978.398438 1951.800781 1980.5 1955.601562 C 1982.601562 1959.300781 1984.699219 1963 1986.800781 1966.699219 C 1991.800781 1975.398438 1997 1984.101562 2002.199219 1992.699219 C 2006 1998.800781 2009.800781 2004.898438 2013.601562 2011 C 2108.199219 2159.800781 2238.699219 2291.699219 2393.300781 2394.5 Z M 2894.898438 1435.199219 C 2884.699219 1768.300781 2710.800781 2081.699219 2418.101562 2295 C 2414.300781 2297.800781 2409.800781 2299.101562 2405.300781 2299.101562 C 2400.800781 2299.101562 2396.300781 2297.699219 2392.5 2294.898438 C 2099.699219 2081.601562 1925.898438 1768.199219 1915.699219 1435.101562 C 1915.300781 1423.601562 1924.101562 1413.800781 1935.601562 1412.800781 C 2107.199219 1398.5 2268.800781 1331.5 2390.699219 1224.101562 C 2398.898438 1216.898438 2411.199219 1216.898438 2419.398438 1224.101562 C 2541.398438 1331.699219 2703.300781 1398.699219 2875.101562 1412.898438 C 2886.5 1413.898438 2895.199219 1423.699219 2894.898438 1435.199219 "/>
</svg>
