<svg id="Layer_1" data-name="Layer 1" xmlns="http://www.w3.org/2000/svg" xmlns:xlink="http://www.w3.org/1999/xlink" viewBox="0 0 355.4 602.55"><defs><style>.cls-1{fill:none;}.cls-2{clip-path:url(#clip-path);}.cls-3,.cls-5{fill:#335296;}.cls-4{fill:#93d4da;}.cls-5{fill-rule:evenodd;}.cls-6{fill:#fff;}.cls-7{fill:#ef3e42;}</style><clipPath id="clip-path"><rect class="cls-1" x="-1225.96" y="-236" width="1920" height="1080"/></clipPath></defs><title>SeaLogo</title><g class="cls-2"><path class="cls-3" d="M154.23,524.14q0,8.58-6.13,13.15t-15.54,4.57q-10.94,0-17-3.46c-1.24-.69-1.5-1.73-.76-3.11l3.6-6.44c.88-1.57,2-2.05,3.39-1.46a23.59,23.59,0,0,0,9.49,2.08c5,0,7.54-1.06,7.54-3.18q0-1.93-6.23-4.16a35.92,35.92,0,0,1-4.67-2,22.51,22.51,0,0,1-3.88-2.63,10.75,10.75,0,0,1-2.94-3.91,12.89,12.89,0,0,1-1-5.3q0-8.66,5.78-12.8t15.4-4.16a38.31,38.31,0,0,1,8.79,1,22.6,22.6,0,0,1,6.16,2.22,2,2,0,0,1,.76,3.11l-3.39,6.09a2.65,2.65,0,0,1-3.46,1.46,26.6,26.6,0,0,0-8.86-1.46c-3.92,0-5.88.93-5.88,2.77a2.75,2.75,0,0,0,1.42,2.18,22.39,22.39,0,0,0,4.67,2.25,47.2,47.2,0,0,1,4.88,2.15,29.63,29.63,0,0,1,3.88,2.49,9.36,9.36,0,0,1,3,3.67A11.92,11.92,0,0,1,154.23,524.14Z"/><path class="cls-3" d="M190.7,522.2H175.06l-1.18,6.44h16.89q2.63,0,2.22,2.49l-1.32,7.48a2.68,2.68,0,0,1-2.84,2.49H159.49c-1.76,0-2.47-.83-2.15-2.49l7.75-44a2.6,2.6,0,0,1,2.77-2.5h28.93c1.76,0,2.49.83,2.22,2.5l-1.32,7.47a2.62,2.62,0,0,1-2.84,2.49H178.17l-1,5.75h15.43c1.71,0,2.42.83,2.15,2.49l-1.25,7A2.57,2.57,0,0,1,190.7,522.2Z"/><path class="cls-3" d="M220.6,492.09h12.46a2.51,2.51,0,0,1,2.77,2.22l6.58,43.81a2.76,2.76,0,0,1-.42,2.18,2.24,2.24,0,0,1-1.87.8H229.81c-1.71,0-2.63-.76-2.77-2.28l-.55-5.33H213.27l-2.43,5.33a3.46,3.46,0,0,1-3.32,2.28H196.79a1.75,1.75,0,0,1-1.69-.83,2.27,2.27,0,0,1,.24-2.15l22.08-43.81A3.36,3.36,0,0,1,220.6,492.09Zm-2.84,29.08h8.38l-1.38-14.26h-.21Z"/><g class="cls-2"><path class="cls-3" d="M311.89,344.83,197.26,418.51a31.86,31.86,0,0,1-34.51,0L48.12,344.83a32.81,32.81,0,0,1-15-27.6V62.7A32.45,32.45,0,0,1,65.37,30H294.64A32.45,32.45,0,0,1,326.86,62.7V317.23a32.81,32.81,0,0,1-15,27.6"/><path class="cls-4" d="M291,154.72a6.54,6.54,0,0,0-6.54-3.11L240.66,158l-42.37-32.79a6.53,6.53,0,0,0-4.94-1.3l-64.49,9.36L125,105.56a6.54,6.54,0,0,0-7.4-5.55L94.8,103.32a6.52,6.52,0,0,0-5.53,7.39l4,27.69-14.62,2.12a6.52,6.52,0,0,0-5.4,4.91L62.94,187.88l0,.19a2.33,2.33,0,0,0-.06.35,4.53,4.53,0,0,0-.06.5c0,.12,0,.24,0,.36a4.17,4.17,0,0,0,0,.5c0,.12,0,.23,0,.34s.05.35.08.53l.06.31c.05.19.11.39.18.58s0,.15.07.22a7.59,7.59,0,0,0,.35.77,1.63,1.63,0,0,1,.11.17,6.37,6.37,0,0,0,.35.55l.2.25c.09.11.17.22.26.32l.06.06.11.12,16.09,16.39a77,77,0,0,1,17.83,29c0,.12.11.22.16.34a16.58,16.58,0,0,1,2.58-1.77,62,62,0,0,1,18.5-6.52c2.32-4.7,6.35-8.47,11.58-9.39,13-2.27,25.69-6.76,38.33-.52a31.66,31.66,0,0,1,8.17,5.83c1.6.6,3.2,1.29,4.84,2.05s3.18,1.61,4.76,2.43c.5.26,1.93,1.31,2.56,1.71l.19,0c-.1-.11-.28-.28-.56-.53,1.88.46,2.23.64,1.09.57l.83.07,1.32.1c12.33-1,24.5-2.94,36.81-5a19.51,19.51,0,0,1,16.15-6.67c5.41-6.5,11.38-14.18,17.28-22.75L290.68,162a6.52,6.52,0,0,0,.35-7.23M77.92,181.58l7-28.77,11.2-1.63,4,27.18Zm25.21-66.28,9.81-1.42,3,21.23-9.73,1.41ZM113,176.49,109,149.31l25.87-3.76,3.94,27.19Zm38.79-5.63-3.94-27.18,26.49-3.84L178.26,167Zm39.41-5.71L187.24,138l5.25-.76,30.2,23.38Z"/><path class="cls-4" d="M45.41,331.76c2.15-5.47,22.92,2.67,29,6.82,6.32,4.32,11.77,8,23.19,8s16.86-3.72,23.18-8c7.09-4.84,15.12-10.34,30.6-10.34s23.5,5.5,30.59,10.34c3.79,2.59,7.28,5,11.92,6.45l-36.39-32.44a44.7,44.7,0,0,0-4.49-.22c-11.42,0-16.87,3.73-23.19,8-7.08,4.85-15.12,10.34-30.59,10.34s-23.51-5.49-30.59-10.34c-6.32-4.31-11.77-8-23.19-8V299.24c15.48,0,23.51,5.49,30.6,10.33,6.31,4.32,11.76,8.05,23.18,8.05s16.87-3.73,23.18-8.05c5.46-3.72,11.49-7.83,21-9.52L132,289.9c-.74.49-1.48,1-2.23,1.51-7.08,4.84-15.12,10.33-30.59,10.33s-23.51-5.49-30.59-10.33c-6.32-4.32-11.77-8.05-23.19-8.05V270.23c15.48,0,23.51,5.49,30.6,10.34,6.31,4.32,11.76,8,23.18,8,11.13,0,16.59-3.54,22.71-7.72l-10.62-9.48a51.76,51.76,0,0,1-12.09,1.33c-15.47,0-23.51-5.49-30.59-10.34-6.32-4.31-11.77-8-23.19-8V241.23c15.48,0,23.51,5.49,30.6,10.33,6.09,4.17,11.39,7.77,22,8L68.78,233.51l-.15-.11c-6.32-4.32-11.77-8.05-23.19-8.05V212.7l-.28-.25V331.5l.25.26"/><path class="cls-4" d="M129.81,262.4c6.32-4.31,11.77-8,23.19-8s16.87,3.73,23.18,8c7.09,4.85,15.12,10.34,30.6,10.34s23.5-5.49,30.59-10.34c6.32-4.31,11.77-8,23.19-8s16.87,3.73,23.19,8c7.09,4.85,15.12,10.34,30.6,10.34V259.61c-11.42,0-16.88-3.73-23.19-8.05-7.09-4.84-15.12-10.33-30.6-10.33s-23.51,5.49-30.6,10.33c-6.31,4.32-11.77,8.05-23.18,8.05s-16.87-3.73-23.19-8.05c-7.09-4.84-15.12-10.33-30.59-10.33s-23.51,5.49-30.6,10.33c-6.31,4.32-11.77,8.05-23.18,8.05l-1.18,0,13.27,11.83c8.11-1.93,13.54-5.63,18.5-9"/><path class="cls-4" d="M99.22,243.74c15.47,0,23.51-5.5,30.59-10.34,6.32-4.32,11.77-8.05,23.19-8.05s16.87,3.73,23.18,8.05c7.09,4.84,15.12,10.34,30.6,10.34s23.5-5.5,30.59-10.34c6.32-4.32,11.77-8.05,23.19-8.05s16.87,3.73,23.19,8.05c7.09,4.84,15.12,10.34,30.6,10.34V230.6c-11.42,0-16.88-3.72-23.19-8-7.09-4.85-15.12-10.34-30.6-10.34s-23.51,5.49-30.6,10.34c-6.31,4.32-11.77,8-23.18,8s-16.87-3.72-23.19-8c-7.09-4.85-15.12-10.34-30.59-10.34s-23.51,5.49-30.6,10.34c-6.31,4.32-11.77,8-23.18,8s-16.87-3.72-23.18-8c-7.09-4.85-15.12-10.34-30.6-10.34v.48l23.34,20.81c7,4.81,15.08,10.23,30.44,10.23"/><path class="cls-4" d="M176.18,320.41c7.09,4.85,15.12,10.34,30.6,10.34s23.51-5.49,30.59-10.34c6.32-4.31,11.77-8,23.19-8s16.87,3.73,23.19,8c7.09,4.85,15.12,10.34,30.6,10.34V317.62c-11.42,0-16.88-3.73-23.19-8.05-7.09-4.84-15.12-10.33-30.6-10.33s-23.51,5.49-30.6,10.33c-6.31,4.32-11.77,8.05-23.18,8.05s-16.87-3.73-23.19-8.05c-7.09-4.84-15.12-10.33-30.59-10.33a54.21,54.21,0,0,0-9.58.81l14.07,12.54c8.47.85,13.27,4.12,18.69,7.82"/><path class="cls-4" d="M267.61,366.74c9.38-6.64,19.16-10.31,28.65-16.31a10.25,10.25,0,0,0,2.29-1.88c3.83-4.5-5.57-7.61-9-10-7.08-4.84-15.12-10.34-30.59-10.34s-23.51,5.5-30.6,10.34c-6.32,4.32-11.77,8.05-23.19,8.05a36.28,36.28,0,0,1-11.26-1.6l46.58,41.53c9.14-6.46,18-13.37,27.15-19.82"/><path class="cls-4" d="M153,283.36c11.41,0,16.87,3.73,23.18,8.05,7.09,4.84,15.12,10.34,30.6,10.34s23.5-5.5,30.59-10.34c6.32-4.32,11.77-8.05,23.19-8.05s16.87,3.73,23.19,8.05c7.09,4.84,15.12,10.34,30.6,10.34V288.62c-11.42,0-16.88-3.73-23.19-8.05-7.09-4.85-15.12-10.34-30.6-10.34s-23.51,5.49-30.6,10.34c-6.31,4.32-11.77,8.05-23.18,8.05s-16.87-3.73-23.19-8.05c-7.09-4.85-15.12-10.34-30.59-10.34s-23.51,5.49-30.6,10.34l-.47.32,10.11,9c5.47-3.64,10.9-6.54,21-6.54"/><polygon class="cls-5" points="111.78 189.19 120.09 189.19 120.09 197.28 126.72 192.64 131.49 199.45 123.18 205.26 131.49 211.08 126.72 217.89 120.09 213.25 120.09 221.34 111.78 221.34 111.78 213.25 105.15 217.89 100.38 211.08 108.69 205.26 100.38 199.45 105.15 192.64 111.78 197.28 111.78 189.19"/><path class="cls-4" d="M54.18,43.17a50.28,50.28,0,0,0,89.71,0Z"/><path class="cls-4" d="M143.89,43.17a36.7,36.7,0,0,0,65.47,0Z"/><path class="cls-4" d="M249.92,78.3a22.38,22.38,0,0,1,26.35,0L287,67.62a37.35,37.35,0,0,0-47.71,0Z"/><path class="cls-4" d="M245,109.53a22.34,22.34,0,0,1,0-26.35L234.36,72.5a37.35,37.35,0,0,0,0,47.71Z"/><path class="cls-4" d="M276.27,114.41a22.34,22.34,0,0,1-26.35,0l-10.68,10.68a37.35,37.35,0,0,0,47.71,0Z"/><path class="cls-4" d="M281.15,83.18a22.38,22.38,0,0,1,0,26.35l10.68,10.68a37.35,37.35,0,0,0,0-47.71Z"/><path class="cls-6" d="M294.64,43.38A19.13,19.13,0,0,1,313.51,62.7V317.23a19.3,19.3,0,0,1-8.84,16.36L190,407.28a18.49,18.49,0,0,1-20.07,0L55.34,333.59a19.32,19.32,0,0,1-8.84-16.36V62.7A19.13,19.13,0,0,1,65.37,43.38H294.64m0-13.35H65.37A32.45,32.45,0,0,0,33.15,62.7V317.23a32.81,32.81,0,0,0,15,27.6l114.63,73.68a31.84,31.84,0,0,0,34.51,0l114.63-73.68a32.81,32.81,0,0,0,15-27.6V62.7A32.45,32.45,0,0,0,294.64,30"/><path class="cls-3" d="M294.53,28.74a32.45,32.45,0,0,1,32.22,32.67V315.94a32.78,32.78,0,0,1-15,27.59L197.15,417.22a31.84,31.84,0,0,1-34.51,0L48,343.53a32.78,32.78,0,0,1-15-27.59V61.41A32.44,32.44,0,0,1,65.26,28.74H294.53m0-13.35H65.26c-25.13,0-45.57,20.64-45.57,46V315.94a45.91,45.91,0,0,0,21.1,38.82l114.63,73.69a45.2,45.2,0,0,0,49,0L319,354.76a45.91,45.91,0,0,0,21.1-38.82V61.41c0-25.38-20.45-46-45.57-46"/><path class="cls-4" d="M184.17,360a28.56,28.56,0,0,1,23,11.62,28.62,28.62,0,0,1-46,0,28.56,28.56,0,0,1,23-11.62"/><path class="cls-4" d="M149.33,362.29a28.69,28.69,0,0,1,11.83,9.33A28.85,28.85,0,0,1,149.33,381Z"/></g><path class="cls-7" d="M117.35,583H110.9c-.5,0-.7-.22-.61-.67l3.95-22.42a.71.71,0,0,1,.78-.67h5.84c3.41,0,6,.65,7.76,2s2.66,3.44,2.66,6.39a19.86,19.86,0,0,1-.31,3.21q-1.14,6.69-4.43,9.45T117.35,583Zm3.12-20.38h-3l-3,17h3A9.83,9.83,0,0,0,124,577.7q2.31-1.89,3.22-6.93a15.91,15.91,0,0,0,.27-2.64c0-2-.58-3.48-1.74-4.31A9.12,9.12,0,0,0,120.47,562.59Z"/><path class="cls-7" d="M133.64,582.29l4-22.41a.73.73,0,0,1,.78-.67h2.37c.47,0,.66.13.57.4l-4,22.68a.7.7,0,0,1-.76.68h-2.31C133.77,583,133.57,582.75,133.64,582.29Z"/><path class="cls-7" d="M152.88,583H150c-.42,0-.66-.24-.72-.71L145.4,560c0-.49.16-.74.62-.74h2.39c.39,0,.61.22.65.67l2.26,13.69.61,5.58H152l2.6-5.64,7-13.66a1,1,0,0,1,.91-.64h2.64a.47.47,0,0,1,.46.22.52.52,0,0,1,0,.52l-11.7,22.31A1.13,1.13,0,0,1,152.88,583Z"/><path class="cls-7" d="M165.89,582.29l4-22.41a.73.73,0,0,1,.78-.67H173c.48,0,.67.13.58.4l-4,22.68a.71.71,0,0,1-.77.68h-2.3C166,583,165.82,582.75,165.89,582.29Z"/><path class="cls-7" d="M191.54,575.7a6.39,6.39,0,0,1-2.81,5.68,12.3,12.3,0,0,1-7,1.9,23.13,23.13,0,0,1-4.12-.36,10.48,10.48,0,0,1-2.94-.86c-.41-.2-.53-.46-.37-.78l1-1.82c.21-.46.5-.59.88-.41a13.57,13.57,0,0,0,5.44,1,10.71,10.71,0,0,0,2.05-.19,9.92,9.92,0,0,0,2-.59A3.66,3.66,0,0,0,187.2,578a3.23,3.23,0,0,0,.59-1.94,2.06,2.06,0,0,0-.29-1.06,4.69,4.69,0,0,0-.58-.82,4,4,0,0,0-1.11-.71l-1.2-.57-1.42-.67a14.71,14.71,0,0,1-4.22-2.45,4.63,4.63,0,0,1-1.49-3.64,6.33,6.33,0,0,1,2.57-5.51,11.39,11.39,0,0,1,6.72-1.82,14.48,14.48,0,0,1,6.19,1.08.56.56,0,0,1,.34.81l-1,1.76a.7.7,0,0,1-.95.37,11.77,11.77,0,0,0-4.6-.78q-5.51,0-5.51,3.65a2.71,2.71,0,0,0,.07.58,2.14,2.14,0,0,0,.22.52c.1.17.2.31.29.44a2,2,0,0,0,.46.4c.21.15.38.26.49.35a3.44,3.44,0,0,0,.61.35l.64.3.74.35.74.35,1.81.86a13,13,0,0,1,1.61.94,6.48,6.48,0,0,1,1.4,1.18,5.35,5.35,0,0,1,.85,1.46A5.12,5.12,0,0,1,191.54,575.7Z"/><path class="cls-7" d="M194.85,582.29l4-22.41a.73.73,0,0,1,.78-.67H202c.47,0,.66.13.57.4l-4,22.68a.71.71,0,0,1-.77.68h-2.31C195,583,194.78,582.75,194.85,582.29Z"/><path class="cls-7" d="M217.53,558.84a8.92,8.92,0,0,1,6.53,2.26q2.3,2.26,2.29,6.56a22.09,22.09,0,0,1-.33,3.45q-1.1,6-4.16,9.11a10.85,10.85,0,0,1-8.05,3.09,8.93,8.93,0,0,1-6.52-2.25q-2.29-2.25-2.3-6.57a20.2,20.2,0,0,1,.31-3.42c.69-4,2.09-7.05,4.17-9.12A10.91,10.91,0,0,1,217.53,558.84ZM214.08,580q6.57,0,8.15-9a17.64,17.64,0,0,0,.3-3.07c0-3.92-1.76-5.88-5.3-5.88q-6.53,0-8.15,9a21.89,21.89,0,0,0-.27,3.11Q208.81,580,214.08,580Z"/><path class="cls-7" d="M251,559.86l-4,22.44a.71.71,0,0,1-.78.67H244a.86.86,0,0,1-.85-.51l-8-17.07-3,16.9a.71.71,0,0,1-.74.68h-2.26c-.49,0-.7-.22-.61-.68l4-22.41a.71.71,0,0,1,.81-.67h2.23c.45,0,.73.16.84.47l8,17.11,2.94-16.91a.71.71,0,0,1,.79-.67h2.28C250.84,559.21,251,559.42,251,559.86Z"/></g></svg>