<svg id="Layer_1" data-name="Layer 1" xmlns="http://www.w3.org/2000/svg" xmlns:xlink="http://www.w3.org/1999/xlink" viewBox="0 0 233.79 237.15"><defs><style>.cls-1{fill:none;}.cls-2{clip-path:url(#clip-path);}.cls-3{clip-path:url(#clip-path-2);}.cls-4{fill:url(#linear-gradient);}</style><clipPath id="clip-path"><rect class="cls-1" y="18.24" width="233.79" height="200.67"/></clipPath><clipPath id="clip-path-2"><path class="cls-1" d="M69.38,114.54c-3.48,0-10.13,6.25-18.62,6.25-6,0-5.63-4.43-1.65-6.12a5.22,5.22,0,0,0,3.19-4.82c0-5.48-7.56-5-6.09-8.79,2.42-6.17,18.89,2.4,20.43,3.34a5.23,5.23,0,0,0,5.47,0c2.5-1.52,10.23-5.48,15.88-5.48,4.65,0,7,3.83,1.66,6.11a5.27,5.27,0,0,0,0,9.64c4.14,1.75,4.27,6.11-1.66,6.11C79.5,120.78,72.86,114.54,69.38,114.54ZM88,131.26c12.61,0,19.43-12.24,12.29-21.41C108.81,98.91,98,79,69.38,93.94c-28.6-15-39.43,5-30.9,15.91-8.53,11,2.29,30.9,30.9,15.92C73.37,127.86,80.94,131.26,88,131.26ZM11.92,67.51a1.53,1.53,0,0,1,0,3A1.53,1.53,0,0,1,11.92,67.51Zm114.91,0c1.83,0,2,2.86.22,3A1.52,1.52,0,1,1,126.83,67.51Zm-5.14,12.37-1.79,19.9c-9.38,2.4-4.37,13.76,2.42,10.2a11.36,11.36,0,0,1,.58,3.94,5.24,5.24,0,0,0,5.23,5.14c8.33,0,4.92-12.77,2-16.23l2.08-23.08c10.38-5.24,7.85-21.27-4-22.63l-14.8-26.88c-3.32-6-12.49-1-9.18,5.05l14,25.39A12.06,12.06,0,0,0,121.69,79.88ZM39.23,163.21c-5,0-5,7.6,0,7.62S44.23,163.21,39.23,163.21Zm-5.51,17c-12.82-5.38-11-24.56,2.82-27.21l4-13.64c2-6.59,12-3.61,10,3L46.87,155c9.85,6.27,8.35,21.36-2.68,25.45v33.21A5.24,5.24,0,0,1,39,218.86H27.27c-6.86,0-6.86-10.47,0-10.47h6.45Zm65.81-17c-5,0-5.08,7.66,0,7.66S104.55,163.19,99.53,163.19Zm-5,17.24c-11-4.1-12.55-19.21-2.69-25.49l-3.73-12.62c-2-6.58,8.09-9.56,10-3l4,13.62c13.88,2.65,15.67,21.87,2.82,27.25v28.17h6.45c6.87,0,6.87,10.47,0,10.47H99.8a5.25,5.25,0,0,1-5.24-5.24Zm89.92-78.79c-27,0-51.41,16.67-38.83,45.44,2.47,5.65,5.76,11,3.22,19.41-2.32,7.6,6.3,7.83,9.21,8.91,12.21,4.55,14.08,20.88,14.31,27.69.32,1.06,5.06,3.7,12.39,3.7,5.79,0,10-1.79,10.08-3.41l.64-8.58c.1-.64,2.54-15.64,17.26-20.46,2.31-.76,6.87-3.45,5.94-5.24a17.48,17.48,0,0,1-.31-16c5.5-10.75,4.93-23.34,4.85-24.58C220.8,108.67,200.85,101.64,184.48,101.64Zm.3,115.62c11.88,0,19.93-5.14,20.52-13.11l.58-7.93c.23-1.19,2.08-9.29,10.14-11.93,4.38-1.44,10.26-5,12.44-10.4,3.08-7.57-3.41-10.87-.75-16.06,7.17-14,6.06-29.61,5.95-30.47-3-25-26.85-36.19-49.18-36.19-33.68,0-64.49,23.28-48.43,60.1,1.9,4.34,4,7.85,2.76,12.29-1.88,6.28-.23,10.74,1.48,13.37,4,6.21,11.93,8,14.56,8.46,4.82,2.23,6.82,10.71,7.08,18.06C162.26,212.94,174,217.26,184.78,217.26Zm17.31-83.95c-6,0-6,9.22,0,9.22S208.13,133.31,202.09,133.31Zm0,19.69a15.08,15.08,0,1,1,15.07-15.08A15.1,15.1,0,0,1,202.09,153Zm-38.72-19.69c-6,0-6,9.22,0,9.22S169.41,133.31,163.37,133.31Zm0,19.69a15.08,15.08,0,1,1,15.08-15.08A15.1,15.1,0,0,1,163.37,153Zm19.36,32.59a5.25,5.25,0,0,1-5.24-5.24V165.47c0-6.86,10.47-6.86,10.47,0v14.88A5.24,5.24,0,0,1,182.73,185.59ZM9.54,119.64a5.24,5.24,0,0,0,5.24-5.13,11.81,11.81,0,0,1,.57-4c6.46,3.39,11.46-6.93,3.59-9.84L17.06,79.88a12.06,12.06,0,0,0,3.47-19.2l14-25.39c3.31-6-5.86-11.06-9.17-5.05L10.54,57.12c-11.86,1.36-14.39,17.39-4,22.63l2,22.61C4.47,106,1.05,119.64,9.54,119.64Zm54.6-87.43c-9-5.43-19.56-2.88-19.68-2.85-6.65,1.69-9.21-8.48-2.55-10.15.65-.16,14.8-3.58,27.46,3.93C82,15.63,96.19,19.05,96.84,19.21,103.47,20.87,101,31,94.31,29.37c-.13,0-10.77-2.5-19.7,2.84v4.12a72.72,72.72,0,0,1,24,5.9c6.43,2.8,2,12.27-4.18,9.6a61.71,61.71,0,0,0-19.79-4.95v5.44a65.51,65.51,0,0,1,28.83,10.06c6,3.72.13,12.43-5.55,8.88A54.94,54.94,0,0,0,74.61,63v6A56.74,56.74,0,0,1,96.4,76.43c6.08,3.51.57,12.41-5.23,9.07a46.67,46.67,0,0,0-16.56-6V84c0,6.87-10.47,6.87-10.47,0v-4.7A39,39,0,0,0,47,85.23c-5.59,3.93-11.63-4.54-6.08-8.52a49.93,49.93,0,0,1,23.2-7.91V62.87A54.4,54.4,0,0,0,39.9,71.08c-5.58,4-11.67-4.53-6.09-8.52A64.7,64.7,0,0,1,64.14,52.24V46.89a60.66,60.66,0,0,0-19.79,4.83c-6.15,3-10.79-6.32-4.67-9.37a69.46,69.46,0,0,1,24.46-6V32.21"/></clipPath><linearGradient id="linear-gradient" x1="-565.07" y1="504.64" x2="-564.97" y2="504.64" gradientTransform="matrix(2426.21, 0, 0, -2426.21, 1370981.97, 1224482.31)" gradientUnits="userSpaceOnUse"><stop offset="0" stop-color="#002a39"/><stop offset="0.03" stop-color="#002a39"/><stop offset="0.04" stop-color="#002a39"/><stop offset="0.05" stop-color="#002b3a"/><stop offset="0.05" stop-color="#002c3b"/><stop offset="0.06" stop-color="#002d3c"/><stop offset="0.07" stop-color="#002d3c"/><stop offset="0.08" stop-color="#002e3d"/><stop offset="0.09" stop-color="#002f3e"/><stop offset="0.09" stop-color="#00303f"/><stop offset="0.1" stop-color="#00303f"/><stop offset="0.11" stop-color="#003140"/><stop offset="0.12" stop-color="#003241"/><stop offset="0.13" stop-color="#003342"/><stop offset="0.13" stop-color="#003342"/><stop offset="0.14" stop-color="#003443"/><stop offset="0.15" stop-color="#003544"/><stop offset="0.16" stop-color="#003645"/><stop offset="0.16" stop-color="#003645"/><stop offset="0.17" stop-color="#003746"/><stop offset="0.18" stop-color="#003847"/><stop offset="0.19" stop-color="#003948"/><stop offset="0.2" stop-color="#003948"/><stop offset="0.2" stop-color="#003a49"/><stop offset="0.21" stop-color="#003b4a"/><stop offset="0.22" stop-color="#003c4b"/><stop offset="0.23" stop-color="#003c4b"/><stop offset="0.23" stop-color="#003d4c"/><stop offset="0.24" stop-color="#003e4d"/><stop offset="0.25" stop-color="#003f4e"/><stop offset="0.26" stop-color="#003f4f"/><stop offset="0.27" stop-color="#00404f"/><stop offset="0.27" stop-color="#004150"/><stop offset="0.28" stop-color="#004251"/><stop offset="0.29" stop-color="#004252"/><stop offset="0.3" stop-color="#004352"/><stop offset="0.3" stop-color="#004453"/><stop offset="0.31" stop-color="#004554"/><stop offset="0.32" stop-color="#004555"/><stop offset="0.33" stop-color="#004655"/><stop offset="0.34" stop-color="#004756"/><stop offset="0.34" stop-color="#004857"/><stop offset="0.35" stop-color="#004858"/><stop offset="0.36" stop-color="#004958"/><stop offset="0.37" stop-color="#004a59"/><stop offset="0.38" stop-color="#004b5a"/><stop offset="0.38" stop-color="#004b5b"/><stop offset="0.39" stop-color="#004c5b"/><stop offset="0.4" stop-color="#004d5c"/><stop offset="0.41" stop-color="#004e5d"/><stop offset="0.41" stop-color="#004e5e"/><stop offset="0.42" stop-color="#004f5e"/><stop offset="0.43" stop-color="#00505f"/><stop offset="0.44" stop-color="#005160"/><stop offset="0.45" stop-color="#005161"/><stop offset="0.45" stop-color="#005261"/><stop offset="0.46" stop-color="#005362"/><stop offset="0.47" stop-color="#005463"/><stop offset="0.48" stop-color="#005464"/><stop offset="0.48" stop-color="#005564"/><stop offset="0.49" stop-color="#005665"/><stop offset="0.5" stop-color="#005766"/><stop offset="0.51" stop-color="#005767"/><stop offset="0.52" stop-color="#005868"/><stop offset="0.52" stop-color="#005968"/><stop offset="0.53" stop-color="#005a69"/><stop offset="0.54" stop-color="#005a6a"/><stop offset="0.55" stop-color="#005b6b"/><stop offset="0.55" stop-color="#005c6b"/><stop offset="0.56" stop-color="#005d6c"/><stop offset="0.57" stop-color="#005d6d"/><stop offset="0.58" stop-color="#005e6e"/><stop offset="0.59" stop-color="#005f6e"/><stop offset="0.59" stop-color="#00606f"/><stop offset="0.6" stop-color="#006070"/><stop offset="0.61" stop-color="#006171"/><stop offset="0.62" stop-color="#006271"/><stop offset="0.63" stop-color="#006372"/><stop offset="0.63" stop-color="#006373"/><stop offset="0.64" stop-color="#006474"/><stop offset="0.65" stop-color="#006574"/><stop offset="0.66" stop-color="#006675"/><stop offset="0.66" stop-color="#006676"/><stop offset="0.67" stop-color="#006777"/><stop offset="0.68" stop-color="#006877"/><stop offset="0.69" stop-color="#006978"/><stop offset="0.7" stop-color="#006979"/><stop offset="0.7" stop-color="#006a7a"/><stop offset="0.71" stop-color="#006b7a"/><stop offset="0.72" stop-color="#006c7b"/><stop offset="0.73" stop-color="#006c7c"/><stop offset="0.73" stop-color="#006d7d"/><stop offset="0.74" stop-color="#006e7d"/><stop offset="0.75" stop-color="#006f7e"/><stop offset="0.76" stop-color="#006f7f"/><stop offset="0.77" stop-color="#007080"/><stop offset="0.77" stop-color="#007181"/><stop offset="0.78" stop-color="#007281"/><stop offset="0.79" stop-color="#007282"/><stop offset="0.8" stop-color="#007383"/><stop offset="0.8" stop-color="#007484"/><stop offset="0.81" stop-color="#007584"/><stop offset="0.82" stop-color="#007585"/><stop offset="0.83" stop-color="#007686"/><stop offset="0.84" stop-color="#007787"/><stop offset="0.84" stop-color="#007887"/><stop offset="0.85" stop-color="#007888"/><stop offset="0.86" stop-color="#007989"/><stop offset="0.87" stop-color="#007a8a"/><stop offset="0.88" stop-color="#007b8a"/><stop offset="0.88" stop-color="#007b8b"/><stop offset="0.89" stop-color="#007c8c"/><stop offset="0.9" stop-color="#007d8d"/><stop offset="0.91" stop-color="#007e8d"/><stop offset="0.91" stop-color="#007e8e"/><stop offset="0.92" stop-color="#007f8f"/><stop offset="0.93" stop-color="#008090"/><stop offset="0.94" stop-color="#008090"/><stop offset="0.95" stop-color="#008191"/><stop offset="0.95" stop-color="#008292"/><stop offset="0.96" stop-color="#008393"/><stop offset="0.97" stop-color="#008393"/><stop offset="0.98" stop-color="#008494"/><stop offset="0.98" stop-color="#008595"/><stop offset="1" stop-color="#008696"/></linearGradient></defs><title>xrayicon</title><g class="cls-2"><g class="cls-3"><path class="cls-4" d="M-3.85,15.63V218.86H234.88V15.63Z"/></g></g></svg>